<?xml version="1.0" standalone="no"?>
<!DOCTYPE svg PUBLIC "-//W3C//DTD SVG 1.1//EN" "http://www.w3.org/Graphics/SVG/1.1/DTD/svg11.dtd" >
<svg xmlns="http://www.w3.org/2000/svg" xmlns:xlink="http://www.w3.org/1999/xlink" version="1.1">
<metadata>
Created by FontForge 20170731 at Thu May 17 15:59:00 2007
 By Aleksey,,,
Copyright (c) 2006 by Type-Together. All rights reserved.
</metadata>
<defs>
<font id="Karmina-Regular" horiz-adv-x="530" >
  <font-face 
    font-family="Karmina"
    font-weight="400"
    font-stretch="normal"
    units-per-em="1000"
    panose-1="2 0 5 3 0 0 0 2 0 4"
    ascent="800"
    descent="-200"
    x-height="469"
    cap-height="650"
    bbox="-131 -261 1265 881"
    underline-thickness="50"
    underline-position="-200"
    unicode-range="U+000D-FE6A"
  />
<missing-glyph horiz-adv-x="195" 
 />
    <glyph glyph-name="ff" unicode="ff" horiz-adv-x="627" 
d="M385 130v285h-214v-304q1 -25 10 -52q36 -18 98 -28v-34q-62 3 -127 3q-56 0 -115 -3v33q31 8 42 18q10 45 12 82v285h-58v40q36 4 64 13q2 70 16 106q21 52 68 81t105 29q46 0 101 -30l-42 -79h-19q-36 58 -85 58q-12 0 -21 -3t-19.5 -12.5t-17.5 -30.5t-10 -53
q-2 -30 -2 -64q119 0 220 6q2 61 16 98q21 52 68 81t105 29q46 0 101 -30l-42 -79h-19q-36 58 -85 58q-12 0 -21 -3t-19.5 -12.5t-17.5 -30.5t-10 -53q-2 -30 -2 -64q55 0 140 9q-8 -29 -12 -64h-128v-304q1 -25 10 -52q36 -18 98 -28v-34q-61 3 -127 3q-56 0 -115 -3v33
q31 8 42 18q10 45 12 82z" />
    <glyph glyph-name="fi" unicode="fi" horiz-adv-x="565" 
d="M473 370v-264q1 -25 10 -52q32 -15 69 -23v-34q-61 3 -114 3q-51 0 -105 -3v33q41 12 48 18q10 45 12 82v190q-2 66 -9 95h-213v-304q1 -25 10 -52q36 -18 98 -28v-34q-62 3 -127 3q-56 0 -115 -3v33q31 8 42 18q10 45 12 82v285h-63v40l69 15q2 67 16 104q21 52 72.5 81
t117.5 29q79 0 152 -40l-42 -88h-19q-48 77 -128 77q-18 0 -31 -3t-27 -12.5t-23 -30.5t-12 -53q-2 -30 -2 -64q42 0 152.5 3.5t142.5 6.5l20 -10q-13 -41 -13 -100z" />
    <glyph glyph-name="fl" unicode="fl" horiz-adv-x="571" 
d="M479 606v-500q1 -25 10 -52q35 -17 69 -23v-34q-54 3 -106 3q-53 0 -107 -3v33q28 6 42 18q10 45 12 82v448q-68 55 -132 55q-17 0 -30 -3t-27.5 -12.5t-24 -30.5t-12.5 -53q-2 -30 -2 -64q55 0 140 9q-8 -29 -12 -64h-128v-304q1 -25 10 -52q36 -18 98 -28v-34
q-62 3 -127 3q-56 0 -115 -3v33q31 8 42 18q10 45 12 82v285h-63v40l69 15q2 67 16 104q21 51 70 80.5t105 29.5q33 0 92 -19q27 5 87 30l20 -11q-8 -48 -8 -78z" />
    <glyph glyph-name="ffi" unicode="ffi" horiz-adv-x="859" 
d="M767 370v-264q1 -25 10 -52q32 -15 69 -23v-34q-61 3 -114 3q-51 0 -105 -3v33q41 12 48 18q10 45 12 82v190q-2 66 -9 95h-213v-304q1 -25 10 -52q36 -18 98 -28v-34q-61 3 -127 3q-56 0 -115 -3v33q31 8 42 18q10 45 12 82v285h-214v-304q1 -25 10 -52q36 -18 98 -28
v-34q-62 3 -127 3q-56 0 -115 -3v33q31 8 42 18q10 45 12 82v285h-58v40q36 4 64 13q2 70 16 106q21 52 68 81t105 29q46 0 101 -30l-42 -79h-19q-36 58 -85 58q-12 0 -21 -3t-19.5 -12.5t-17.5 -30.5t-10 -53q-2 -30 -2 -64q128 0 220 4q2 65 16 100q21 52 72.5 81
t117.5 29q79 0 152 -40l-42 -88h-19q-48 77 -128 77q-18 0 -31 -3t-27 -12.5t-23 -30.5t-12 -53q-2 -30 -2 -64q42 0 152.5 3.5t142.5 6.5l20 -10q-13 -41 -13 -100z" />
    <glyph glyph-name="ffl" unicode="ffl" horiz-adv-x="865" 
d="M773 606v-500q1 -25 10 -52q35 -17 69 -23v-34q-54 3 -106 3q-53 0 -107 -3v33q28 6 42 18q10 45 12 82v448q-68 55 -132 55q-17 0 -30 -3t-27.5 -12.5t-24 -30.5t-12.5 -53q-2 -30 -2 -64q55 0 140 9q-8 -29 -12 -64h-128v-304q1 -25 10 -52q36 -18 98 -28v-34
q-61 3 -127 3q-56 0 -115 -3v33q31 8 42 18q10 45 12 82v285h-214v-304q1 -25 10 -52q36 -18 98 -28v-34q-62 3 -127 3q-56 0 -115 -3v33q31 8 42 18q10 45 12 82v285h-58v40q36 4 64 13q2 70 16 106q21 52 68 81t105 29q46 0 101 -30l-42 -79h-19q-36 58 -85 58
q-12 0 -21 -3t-19.5 -12.5t-17.5 -30.5t-10 -53q-2 -30 -2 -64q105 0 220 5q2 64 16 99q21 51 70 80.5t105 29.5q33 0 92 -19q27 5 87 30l20 -11q-8 -48 -8 -78z" />
    <glyph glyph-name=".notdef" horiz-adv-x="195" 
 />
    <glyph glyph-name=".null" horiz-adv-x="0" 
 />
    <glyph glyph-name=".null" horiz-adv-x="0" 
 />
    <glyph glyph-name="nonmarkingreturn" horiz-adv-x="333" 
 />
    <glyph glyph-name="CR" unicode="&#xd;" horiz-adv-x="195" 
 />
    <glyph glyph-name="space" unicode=" " horiz-adv-x="195" 
 />
    <glyph glyph-name="exclam" unicode="!" horiz-adv-x="265" 
d="M110 165l-28 449q-1 22 13.5 33.5t36.5 11.5q21 0 36.5 -11.5t14.5 -33.5l-27 -449h-46zM75 48q0 23 15 39t41 16q28 0 43.5 -15t15.5 -40q0 -23 -15 -39t-42 -16q-29 0 -43.5 15.5t-14.5 39.5z" />
    <glyph glyph-name="quotedbl" unicode="&#x22;" horiz-adv-x="397" 
d="M83 431l-10 253h93l-15 -253h-68zM241 431l-10 253h93l-15 -253h-68z" />
    <glyph glyph-name="numbersign" unicode="#" horiz-adv-x="593" 
d="M195 0h-54l18 126h-121l16 72h117l22 142h-121l15 73h117l19 130h55l-20 -130h133l19 130h55l-20 -130h121l-14 -73h-118l-20 -142h119l-14 -72h-116l-19 -126h-54l19 126h-135zM380 340h-133l-22 -142h135z" />
    <glyph glyph-name="dollar" unicode="$" horiz-adv-x="509" 
d="M238 621v80h45v-78q87 -5 156 -37q-11 -75 -6 -146h-18l-43 6q-2 58 -19 94q-27 25 -70 34v-215q39 -16 63.5 -29.5t52 -35t41 -50.5t13.5 -65q0 -81 -44 -129.5t-126 -61.5v-86h-45v82q-7 -1 -20 -1q-100 0 -182 45q7 28 21 170l55 -7q6 -83 16 -114q46 -41 110 -42v238
l-17 7q-37 15 -60.5 27.5t-50 33t-39.5 48.5t-13 64q0 75 51.5 118t128.5 50zM147 490q0 -39 23 -64.5t68 -47.5v197q-45 -5 -68 -28t-23 -57zM361 141q0 69 -78 111v-214q78 17 78 103z" />
    <glyph glyph-name="percent" unicode="%" horiz-adv-x="889" 
d="M809 179q0 -86 -43.5 -141t-117.5 -55q-77 0 -115 53.5t-38 129.5q0 83 43.5 136t117.5 53q77 0 115 -47.5t38 -128.5zM724 175q0 30 -2 50.5t-8.5 42.5t-21.5 33.5t-38 11.5q-74 0 -74 -143q0 -30 2.5 -52t9.5 -44.5t22 -34.5t38 -12q30 0 47 22.5t21 51.5t4 74z
M211 -17l377 638h75l-376 -638h-76zM382 444q0 -85 -43.5 -140.5t-117.5 -55.5q-78 0 -116 53t-38 130q0 84 43.5 137t118.5 53q76 0 114.5 -48t38.5 -129zM297 440q0 30 -2 50.5t-8.5 43t-21.5 34t-38 11.5q-75 0 -75 -143q0 -144 73 -144q30 0 47 22.5t21 51.5t4 74z" />
    <glyph glyph-name="ampersand" unicode="&#x26;" horiz-adv-x="741" 
d="M625 385q-16 -77 -33 -126t-49 -93l120 -122l40 -21v-35h-118q-35 42 -56 63l-38 39q-96 -102 -235 -102q-88 0 -147 47t-59 137q0 58 25.5 96t70.5 73q19 16 59 37q-72 68 -72 141q0 60 48.5 103t127.5 43q73 0 116 -32.5t43 -89.5q0 -30 -14.5 -56t-43 -46.5
t-45.5 -30.5t-45 -23l181 -184q46 69 49 183l-4 8q-13 4 -43 6v36h184l5 -37q-37 -4 -67 -14zM446 132l-207 211q-43 -27 -66 -61.5t-23 -88.5q0 -58 37 -94.5t98 -36.5q97 0 161 70zM289 419q28 17 44 29t32 36t16 52q0 38 -19 58t-52 20q-36 0 -57 -21t-21 -56t12.5 -60
t44.5 -58z" />
    <glyph glyph-name="quotesingle" unicode="'" horiz-adv-x="240" 
d="M83 431l-10 253h93l-15 -253h-68z" />
    <glyph glyph-name="parenleft" unicode="(" horiz-adv-x="278" 
d="M59 286q0 120 50.5 242.5t110.5 184.5l34 -24q-54 -71 -87.5 -182t-33.5 -216q0 -112 32.5 -228t84.5 -191l-34 -24q-60 65 -108.5 187t-48.5 251z" />
    <glyph glyph-name="parenright" unicode=")" horiz-adv-x="278" 
d="M219 286q0 -129 -48.5 -251t-108.5 -187l-34 24q52 75 84.5 191t32.5 228q0 105 -33.5 216t-87.5 182l34 24q60 -62 110.5 -184.5t50.5 -242.5z" />
    <glyph glyph-name="asterisk" unicode="*" horiz-adv-x="399" 
d="M331 559l-102 -41l102 -42q19 -8 19 -25q0 -10 -4 -17q-9 -16 -26 -16q-12 0 -20 7l-84 66l16 -111q2 -15 -8 -23t-24 -8q-16 0 -25 8t-7 23l16 110l-84 -65q-8 -7 -19 -7q-12 0 -22 10t-10 23q0 17 19 24l102 42l-102 41q-19 8 -19 25q0 12 9 22.5t21 10.5t20 -7l86 -66
l-18 112q-1 15 8.5 23.5t23.5 8.5q16 0 24.5 -8.5t6.5 -23.5l-15 -112l84 66q10 8 20 8q13 0 22 -10t9 -24q0 -17 -19 -24z" />
    <glyph glyph-name="plus" unicode="+" 
d="M492 276h-198v-209h-65v209h-191v58h191v196h65v-196h198v-58z" />
    <glyph glyph-name="comma" unicode="," horiz-adv-x="239" 
d="M52 -113q52 44 52 82q0 17 -19.5 41.5t-19.5 43.5q0 25 16 39t42 14q28 0 46.5 -20t18.5 -56q0 -53 -33.5 -98.5t-81.5 -76.5z" />
    <glyph glyph-name="hyphen" unicode="-" horiz-adv-x="368" 
d="M39 250v81h290v-81h-290z" />
    <glyph glyph-name="period" unicode="." horiz-adv-x="226" 
d="M59 50q0 25 16.5 41.5t43.5 16.5q29 0 45.5 -16t16.5 -41t-15.5 -41.5t-44.5 -16.5q-30 0 -46 16t-16 41z" />
    <glyph glyph-name="slash" unicode="/" horiz-adv-x="353" 
d="M10 -92l273 823h60l-272 -823h-61z" />
    <glyph glyph-name="zero" unicode="0" horiz-adv-x="550" 
d="M274 476q-65 0 -104.5 -58t-39.5 -156q0 -96 34.5 -162t108.5 -66q64 0 106 59t42 156q0 227 -147 227zM29 253q0 119 73.5 194t177.5 75q110 0 175.5 -75.5t65.5 -188.5q0 -130 -74 -199.5t-174 -69.5q-101 0 -172.5 68t-71.5 196z" />
    <glyph glyph-name="one" unicode="1" horiz-adv-x="387" 
d="M173 167v177q0 58 -11 80l-105 -5v40q128 33 193 76l24 -12q-13 -43 -13 -97v-286q3 -45 14 -78q27 -14 102 -29v-35q-80 2 -152 2q-57 0 -167 -5v36q83 15 103 30q8 30 12 106z" />
    <glyph glyph-name="two" unicode="2" horiz-adv-x="497" 
d="M37 0v54q159 102 218 167.5t59 134.5q0 49 -28 79.5t-89 30.5q-35 0 -74 -12q-13 -33 -10 -83l-35 -11h-20q-3 49 -14 115q94 47 199 47q77 0 125 -39t48 -110q0 -49 -19 -88.5t-83 -95t-182 -122.5l3 -7q50 9 111 9l106 -2q39 58 51 99l54 -8q-24 -75 -31 -158h-389z
" />
    <glyph glyph-name="three" unicode="3" horiz-adv-x="445" 
d="M303 82q0 118 -121 118q-33 0 -60 -7l-18 13l24 44q64 2 115 38.5t51 91.5q0 40 -26.5 65t-81.5 25q-40 0 -75 -14q-9 -32 -6 -74l-32 -12h-20q-2 41 -14 110q83 42 176 42q84 0 127 -36.5t43 -98.5q0 -93 -138 -143l3 -7q74 -5 114.5 -43.5t40.5 -107.5
q0 -81 -65.5 -134t-160.5 -53q-80 0 -149 22q10 51 14 133l54 -6q-2 -58 12 -92q31 -12 64 -12q55 0 92 34.5t37 103.5z" />
    <glyph glyph-name="four" unicode="4" horiz-adv-x="501" 
d="M388 522l6 -12v-408h79v-53h-79v-34q2 -60 5 -104q-34 -1 -88 -15l-17 14q7 25 14 96v43h-262l-23 53l287 401zM308 104v195q0 84 11 129l-5 4l-216 -324z" />
    <glyph glyph-name="five" unicode="5" horiz-adv-x="478" 
d="M328 102q0 141 -135 141q-59 0 -120 -27l-10 9l17 285h331l-3 -51l-22 -21h-251l-17 -154l6 -6q56 23 122 23q79 0 131.5 -44t52.5 -130q0 -99 -70 -163.5t-180 -64.5q-79 0 -140 17q12 64 14 138l55 -7q-3 -50 12 -91q23 -9 58 -9q60 0 104.5 39.5t44.5 115.5z" />
    <glyph glyph-name="six" unicode="6" horiz-adv-x="531" 
d="M423 602q-113 -45 -176 -110t-84 -157l2 -4q40 32 69.5 43t68.5 11q83 0 125.5 -53.5t42.5 -131.5q0 -95 -61 -153.5t-151 -58.5q-97 0 -148 67.5t-51 185.5q0 131 89.5 237.5t258.5 152.5zM269 36q48 0 76.5 40.5t28.5 112.5q0 142 -110 142q-53 0 -104 -42
q-2 -18 -2 -55q0 -88 28.5 -143t82.5 -55z" />
    <glyph glyph-name="seven" unicode="7" horiz-adv-x="450" 
d="M271 438h-161q-9 -31 -14 -81l-33 -4h-9q-4 77 -19 157h405v-48q-207 -330 -228 -482q0 -34 16 -63l-112 -18l-12 16q25 166 266 524l-4 4q-30 -5 -95 -5z" />
    <glyph glyph-name="eight" unicode="8" horiz-adv-x="492" 
d="M253 620q74 0 121 -42t47 -105q0 -41 -26 -81t-69 -68v-2q62 -35 89 -70.5t27 -91.5q0 -68 -52.5 -119.5t-149.5 -51.5q-92 0 -141 43.5t-49 113.5q0 91 112 156l-1 2q-87 53 -87 152q0 74 53 119t126 45zM345 468q0 41 -24.5 72.5t-74.5 31.5q-41 0 -68 -25t-27 -68
q0 -35 26.5 -66.5t106.5 -68.5q61 45 61 124zM253 40q105 0 105 94q0 41 -32 74.5t-125 74.5q-67 -48 -67 -125q0 -60 31.5 -89t87.5 -29z" />
    <glyph glyph-name="nine" unicode="9" horiz-adv-x="540" 
d="M374 174l-2 4q-60 -52 -128 -52q-84 0 -132 52.5t-48 132.5q0 94 59.5 152.5t149.5 58.5q97 0 150 -67.5t53 -185.5q0 -52 -12.5 -101.5t-40.5 -98t-70 -87t-105.5 -66.5t-141.5 -37l-8 30q128 36 190 103t86 162zM263 474q-101 0 -101 -153q0 -62 32 -101t90 -39
q51 0 91 37q3 27 3 58q0 89 -29 143.5t-86 54.5z" />
    <glyph glyph-name="colon" unicode=":" horiz-adv-x="226" 
d="M59 50q0 25 16.5 41.5t43.5 16.5q29 0 45.5 -16t16.5 -41t-15.5 -41.5t-44.5 -16.5q-30 0 -46 16t-16 41zM59 402q0 25 16.5 41.5t43.5 16.5q29 0 45.5 -16t16.5 -41t-15.5 -41.5t-44.5 -16.5q-30 0 -46 16t-16 41z" />
    <glyph glyph-name="semicolon" unicode=";" horiz-adv-x="241" 
d="M52 -113q52 44 52 82q0 17 -19.5 41.5t-19.5 43.5q0 25 16 39t42 14q28 0 46.5 -20t18.5 -56q0 -53 -33.5 -98.5t-81.5 -76.5zM67 402q0 25 16.5 41.5t43.5 16.5q29 0 45.5 -16t16.5 -41t-15.5 -41.5t-44.5 -16.5q-30 0 -46 16t-16 41z" />
    <glyph glyph-name="less" unicode="&#x3c;" 
d="M491 40l-452 194v77l452 191v-65l-388 -163l388 -165v-69z" />
    <glyph glyph-name="equal" unicode="=" 
d="M492 331h-454v58h454v-58zM492 165h-454v58h454v-58z" />
    <glyph glyph-name="greater" unicode="&#x3e;" 
d="M491 234l-452 -194v69l388 165l-388 163v65l452 -191v-77z" />
    <glyph glyph-name="question" unicode="?" horiz-adv-x="423" 
d="M117 48q0 23 15 39t41 16q28 0 43.5 -15t15.5 -40q0 -23 -15 -39t-42 -16q-29 0 -43.5 15.5t-14.5 39.5zM388 519q0 -55 -27.5 -90.5t-80.5 -72.5t-66 -61t-13 -81v-49h-52v53q0 58 7.5 90t37.5 63q7 7 28.5 26.5t32 31t21 35t10.5 50.5q0 46 -22 70.5t-74 24.5
q-18 0 -34.5 -2t-23.5 -4l-8 -2q-12 -29 -10 -84l-34 -12h-20q-2 37 -13 116q37 17 89 30.5t82 13.5q81 0 125.5 -39.5t44.5 -106.5z" />
    <glyph glyph-name="at" unicode="@" horiz-adv-x="831" 
d="M606 381l-29 -185q-12 -84 -12 -100q0 -33 13.5 -45.5t43.5 -12.5q46 0 73.5 54t27.5 156q0 140 -71.5 212t-208.5 72q-140 0 -229 -98.5t-89 -244.5q0 -160 87 -233.5t233 -73.5q34 0 79 5l6 -52q-67 -7 -104 -7q-166 0 -269.5 91t-103.5 265q0 179 109 293.5t288 114.5
q153 0 247.5 -86.5t94.5 -241.5q0 -140 -53.5 -210.5t-137.5 -70.5q-106 0 -111 100q-37 -40 -81 -73q-29 -22 -61 -22q-111 0 -111 143q0 119 62.5 202t162.5 83q79 0 144 -35zM493 137l31 204q-32 26 -73 26q-62 0 -97.5 -63t-35.5 -154q0 -52 11 -74t43 -22q51 0 121 83z
" />
    <glyph glyph-name="A" unicode="A" horiz-adv-x="640" 
d="M465 65l-55 169h-211l-62 -170l4 -8q30 -14 67 -23v-35q-82 2 -108 2q-31 0 -95 -2v36q36 10 64 26l226 590h67l201 -585q34 -19 74 -31v-36q-88 2 -123 2q-42 0 -124 -2v35q37 6 73 23zM308 531l-90 -246h176l-79 246h-7z" />
    <glyph glyph-name="B" unicode="B" horiz-adv-x="535" 
d="M291 0h-129q-34 0 -122 -2v36q35 8 58 22q8 34 13 111v346q-1 36 -9 73q-32 19 -68 28v36q55 -3 120 -3h136q190 0 190 -153q0 -64 -39 -102t-104 -51v-6q72 -2 122.5 -44.5t50.5 -111.5q0 -88 -58 -133.5t-161 -45.5zM213 50h67q65 0 99 33t34 85q0 70 -41 105.5
t-115 35.5h-56v-176q2 -51 12 -83zM201 360h50q69 0 100.5 28t31.5 92q0 117 -120 117h-62v-237z" />
    <glyph glyph-name="C" unicode="C" horiz-adv-x="588" 
d="M552 640q-11 -80 -6 -154h-19l-42 6q-5 68 -19 99q-56 20 -120 20q-92 0 -148.5 -72.5t-56.5 -195.5q0 -44 7 -85.5t23.5 -81.5t42 -69.5t65 -48t89.5 -18.5q55 0 95 17q23 34 46 128l54 -7q-13 -82 -13 -163q-73 -32 -188 -32q-167 0 -245 92.5t-78 249.5
q0 146 92 242.5t229 96.5q89 0 192 -24z" />
    <glyph glyph-name="D" unicode="D" horiz-adv-x="646" 
d="M505 318q0 150 -60.5 214.5t-172.5 64.5h-71v-464q2 -53 12 -82h81q115 0 163 66t48 201zM312 0h-151q-33 0 -121 -2v36q34 7 57 22q9 34 14 111v346q-1 39 -10 73q-32 19 -68 28v36q57 -3 121 -3h148q62 0 113.5 -14.5t96.5 -47t70 -93t25 -144.5q0 -77 -16.5 -137
t-43.5 -99t-65.5 -65t-80 -36.5t-89.5 -10.5z" />
    <glyph glyph-name="E" unicode="E" horiz-adv-x="537" 
d="M397 595h-189q-5 -33 -7 -80v-160h121q29 1 42 9q19 30 29 70h36q-5 -89 0 -209h-36q-9 41 -23 68q-22 8 -63 9h-106v-147q4 -70 9 -102h208q11 19 26 59.5t20 63.5l53 -7q-21 -102 -23 -169h-340q-26 0 -114 -2v36q35 8 58 22q8 34 13 111v344q-1 36 -9 73
q-32 19 -68 28v35h443q-8 -89 -5 -148h-19l-41 6q-2 54 -15 90z" />
    <glyph glyph-name="F" unicode="F" horiz-adv-x="495" 
d="M395 597h-187q-5 -34 -7 -76v-169h116q33 3 42 9q19 30 29 70h36q-5 -89 0 -209h-36q-9 41 -23 69q-23 7 -58 8h-106v-154q2 -44 14 -83q41 -21 88 -29v-35q-82 2 -141 2q-34 0 -122 -2v36q35 8 58 22q8 34 13 111v346q-1 36 -9 73q-32 19 -68 28v36q55 -3 120 -3h321
q-8 -88 -5 -146h-19l-41 6q-2 54 -15 90z" />
    <glyph glyph-name="G" unicode="G" horiz-adv-x="642" 
d="M372 42q47 0 104 17v94q-2 46 -9 82q-40 21 -88 30v35q80 -2 131 -2q34 0 122 2v-36q-31 -7 -58 -22q-5 -40 -9 -111v-104q-109 -44 -211 -44q-155 0 -235 89.5t-80 252.5q0 149 93.5 244t234.5 95q95 0 199 -23q-11 -80 -6 -155h-19l-42 6q-5 63 -19 98q-55 20 -119 20
q-102 0 -161 -70.5t-59 -199.5q0 -57 11.5 -107.5t37 -94.5t72 -70t110.5 -26z" />
    <glyph glyph-name="H" unicode="H" horiz-adv-x="704" 
d="M503 367v146q-3 47 -10 73q-32 19 -68 28v36q57 -3 123 -3q56 0 120 3v-36q-30 -8 -62 -26q-9 -41 -13 -110v-343q1 -37 13 -73q31 -20 74 -29v-35q-82 2 -124 2q-36 0 -124 -2v36q34 7 57 22q9 34 14 111v146h-302v-178q3 -39 14 -73q32 -20 73 -29v-35q-80 2 -124 2
q-36 0 -124 -2v36q35 8 58 22q8 34 13 111v345q-1 35 -9 72q-33 21 -70 29v36q61 -3 116 -3q62 0 126 3v-36q-38 -10 -59 -23q-10 -40 -14 -111v-112h302z" />
    <glyph glyph-name="I" unicode="I" horiz-adv-x="312" 
d="M111 167v346q-1 36 -9 73q-32 19 -68 28v36q55 -3 123 -3q54 0 120 3v-36q-36 -9 -62 -26q-10 -47 -14 -110v-343q3 -39 14 -73q32 -20 73 -29v-35q-80 2 -123 2q-37 0 -125 -2v36q35 8 58 22q8 34 13 111z" />
    <glyph glyph-name="J" unicode="J" horiz-adv-x="300" 
d="M105 91v419q-1 34 -10 76q-31 18 -77 28v36q57 -3 131 -3q56 0 122 3v-36q-36 -9 -62 -26q-10 -47 -14 -110v-362q-1 -90 -9 -167q-11 -12 -37.5 -42.5t-56.5 -66t-38 -44.5l-30 26q81 122 81 269z" />
    <glyph glyph-name="K" unicode="K" horiz-adv-x="588" 
d="M293 357l220 -281l63 -43v-33h-132q-23 37 -48 71l-190 254h-5v-190q3 -39 14 -73q32 -20 73 -29v-35q-80 2 -124 2q-36 0 -124 -2v36q35 8 58 22q8 34 13 111v345q0 33 -13 72q-31 20 -74 29v36q61 -3 124 -3q60 0 124 3v-36q-35 -9 -57 -23q-10 -40 -14 -111v-144h4
l228 253l-2 11q-21 12 -54 14v36q76 -2 112 -2q52 0 78 2v-35q-27 -6 -50 -23z" />
    <glyph glyph-name="L" unicode="L" horiz-adv-x="514" 
d="M210 54h189q20 31 52 151l50 -5q-20 -108 -20 -200h-324q-29 0 -117 -2v36q35 8 58 22q8 34 13 111v346q-1 36 -9 73q-32 19 -68 28v36q55 -3 123 -3q26 0 146 3v-35q-48 -9 -88 -30q-11 -34 -13 -82v-348q2 -60 8 -101z" />
    <glyph glyph-name="M" unicode="M" horiz-adv-x="832" 
d="M721 503v-367q4 -46 13 -74q28 -18 70 -27v-37q-80 2 -119 2q-40 0 -128 -2v36q41 9 62 22q10 39 14 111v370l-191 -510h-66l-196 524v-409q4 -55 12 -80q31 -19 75 -29v-35q-40 2 -105 2q-36 0 -122 -2v36q34 7 57 22q10 39 14 111v336q-1 40 -8 81q-30 19 -67 27v38
q72 -2 109 -2q63 0 96 2l177 -500h6l183 500q50 -2 93 -2q60 0 96 2v-38q-39 -8 -68 -27q-6 -49 -7 -81z" />
    <glyph glyph-name="N" unicode="N" horiz-adv-x="720" 
d="M609 509l-1 -499l-69 -22l-357 580v-426q4 -55 12 -80q31 -19 75 -29v-35q-40 2 -105 2q-36 0 -124 -2v36q35 8 58 22q8 34 13 111v333q0 23 -7 84q-29 18 -67 27v38q70 -2 110 -2q26 0 92 2l303 -508v363q-2 52 -13 81q-42 23 -83 30v35q61 -3 117 -3q73 0 128 3v-36
q-47 -12 -74 -28q-8 -38 -8 -77z" />
    <glyph glyph-name="O" unicode="O" horiz-adv-x="679" 
d="M322 -17q-132 0 -207.5 95t-75.5 247q0 149 86 244t228 95q128 0 207.5 -86t79.5 -230q0 -165 -86 -265t-232 -100zM321 611q-91 0 -135.5 -66.5t-44.5 -172.5q0 -47 5 -90.5t19.5 -89.5t37.5 -79t62 -54.5t90 -21.5q91 0 137.5 72.5t46.5 178.5q0 146 -54.5 234.5
t-163.5 88.5z" />
    <glyph glyph-name="P" unicode="P" horiz-adv-x="521" 
d="M157 647h139q206 0 206 -181q0 -60 -22 -103t-60.5 -65.5t-82 -32t-95.5 -9.5q-27 0 -41 1v-111q1 -40 15 -83q42 -21 92 -30v-35q-82 2 -144 2q-36 0 -124 -2v36q35 8 58 22q8 34 13 111v346q-1 36 -9 73q-32 19 -68 28v36q55 -3 123 -3zM243 305q86 0 123 36.5
t37 116.5q0 69 -35.5 104t-96.5 35h-63q-5 -34 -7 -76v-215q12 -1 42 -1z" />
    <glyph glyph-name="Q" unicode="Q" horiz-adv-x="679" 
d="M322 -17q-132 0 -207.5 95t-75.5 247q0 149 86 244t228 95q128 0 207.5 -86t79.5 -230q0 -175 -97 -277q63 -68 120 -108l-11 -24q-46 5 -88 14q-39 28 -86 68q-71 -38 -156 -38zM321 611q-91 0 -135.5 -66.5t-44.5 -172.5q0 -47 5 -90.5t19.5 -89.5t37.5 -79t62 -54.5
t90 -21.5q49 0 82 20q-58 49 -82 77l62 62h25q20 -32 58 -75q39 69 39 167q0 146 -54.5 234.5t-163.5 88.5z" />
    <glyph glyph-name="R" unicode="R" horiz-adv-x="579" 
d="M203 292v-157q1 -37 13 -73q31 -20 74 -29v-35q-82 2 -123 2q-83 0 -127 -2v36q35 8 58 22q8 34 13 111v346q-1 36 -9 73q-32 19 -68 28v36q55 -3 126 -3h149q199 0 199 -169q0 -68 -41 -112.5t-107 -62.5l154 -227l53 -43v-33h-123q-14 29 -42 73l-137 219h-62zM203 345
h83q119 0 119 126q0 62 -32.5 94t-92.5 32h-70q-5 -35 -7 -80v-172z" />
    <glyph glyph-name="S" unicode="S" horiz-adv-x="501" 
d="M439 625q-9 -82 -6 -153h-18l-43 6q-2 60 -18 99q-32 32 -90 32q-54 0 -82.5 -25t-28.5 -65q0 -49 31.5 -79t94.5 -55q29 -12 39.5 -16t36 -16.5t36.5 -21t29 -24t26 -31t14.5 -37t6.5 -46.5q0 -100 -65 -152.5t-178 -52.5q-111 0 -190 41q8 34 21 179l60 -8
q3 -75 16 -119q41 -39 118 -39q61 0 93.5 29t32.5 82q0 58 -37.5 89.5t-109.5 56.5q-77 27 -120.5 66t-43.5 114q0 88 61.5 134t147.5 46q98 0 166 -34z" />
    <glyph glyph-name="T" unicode="T" horiz-adv-x="589" 
d="M240 595h-129q-7 -21 -15.5 -68.5t-9.5 -66.5l-43 -6h-18q5 115 -7 193h553q-12 -96 -8 -192h-19l-42 6q-1 21 -9 67.5t-15 66.5h-128q-6 -35 -10 -83v-367q2 -44 14 -83q41 -21 88 -29v-35q-82 2 -138 2q-62 0 -150 -2v38q57 10 82 25q10 34 14 108v342q-3 55 -10 84z
" />
    <glyph glyph-name="U" unicode="U" horiz-adv-x="700" 
d="M531 279v234q-3 39 -10 73q-32 19 -68 28v36q57 -3 100 -3q54 0 120 3v-36q-36 -9 -66 -26q-10 -46 -10 -84v-180q0 -77 -9 -139q-16 -103 -73 -150t-164 -47q-98 0 -155 39t-79 127q-12 45 -12 137v223q-1 29 -13 70q-31 20 -74 29v36q61 -3 114 -3q70 0 136 3v-36
q-37 -10 -58 -23q-8 -34 -12 -95v-184q0 -78 8 -128q12 -75 48.5 -105t111.5 -30q70 0 108 29t48 92q9 51 9 110z" />
    <glyph glyph-name="V" unicode="V" horiz-adv-x="627" 
d="M175 583l151 -471h8l154 471l-3 9q-29 13 -68 22v36q62 -3 109 -3q48 0 96 3v-36q-36 -10 -64 -26l-209 -594h-73l-201 589q-31 18 -73 31v36q66 -3 124 -3q62 0 124 3v-36q-40 -7 -73 -22z" />
    <glyph glyph-name="W" unicode="W" horiz-adv-x="921" 
d="M510 583l146 -455h13l113 456l-3 8q-29 13 -68 22v36q62 -3 109 -3q48 0 96 3v-36q-41 -11 -65 -26l-163 -600h-79l-146 439l-151 -439h-67l-167 595q-31 18 -73 31v36q66 -3 121 -3q60 0 121 3v-36q-42 -7 -74 -22l-1 -9l121 -450h11l129 377l-30 86q-13 7 -58 16v37
q86 -2 126 -2q68 0 112 2v-40q-43 -2 -68 -13z" />
    <glyph glyph-name="X" unicode="X" horiz-adv-x="650" 
d="M331 390l141 201l-3 10q-25 9 -76 11v38q61 -3 121 -3q51 0 105 3v-38q-45 -9 -62 -20l-190 -246l204 -284q23 -18 59 -31v-33q-46 2 -122 2q-84 0 -129 -2v30q42 9 67 25l3 12l-144 203l-145 -204l4 -12q28 -13 82 -23v-31q-44 2 -118 2q-71 0 -108 -2v31q32 13 57 34
l194 256l-186 272q-19 12 -60 22v37q45 -2 132 -2q81 0 123 2v-37q-33 -3 -69 -19l-2 -12z" />
    <glyph glyph-name="Y" unicode="Y" horiz-adv-x="575" 
d="M245 167v88l-167 328q-31 18 -73 31v36q66 -3 121 -3q62 0 124 3v-36q-40 -7 -73 -22l-2 -9l124 -259h6l132 259l-4 9q-25 12 -67 22v36q60 -3 108 -3t96 3v-36q-38 -11 -64 -26l-172 -323v-130q3 -39 14 -73q31 -20 73 -29v-35q-80 2 -123 2q-47 0 -135 -2v37
q46 10 67 23q11 39 15 109z" />
    <glyph glyph-name="Z" unicode="Z" horiz-adv-x="566" 
d="M418 598h-283q-18 -50 -25 -132l-46 -7h-18q2 30 1.5 86t-3.5 87l15 15h470v-46l-386 -550h291q38 77 60 158l57 -8q-21 -106 -27 -201h-490v49z" />
    <glyph glyph-name="bracketleft" unicode="[" horiz-adv-x="243" 
d="M68 -143v866h165v-52h-103v-762h103v-52h-165z" />
    <glyph glyph-name="backslash" unicode="\" horiz-adv-x="353" 
d="M70 731l273 -823h-61l-272 823h60z" />
    <glyph glyph-name="bracketright" unicode="]" horiz-adv-x="243" 
d="M175 723v-866h-165v52h103v762h-103v52h165z" />
    <glyph glyph-name="asciicircum" unicode="^" horiz-adv-x="526" 
d="M496 299l-56 -21l-180 324l-177 -324l-53 21l189 365h83z" />
    <glyph glyph-name="underscore" unicode="_" horiz-adv-x="500" 
d="M500 -181h-500v52h500v-52z" />
    <glyph glyph-name="grave" unicode="`" horiz-adv-x="500" 
d="M345 559l-33 -25l-166 144v21q56 9 90 24z" />
    <glyph glyph-name="a" unicode="a" horiz-adv-x="465" 
d="M300 56l-7 1q-21 -20 -61 -51q-28 -18 -74 -18q-47 0 -82.5 29.5t-35.5 95.5q0 55 33 92q60 32 218 71v49q0 54 -18 77.5t-71 23.5q-15 0 -29 -1.5t-20 -2.5l-6 -2q-13 -30 -9 -87l-42 -12h-18q-4 43 -13 105q36 21 91.5 37.5t89.5 16.5q67 0 96 -33.5t29 -100.5v-206
q0 -44 15 -83q32 -18 69 -26v-33q-48 2 -74 2q-46 0 -70 -2q-3 34 -11 58zM291 98v140q-102 -22 -136 -51q-24 -20 -24 -63q0 -72 64 -72q48 0 96 46z" />
    <glyph glyph-name="b" unicode="b" horiz-adv-x="518" 
d="M67 28q7 33 10 86v421q0 40 -8 75q-23 14 -69 19l-5 29q97 15 151 37l19 -11q-8 -48 -8 -83v-104q0 -43 -5 -72l6 -3q48 33 69 45q31 13 72 13q77 0 127 -53t50 -170q0 -113 -67 -190.5t-168 -78.5q-82 0 -174 40zM252 32q66 0 98 55.5t32 149.5q0 88 -30.5 136.5
t-82.5 48.5q-27 0 -54 -9.5t-41 -18.5l-13 -10v-318q43 -34 91 -34z" />
    <glyph glyph-name="c" unicode="c" horiz-adv-x="442" 
d="M417 447q-6 -35 -11 -129h-17l-41 9q3 46 -9 83q-41 27 -91 27q-54 0 -88 -44.5t-34 -128.5q0 -204 155 -204q54 0 116 38l16 -34q-67 -50 -88 -62q-38 -14 -78 -14q-95 0 -153.5 64.5t-58.5 171.5q0 118 65.5 187t162.5 69q71 0 154 -33z" />
    <glyph glyph-name="d" unicode="d" horiz-adv-x="527" 
d="M354 97v287q-42 53 -103 53q-55 0 -89 -48.5t-34 -140.5q0 -84 28.5 -140t89.5 -56q63 0 108 45zM362 59h-6q-42 -38 -69 -58q-34 -13 -72 -13q-87 0 -133.5 63.5t-46.5 172.5q0 116 68.5 186t153.5 70q55 0 97 -17v70q0 42 -8 77q-23 14 -69 19l-5 29q97 15 151 37
l19 -11q-8 -48 -8 -78v-459q0 -46 17 -90q31 -17 67 -26v-34q-24 2 -73 2t-72 -2q-4 39 -11 62z" />
    <glyph glyph-name="e" unicode="e" horiz-adv-x="459" 
d="M405 101l17 -32q-50 -40 -96 -68q-35 -13 -83 -13q-90 0 -149 64.5t-59 174.5q0 112 61.5 182.5t160.5 70.5q84 0 125.5 -53t41.5 -140l-29 -22l-269 -9q0 -91 38 -143.5t117 -52.5q36 0 60.5 9t63.5 32zM127 294l206 16q-2 127 -88 127q-50 0 -82 -37t-36 -106z" />
    <glyph glyph-name="f" unicode="f" horiz-adv-x="333" 
d="M91 130v285h-63v40l69 15q2 67 16 104q21 52 68 81t105 29q46 0 101 -30l-42 -79h-19q-36 58 -85 58q-12 0 -21 -3t-19.5 -12.5t-17.5 -30.5t-10 -53q-2 -30 -2 -63q71 2 146 8q-8 -29 -12 -64h-134v-304q1 -25 10 -52q36 -18 98 -28v-34q-62 3 -127 3q-56 0 -115 -3v33
q31 8 42 18q10 45 12 82z" />
    <glyph glyph-name="g" unicode="g" horiz-adv-x="465" 
d="M211 443q-40 0 -60 -29t-20 -79q0 -63 23 -105.5t72 -42.5q82 0 82 116q0 140 -97 140zM168 158q-26 -30 -26 -47q0 -26 69 -33l114 -11q57 -6 87 -36.5t30 -74.5q0 -78 -60.5 -120.5t-155.5 -42.5q-94 0 -150 33.5t-66 99.5l72 45l18 -9q20 -123 134 -123q59 0 94.5 22
t35.5 64q0 60 -88 67l-113 8q-46 3 -74.5 24t-28.5 57q0 16 4 30q54 49 62 58q-86 42 -86 149q0 75 47.5 118.5t128.5 43.5q56 0 103 -18q63 14 117 38l10 -9l4 -66q-45 2 -83 -4l-4 -7q34 -39 34 -99q0 -72 -47.5 -118t-129.5 -46q-17 0 -52 7z" />
    <glyph glyph-name="h" unicode="h" horiz-adv-x="549" 
d="M171 608v-141q0 -5 -0.5 -12t-1 -13.5t-1 -12.5t-0.5 -10l-1 -4l4 -3q39 37 69 56q33 12 70 12q75 0 113.5 -38t38.5 -110v-226q1 -25 10 -52q37 -17 69 -23v-34q-47 3 -98 3q-58 0 -115 -3v33q31 8 42 18q10 45 12 82v187q0 103 -94 103q-29 0 -58 -11t-44 -23l-15 -11
v-269q1 -25 10 -52q40 -18 69 -23v-34q-51 3 -103 3q-55 0 -110 -3v33q31 8 42 18q10 45 12 82v405q0 40 -8 75q-25 15 -69 19l-5 29q96 15 150 37l20 -11q-7 -41 -8 -76z" />
    <glyph glyph-name="i" unicode="i" horiz-adv-x="263" 
d="M171 106v269q0 54 13 95l-20 10q-56 -23 -142 -37l5 -28q37 -7 56 -20q8 -34 8 -75v-190q-2 -37 -12 -82q-7 -6 -48 -18v-33q54 3 105 3q52 0 114 -3v34q-37 8 -69 23q-9 27 -10 52zM67 625q0 24 17.5 41.5t40.5 17.5q24 0 41.5 -17.5t17.5 -41.5q0 -23 -17.5 -40.5
t-41.5 -17.5q-23 0 -40.5 17.5t-17.5 40.5z" />
    <glyph glyph-name="j" unicode="j" horiz-adv-x="235" 
d="M84 320v-265q0 -128 -72 -237l25 -22q10 11 59.5 64t62.5 66q5 56 5 152v297q0 54 13 95l-20 10q-56 -22 -141 -37l5 -28q36 -7 55 -20q6 -27 8 -75zM61 625q0 24 17 41.5t41 17.5q23 0 40.5 -17.5t17.5 -41.5q0 -23 -17.5 -40.5t-40.5 -17.5q-24 0 -41 17.5t-17 40.5z
" />
    <glyph glyph-name="k" unicode="k" horiz-adv-x="503" 
d="M259 280l187 -218l40 -31v-31h-109q-19 28 -40 55l-162 197h-4v-150q1 -26 10 -53q32 -13 57 -18v-34q-51 3 -101 3q-49 0 -100 -3v33q31 8 42 18q10 45 12 82v405q0 40 -8 75q-25 15 -69 19l-5 29q96 15 150 37l24 -11q-12 -52 -12 -94v-331h4l154 161l-1 8q-9 2 -46 5
v36h179l5 -37q-20 -3 -62 -22z" />
    <glyph glyph-name="l" unicode="l" horiz-adv-x="263" 
d="M171 606v-500q1 -25 10 -52q35 -17 69 -23v-34q-54 3 -106 3q-53 0 -107 -3v33q28 6 42 18q10 45 12 82v405q0 40 -8 75q-25 15 -69 19l-5 29q96 15 150 37l20 -11q-8 -48 -8 -78z" />
    <glyph glyph-name="m" unicode="m" horiz-adv-x="804" 
d="M90 130v195q0 36 -8 71q-21 12 -60 18l-4 29q78 14 123 37l19 -9q-1 -27 4 -53l5 -2l65 49q37 15 72 15q84 0 118 -69l80 54q30 15 73 15q64 0 99 -40t35 -112v-222q3 -27 11 -52q37 -17 69 -23v-34q-55 3 -108 3t-110 -3v33q34 6 47 18q9 39 11 82v181q0 109 -89 109
q-24 0 -50.5 -10.5t-41.5 -21.5l-14 -10q5 -20 5 -53v-199q4 -49 11 -72q22 -14 65 -23v-33q-34 2 -100 2q-36 0 -108 -2v32q32 9 42 18q8 42 10 82v181q0 109 -90 109q-25 0 -50 -11t-37 -23l-13 -11v-269q1 -25 10 -52q35 -17 69 -23v-34q-54 3 -106 3q-53 0 -107 -3v33
q31 8 42 18q9 39 11 82z" />
    <glyph glyph-name="n" unicode="n" horiz-adv-x="554" 
d="M91 130v190q-2 48 -8 75q-21 14 -61 19l-4 29q68 11 124 37l19 -10q-2 -27 4 -53l5 -1q46 36 73 52q29 12 72 12q74 0 110.5 -39t36.5 -110v-225q1 -25 10 -52q40 -18 69 -23v-34q-54 3 -105 3q-52 0 -108 -3v33q35 12 42 18q10 45 12 82v186q0 54 -22.5 79t-72.5 25
q-59 0 -116 -46v-268q1 -25 10 -52q37 -17 69 -23v-34q-56 3 -107 3q-52 0 -106 -3v33q31 8 42 18q10 45 12 82z" />
    <glyph glyph-name="o" unicode="o" horiz-adv-x="514" 
d="M241 -12q-97 0 -151.5 67.5t-54.5 180.5q0 110 63 177t166 67q96 0 153 -58.5t57 -165.5q0 -120 -64 -194t-169 -74zM240 436q-109 0 -109 -167q0 -42 6 -79.5t20 -74.5t42.5 -59t69.5 -22q58 0 84.5 48t26.5 125q0 102 -35.5 165.5t-104.5 63.5z" />
    <glyph glyph-name="p" unicode="p" horiz-adv-x="519" 
d="M169 -136q36 -18 92 -27v-35q-80 2 -119 2q-77 0 -117 -2v33q30 6 42 18q10 45 12 82v399q-2 39 -8 62q-25 15 -60 18l-5 29q66 11 125 37l18 -11q-3 -31 1 -51l6 -2q31 25 71 51q31 13 72 13q77 0 127.5 -53t50.5 -170q0 -114 -66 -191.5t-169 -77.5q-42 0 -83 14v-86
q4 -34 10 -52zM250 32q66 0 98 55.5t32 149.5q0 88 -30.5 136.5t-82.5 48.5q-26 0 -53 -11t-41 -22l-14 -11v-312q43 -34 91 -34z" />
    <glyph glyph-name="q" unicode="q" horiz-adv-x="504" 
d="M257 480q56 0 93.5 -8.5t96.5 -30.5q-6 -33 -9 -86v-420q2 -43 11 -82q13 -12 42 -18v-33q-78 2 -116 2q-74 0 -114 -2v35q48 8 87 27q7 27 10 58v80q0 35 6 54l-8 3q-42 -38 -69 -58q-34 -13 -72 -13q-87 0 -133.5 63.5t-46.5 172.5q0 116 68.5 186t153.5 70zM354 97
v303q-49 37 -103 37q-55 0 -89 -48.5t-34 -140.5q0 -84 28.5 -140t89.5 -56q63 0 108 45z" />
    <glyph glyph-name="r" unicode="r" horiz-adv-x="368" 
d="M91 130v189q0 42 -8 76q-21 14 -61 19l-4 29q56 10 124 37l19 -11q-4 -18 0 -56l5 -2q27 28 65 61q19 8 52 8q26 0 49 -15t33 -33l-58 -76h-17q-17 46 -55 46q-26 0 -64 -31v-262q1 -25 10 -52q38 -19 89 -26v-34q-58 3 -114 3q-59 0 -119 -3v33q31 8 42 18q10 45 12 82z
" />
    <glyph glyph-name="s" unicode="s" horiz-adv-x="402" 
d="M349 450q-7 -39 -9 -115h-17l-39 8q3 43 -8 75q-24 22 -76 22q-37 0 -56.5 -18t-19.5 -46t20.5 -44t62.5 -34q78 -32 103 -51q50 -39 50 -104q0 -75 -48 -115t-131 -40q-85 0 -142 28q11 47 13 135l53 -8q2 -50 6 -84q35 -26 88 -26q41 0 63 20t22 57q0 9 -2 17.5t-4 15
t-8.5 13t-9.5 10.5t-13 10t-13.5 8.5t-16 8t-16 7t-17.5 7t-17 6.5q-27 11 -43.5 19.5t-35.5 23.5t-28 36.5t-9 49.5q0 69 51.5 103.5t117.5 34.5q28 0 66.5 -8.5t62.5 -21.5z" />
    <glyph glyph-name="t" unicode="t" horiz-adv-x="328" 
d="M311 79l17 -29q-46 -33 -86 -54q-23 -8 -54 -8q-53 0 -82 27t-29 79v323h-57v42q64 32 98 84l47 7q-6 -31 -8 -81q76 2 122 8q-4 -24 -7 -62h-115v-296q0 -71 73 -71q31 0 81 31z" />
    <glyph glyph-name="u" unicode="u" horiz-adv-x="538" 
d="M357 94v237q-1 37 -7 67q-21 13 -49 18l-6 27q79 15 133 37l19 -11q-8 -29 -10 -55v-274q0 -44 15 -83q31 -18 69 -26v-34q-37 3 -75 3q-34 0 -68 -3q-3 34 -11 56l-7 2q-48 -36 -73 -55q-29 -12 -66 -12q-71 0 -108 39t-37 114v190q-1 34 -9 67q-20 13 -48 18l-6 27
q81 16 133 37l20 -11q-8 -29 -10 -55v-256q0 -55 21 -82t72 -27q23 0 50 11.5t43 22.5z" />
    <glyph glyph-name="v" unicode="v" horiz-adv-x="479" 
d="M362 414l-3 10q-12 6 -61 6v39h173v-34q-27 -9 -43 -23l-164 -424h-58l-160 431q-12 8 -39 11v39h194v-39q-37 0 -56 -8l-4 -11l107 -311h7z" />
    <glyph glyph-name="w" unicode="w" horiz-adv-x="711" 
d="M595 414l-3 10q-14 6 -61 6v39h173v-34q-30 -10 -43 -23l-135 -424h-64l-106 303l-106 -303h-64l-140 431q-12 8 -39 11v39h194v-39q-37 0 -56 -8l-4 -11l93 -309h8l86 264l-20 53q-14 8 -39 11v39h189v-39q-33 0 -52 -8l-3 -11l103 -309h8z" />
    <glyph glyph-name="x" unicode="x" horiz-adv-x="483" 
d="M247 294l92 120l-2 10q-13 6 -55 6v39h174v-34q-28 -9 -44 -23l-131 -162l146 -195q15 -13 43 -21v-37q-32 2 -96 2t-98 -2v36q29 4 45 14l1 9l-94 124l-92 -124l2 -12l55 -11v-36q-45 3 -89 3q-42 0 -84 -3v35q24 8 43 25l132 171l-130 188q-20 12 -42 14v39h194v-39
q-22 0 -43 -8l-2 -10z" />
    <glyph glyph-name="y" unicode="y" horiz-adv-x="479" 
d="M362 414l-3 10q-12 6 -61 6v39h173v-34q-27 -9 -43 -23l-163 -421q-35 -91 -78 -139t-114 -48q-13 0 -20 1l-15 79l10 8q24 -9 46 -9q82 0 112 105l-160 431q-12 8 -39 11v39h194v-39q-37 0 -56 -8l-4 -11l107 -312h7z" />
    <glyph glyph-name="z" unicode="z" horiz-adv-x="450" 
d="M98 322l-38 -7h-18q5 47 7 138l14 16h337v-46l-259 -372h189q26 64 39 122l48 -8q-16 -105 -18 -165h-360v44l258 373h-176q-16 -42 -23 -95z" />
    <glyph glyph-name="braceleft" unicode="{" horiz-adv-x="274" 
d="M10 324q43 1 67 20t24 74q0 29 -6.5 97t-6.5 102q0 47 26 76t72 29q31 0 59 -12l-13 -39q-17 5 -30 5q-48 0 -48 -55q0 -29 6 -99.5t6 -105.5q0 -55 -19 -80t-52 -38q33 -13 52 -37.5t19 -79.5q0 -35 -6 -113.5t-6 -107.5q0 -55 48 -55q13 0 30 5l13 -39q-30 -13 -59 -13
q-46 0 -72 29.5t-26 75.5q0 35 6.5 110.5t6.5 105.5q0 54 -24 73t-67 20v52z" />
    <glyph glyph-name="bar" unicode="|" horiz-adv-x="269" 
d="M99 -113v866h60v-866h-60z" />
    <glyph glyph-name="braceright" unicode="}" horiz-adv-x="274" 
d="M264 324v-52q-43 -1 -67 -20t-24 -73q0 -30 6.5 -105.5t6.5 -110.5q0 -46 -26 -75.5t-72 -29.5q-29 0 -59 13l13 39q17 -5 30 -5q48 0 48 55q0 29 -6 107.5t-6 113.5q0 55 19 79.5t52 37.5q-33 13 -52 38t-19 80q0 35 6 105.5t6 99.5q0 55 -48 55q-13 0 -30 -5l-13 39
q28 12 59 12q46 0 72 -29t26 -76q0 -34 -6.5 -102t-6.5 -97q0 -55 24 -74t67 -20z" />
    <glyph glyph-name="asciitilde" unicode="~" horiz-adv-x="465" 
d="M53 290l-36 16q5 32 40 65t89 33q38 0 110.5 -21t103.5 -21q23 0 33 9t16 29l37 -13q0 -36 -25.5 -67.5t-76.5 -31.5q-45 0 -120.5 20t-104.5 20q-48 0 -66 -38z" />
    <glyph glyph-name="uni00A0" unicode="&#xa0;" horiz-adv-x="195" 
 />
    <glyph glyph-name="exclamdown" unicode="&#xa1;" horiz-adv-x="265" 
d="M155 309l28 -449q1 -22 -13.5 -33.5t-36.5 -11.5q-21 0 -36.5 11.5t-14.5 33.5l27 449h46zM190 426q0 -23 -15 -39t-41 -16q-28 0 -43.5 15t-15.5 40q0 23 15 39t42 16q29 0 43.5 -15.5t14.5 -39.5z" />
    <glyph glyph-name="cent" unicode="&#xa2;" horiz-adv-x="475" 
d="M296 511l23 107l44 -8l-23 -103q42 -7 95 -28q-7 -37 -11 -126h-17l-39 8q3 48 -9 81q-17 11 -30 16l-75 -345q21 -7 47 -7q54 0 116 38l16 -34q-67 -50 -88 -62q-35 -14 -74 -14q-12 0 -34 2l-27 -123l-43 7l27 124q-64 21 -99 76.5t-35 139.5q0 118 63 185t160 67
q9 0 13 -1zM268 469q-54 0 -85.5 -41.5t-31.5 -124.5q0 -124 62 -171l73 335q-12 2 -18 2z" />
    <glyph glyph-name="sterling" unicode="&#xa3;" horiz-adv-x="548" 
d="M152 438q12 77 65.5 129.5t152.5 53.5q86 0 144 -25q-5 -83 -2 -146h-18l-41 6q-4 55 -20 92q-28 18 -69 18q-97 0 -112 -134q-3 -29 -5 -82h147l-13 -56h-137q-8 -96 -25 -139.5t-76 -92.5l5 -8q147 20 263 16q18 36 41 113l51 -7q-11 -79 -15 -176q-209 10 -427 -3
l-12 67q25 10 43 29t26.5 37.5t13.5 51.5t6 52.5t2 59.5h-86l12 56h79q4 66 7 88z" />
    <glyph glyph-name="yen" unicode="&#xa5;" horiz-adv-x="575" 
d="M495 171h-161v-36q3 -39 14 -73q31 -20 73 -29v-35q-80 2 -123 2q-47 0 -135 -2v37q46 10 67 23q11 39 15 109v4h-159v43h159v73h-159v43h130l-128 215q-31 18 -73 31v36q88 -2 121 -2q42 0 124 2v-35q-39 -7 -73 -23l-2 -9l114 -200h6l122 201l-4 8q-30 14 -67 23v35
q80 -2 108 -2q31 0 97 2v-36q-38 -11 -65 -26l-137 -220h136v-43h-161v-73h161v-43z" />
    <glyph glyph-name="brokenbar" unicode="&#xa6;" horiz-adv-x="269" 
d="M99 -113v415h60v-415h-60zM159 753v-355h-60v355h60z" />
    <glyph glyph-name="section" unicode="&#xa7;" horiz-adv-x="498" 
d="M138 -49q40 -37 94 -37q97 0 97 79q0 37 -24.5 60t-97.5 51q-75 30 -110.5 63.5t-35.5 89.5q0 80 100 147q-42 23 -62.5 50t-20.5 71q0 63 50.5 101t131.5 38q87 0 152 -37q-8 -44 -10 -120h-17l-39 8q3 41 -7 73q-35 28 -86 28q-43 0 -63.5 -21t-20.5 -51
q0 -31 23.5 -50t84.5 -44q49 -20 72.5 -31.5t49 -30t35 -41t9.5 -54.5q0 -81 -113 -151q51 -28 73.5 -54t22.5 -70q0 -67 -53 -109.5t-143 -42.5q-92 0 -164 35q8 43 10 127h17l39 -8q-3 -40 6 -69zM349 270q0 39 -32 62t-100 49q-65 -40 -65 -101q0 -36 30.5 -62.5
t95.5 -51.5q71 45 71 104z" />
    <glyph glyph-name="dieresis" unicode="&#xa8;" horiz-adv-x="500" 
d="M294 615q0 22 15.5 37.5t36.5 15.5q22 0 37.5 -15.5t15.5 -37.5q0 -21 -15.5 -36.5t-37.5 -15.5q-21 0 -36.5 15.5t-15.5 36.5zM95 615q0 22 15.5 37.5t36.5 15.5q22 0 37.5 -15.5t15.5 -37.5q0 -21 -15.5 -36.5t-37.5 -15.5q-21 0 -36.5 15.5t-15.5 36.5z" />
    <glyph glyph-name="copyright" unicode="&#xa9;" horiz-adv-x="759" 
d="M710 331q0 -148 -92 -239.5t-239 -91.5q-159 0 -244.5 88.5t-85.5 228.5q0 151 95 241t237 90q152 0 240.5 -86t88.5 -231zM661 325q0 134 -77.5 210t-202.5 76q-123 0 -202 -80t-79 -213q0 -129 75 -205t206 -76q129 0 204.5 78.5t75.5 209.5zM506 511q-51 13 -112 13
q-87 0 -144 -54.5t-57 -139.5q0 -87 53.5 -141t153.5 -54q56 0 105 20q3 76 9 104l-34 4q-14 -59 -28 -77q-24 -14 -60 -14q-64 0 -93.5 47t-29.5 121t31.5 111t84.5 37q33 0 68 -12q9 -24 12 -59l26 -4h11q-3 47 4 98z" />
    <glyph glyph-name="ordfeminine" unicode="&#xaa;" horiz-adv-x="415" 
d="M263 299q-2 22 -9 44q-11 -9 -49 -38q-22 -14 -60 -14t-66.5 22.5t-28.5 73.5q0 41 27 70q38 20 171 53v36q0 38 -16.5 56t-53.5 18q-19 0 -35 -4q-8 -19 -6 -64l-36 -11h-23q0 6 -6 60l-3 21q27 16 76 29t76 13q54 0 77.5 -25.5t23.5 -76.5v-155q0 -30 11 -61
q20 -12 52 -19v-28q-18 1 -62 1q-42 0 -60 -1zM248 376v101q-80 -20 -100 -36q-16 -14 -16 -46q0 -52 41 -52q42 0 75 33z" />
    <glyph glyph-name="guillemotleft" unicode="&#xab;" horiz-adv-x="454" 
d="M49 259l161 161l29 -24l-93 -153l85 -162l-32 -21l-150 174v25zM225 259l161 161l29 -24l-93 -153l85 -162l-32 -21l-150 174v25z" />
    <glyph glyph-name="logicalnot" unicode="&#xac;" 
d="M430 162v114h-392v58h454v-172h-62z" />
    <glyph glyph-name="uni00AD" unicode="&#xad;" horiz-adv-x="368" 
d="M39 250v81h290v-81h-290z" />
    <glyph glyph-name="registered" unicode="&#xae;" horiz-adv-x="759" 
d="M710 331q0 -148 -92 -239.5t-239 -91.5q-159 0 -244.5 88.5t-85.5 228.5q0 151 95 241t237 90q152 0 240.5 -86t88.5 -231zM661 325q0 134 -77.5 210t-202.5 76q-123 0 -202 -80t-79 -213q0 -129 75 -205t206 -76q129 0 204.5 78.5t75.5 209.5zM331 229v85h37l81 -119
q3 -4 8.5 -12.5t10 -15t8.5 -11.5h80v18l-34 23l-88 124q38 9 62.5 33.5t24.5 61.5q0 92 -123 92h-94q-57 0 -81 1v-22q21 -5 43 -15q5 -23 5 -40v-186q-1 -36 -8 -60q-16 -8 -36 -12v-20q54 2 81 2t77 -2v20q-24 4 -46 15q-6 14 -8 40zM380 346h-49v88q0 24 4 44h39
q78 0 78 -66t-72 -66z" />
    <glyph glyph-name="macron" unicode="&#xaf;" horiz-adv-x="500" 
d="M93 597v46h293l17 -15v-45h-292z" />
    <glyph glyph-name="degree" unicode="&#xb0;" horiz-adv-x="260" 
d="M65 542q0 -34 17 -56.5t50 -22.5q31 0 48 23t17 56q0 35 -17 57t-50 22q-31 0 -48 -23t-17 -56zM10 542q0 50 33.5 86t89.5 36t87.5 -34t31.5 -86t-32 -88.5t-89 -36.5q-61 0 -91 34.5t-30 88.5z" />
    <glyph glyph-name="plusminus" unicode="&#xb1;" horiz-adv-x="550" 
d="M501 276h-198v-174h-65v174h-191v58h191v175h65v-175h198v-58zM501 0h-454v58h454v-58z" />
    <glyph glyph-name="twosuperior" unicode="&#xb2;" horiz-adv-x="375" 
d="M35 342v50q111 74 151.5 121t40.5 99q0 36 -16 56t-61 20q-19 0 -50 -9q-10 -25 -8 -63l-28 -8h-18q-1 36 -10 93q72 36 149 36q57 0 91 -29t34 -83q0 -38 -11 -66t-56 -69.5t-130 -91.5l2 -5q42 8 76 8h69q31 46 38 72l42 -6q-17 -54 -23 -125h-282z" />
    <glyph glyph-name="threesuperior" unicode="&#xb3;" horiz-adv-x="375" 
d="M239 444q0 75 -76 75q-21 0 -44 -6l-17 12l18 34q44 1 77 23.5t33 58.5q0 56 -65 56q-22 0 -48 -8q-6 -23 -3 -54l-31 -9h-17q-1 33 -9 80q64 31 129 31q121 0 121 -92q0 -68 -94 -95v-2q111 -10 111 -101q0 -54 -46.5 -86t-116.5 -32q-56 0 -111 16q8 39 10 99l46 -6
q-2 -38 7 -64q20 -8 44 -8q35 0 58.5 18t23.5 60z" />
    <glyph glyph-name="acute" unicode="&#xb4;" horiz-adv-x="500" 
d="M203 534l-33 25l109 164q34 -15 90 -24v-21z" />
    <glyph glyph-name="mu" unicode="&#xb5;" horiz-adv-x="528" 
d="M357 94v237q-4 112 -9 138l80 11l19 -11q-6 -23 -10 -79v-270q0 -38 10.5 -51.5t43.5 -13.5q13 0 30 3l7 -27q-90 -41 -107 -41t-30 10q-8 12 -24 53l-7 2l-73 -55q-29 -12 -66 -12q-60 0 -95 45q18 -192 103 -224v-32l-116 -28q-16 38 -26.5 178.5t-10.5 215.5v188
q0 92 -11 138l81 11l20 -11q-10 -38 -10 -85v-226q0 -55 21 -82t72 -27q23 0 50 11.5t43 22.5z" />
    <glyph glyph-name="paragraph" unicode="&#xb6;" horiz-adv-x="566" 
d="M527 -4q-31 2 -174 2q-152 0 -236.5 87.5t-84.5 251.5q0 147 84.5 231t222.5 84q14 0 91.5 -2.5t93.5 0.5v-36q-39 -10 -69 -28q-6 -31 -8 -71v-384q2 -42 8 -71q26 -16 72 -28v-36zM323 48h70v549h-70v-549z" />
    <glyph glyph-name="periodcentered" unicode="&#xb7;" horiz-adv-x="224" 
d="M49 312q0 27 18 45t47 18q32 0 50 -17t18 -45q0 -27 -17 -45.5t-48 -18.5q-33 0 -50.5 17.5t-17.5 45.5z" />
    <glyph glyph-name="cedilla" unicode="&#xb8;" horiz-adv-x="257" 
d="M141 7l-11 -55q8 -1 22 -6q64 -21 64 -72q0 -41 -28.5 -68t-72.5 -34q-29 0 -68 3l4 29q30 3 62 11q42 12 42 47q0 32 -39 43q-19 6 -31 7l-9 15l17 80h48z" />
    <glyph glyph-name="onesuperior" unicode="&#xb9;" horiz-adv-x="375" 
d="M151 466v127q0 40 -8 56l-74 -3v35q94 23 141 54l23 -10q-9 -36 -9 -68v-210q4 -32 10 -55q23 -12 72 -20v-32q-56 2 -117 2q-57 0 -119 -4v32q58 11 72 21q6 24 9 75z" />
    <glyph glyph-name="ordmasculine" unicode="&#xba;" horiz-adv-x="433" 
d="M206 291q-75 0 -118 51.5t-43 136.5q0 83 50 134t129 51q75 0 119.5 -44.5t44.5 -125.5q0 -91 -50 -147t-132 -56zM206 627q-75 0 -75 -123q0 -43 7 -79t29.5 -65.5t59.5 -29.5q77 0 77 128q0 75 -25 122t-73 47z" />
    <glyph glyph-name="guillemotright" unicode="&#xbb;" horiz-adv-x="454" 
d="M68 420l161 -161v-25l-150 -174l-32 21l85 162l-93 153zM244 420l161 -161v-25l-150 -174l-32 21l85 162l-93 153z" />
    <glyph glyph-name="onequarter" unicode="&#xbc;" horiz-adv-x="889" 
d="M261 -17l313 648h63l-312 -648h-64zM154 483v-127q-3 -51 -9 -75q-14 -10 -72 -21v-32q62 4 119 4q61 0 117 -2v32q-49 8 -72 20q-6 23 -10 55v210q0 32 9 68l-23 10q-47 -31 -141 -54v-35l74 3q8 -16 8 -56zM751 387l-4 9l-71 -14l-181 -240l16 -47h167q-3 -31 -7 -46
q-13 -10 -72 -21v-32q4 0 46.5 2t60.5 2q44 0 100 -2v31q-28 7 -46 19q-8 22 -9 47h65v48h-65v244zM678 226v-82h-127l131 176l3 -3q-7 -32 -7 -91z" />
    <glyph glyph-name="onehalf" unicode="&#xbd;" horiz-adv-x="889" 
d="M227 -17l313 648h63l-312 -648h-64zM132 483v-127q-3 -51 -9 -75q-14 -10 -72 -21v-32q62 4 119 4q61 0 117 -2v32q-49 8 -72 20q-6 23 -10 55v210q0 32 9 68l-23 10q-47 -31 -141 -54v-35l74 3q8 -16 8 -56zM544 50v-50h282q6 71 23 125l-42 6q-7 -26 -38 -72h-69
q-34 0 -76 -8l-2 5q85 50 130 91.5t56 69.5t11 66q0 54 -34 83t-91 29q-77 0 -149 -36q9 -57 10 -93h18l28 8q-2 38 8 63q31 9 50 9q45 0 61 -20t16 -56q0 -52 -40.5 -99t-151.5 -121z" />
    <glyph glyph-name="threequarters" unicode="&#xbe;" horiz-adv-x="889" 
d="M271 -17l313 648h63l-312 -648h-64zM258 334q0 75 -76 75q-21 0 -44 -6l-17 12l18 34q44 1 77 23.5t33 58.5q0 56 -65 56q-22 0 -48 -8q-6 -23 -3 -54l-31 -9h-17q-1 33 -9 80q64 31 129 31q121 0 121 -92q0 -68 -94 -95v-2q111 -10 111 -101q0 -54 -46.5 -86t-116.5 -32
q-56 0 -111 16q8 39 10 99l46 -6q-2 -38 7 -64q20 -8 44 -8q35 0 58.5 18t23.5 60zM761 387l-4 9l-71 -14l-181 -240l16 -47h167q-3 -31 -7 -46q-13 -10 -72 -21v-32q4 0 46.5 2t60.5 2q44 0 100 -2v31q-28 7 -46 19q-8 22 -9 47h65v48h-65v244zM688 226v-82h-127l131 176
l3 -3q-7 -32 -7 -91z" />
    <glyph glyph-name="questiondown" unicode="&#xbf;" horiz-adv-x="413" 
d="M318 425q0 -23 -15 -39t-41 -16q-28 0 -43.5 15t-15.5 40q0 23 15 39t42 16q29 0 43.5 -15.5t14.5 -39.5zM47 -46q0 -67 44.5 -106.5t125.5 -39.5q30 0 82 13.5t89 30.5q-11 79 -13 116h-20l-34 -12q2 -55 -10 -84q-26 -8 -66 -8q-52 0 -74 24.5t-22 70.5q0 27 10.5 50.5
t21 35t32 31t28.5 26.5q30 31 37.5 63t7.5 90v53h-52v-49q0 -57 -13 -81t-66 -61q-34 -24 -54 -42t-37 -50.5t-17 -70.5z" />
    <glyph glyph-name="Agrave" unicode="&#xc0;" horiz-adv-x="640" 
d="M465 65l-55 169h-211l-62 -170l4 -8q30 -14 67 -23v-35q-82 2 -108 2q-31 0 -95 -2v36q36 10 64 26l226 590h67l201 -585q34 -19 74 -31v-36q-88 2 -123 2q-42 0 -124 -2v35q37 6 73 23zM308 531l-90 -246h176l-79 246h-7zM393 726l-19 -30l-193 91l-4 15q36 20 66 46z
" />
    <glyph glyph-name="Aacute" unicode="&#xc1;" horiz-adv-x="640" 
d="M465 65l-55 169h-211l-62 -170l4 -8q30 -14 67 -23v-35q-82 2 -108 2q-31 0 -95 -2v36q36 10 64 26l226 590h67l201 -585q34 -19 74 -31v-36q-88 2 -123 2q-42 0 -124 -2v35q37 6 73 23zM308 531l-90 -246h176l-79 246h-7zM285 696l-19 30l150 122q30 -26 66 -46l-4 -15z
" />
    <glyph glyph-name="Acircumflex" unicode="&#xc2;" horiz-adv-x="640" 
d="M465 65l-55 169h-211l-62 -170l4 -8q30 -14 67 -23v-35q-82 2 -108 2q-31 0 -95 -2v36q36 10 64 26l226 590h67l201 -585q34 -19 74 -31v-36q-88 2 -123 2q-42 0 -124 -2v35q37 6 73 23zM308 531l-90 -246h176l-79 246h-7zM478 724l-25 -27l-132 81l-131 -81l-25 27
l124 122h61z" />
    <glyph glyph-name="Atilde" unicode="&#xc3;" horiz-adv-x="640" 
d="M465 65l-55 169h-211l-62 -170l4 -8q30 -14 67 -23v-35q-82 2 -108 2q-31 0 -95 -2v36q36 10 64 26l226 590h67l201 -585q34 -19 74 -31v-36q-88 2 -123 2q-42 0 -124 -2v35q37 6 73 23zM308 531l-90 -246h176l-79 246h-7zM177 719l-25 12q25 42 47 68q19 23 54 23
q25 0 83 -21t83 -21q31 0 50 39l26 -8q-11 -38 -30 -70q-15 -25 -52 -25q-31 0 -93 20t-85 20q-17 0 -29 -8t-29 -29z" />
    <glyph glyph-name="Adieresis" unicode="&#xc4;" horiz-adv-x="640" 
d="M465 65l-55 169h-211l-62 -170l4 -8q30 -14 67 -23v-35q-82 2 -108 2q-31 0 -95 -2v36q36 10 64 26l226 590h67l201 -585q34 -19 74 -31v-36q-88 2 -123 2q-42 0 -124 -2v35q37 6 73 23zM308 531l-90 -246h176l-79 246h-7zM377 758q0 22 15.5 37.5t36.5 15.5
q22 0 37.5 -15.5t15.5 -37.5q0 -21 -15.5 -36.5t-37.5 -15.5q-21 0 -36.5 15.5t-15.5 36.5zM178 758q0 22 15.5 37.5t36.5 15.5q22 0 37.5 -15.5t15.5 -37.5q0 -21 -15.5 -36.5t-37.5 -15.5q-21 0 -36.5 15.5t-15.5 36.5z" />
    <glyph glyph-name="Aring" unicode="&#xc5;" horiz-adv-x="640" 
d="M225 743q0 42 28 73t76 31q49 0 75.5 -28.5t26.5 -72.5q0 -35 -17.5 -63t-49.5 -39l199 -579q34 -19 74 -31v-36q-88 2 -123 2q-42 0 -124 -2v35q37 6 73 23l2 9l-55 169h-211l-62 -170l4 -8q30 -14 67 -23v-35q-82 2 -108 2q-31 0 -95 -2v36q36 10 64 26l223 583
q-67 20 -67 100zM308 531l-90 -246h176l-79 246h-7zM274 743q0 -29 13.5 -47.5t41.5 -18.5q25 0 39 19.5t14 47.5q0 30 -14 48t-41 18q-25 0 -39 -19t-14 -48z" />
    <glyph glyph-name="AE" unicode="&#xc6;" horiz-adv-x="840" 
d="M700 595h-189q-5 -33 -7 -80v-160h121q29 1 42 9q19 30 29 70h36q-5 -89 0 -209h-36q-9 41 -23 68q-22 8 -63 9h-106v-147q4 -70 9 -102h208q11 19 26 59.5t20 63.5l53 -7q-21 -102 -23 -169h-340q-26 0 -114 -2v36q35 8 58 22q8 34 13 111v67h-187l-81 -170l4 -8
q30 -14 67 -23v-35q-41 2 -117 2q-31 0 -95 -2v36q36 10 64 26l268 524q-26 15 -85 30v36q54 -3 117 -3h411q-8 -89 -5 -148h-19l-41 6q-2 54 -15 90zM414 582h-12l-151 -297h163v297z" />
    <glyph glyph-name="Ccedilla" unicode="&#xc7;" horiz-adv-x="588" 
d="M360 -17l-6 -31q8 -1 22 -6q64 -21 64 -72q0 -41 -28.5 -68t-72.5 -34q-29 0 -68 3l4 29q30 3 62 11q42 12 42 47q0 32 -39 43q-19 6 -31 7l-9 15l12 59q-141 14 -207 104t-66 235q0 146 92 242.5t229 96.5q89 0 192 -24q-11 -80 -6 -154h-19l-42 6q-5 68 -19 99
q-56 20 -120 20q-92 0 -148.5 -72.5t-56.5 -195.5q0 -44 7 -85.5t23.5 -81.5t42 -69.5t65 -48t89.5 -18.5q55 0 95 17q23 34 46 128l54 -7q-13 -82 -13 -163q-73 -32 -190 -32z" />
    <glyph glyph-name="Egrave" unicode="&#xc8;" horiz-adv-x="537" 
d="M397 595h-189q-5 -33 -7 -80v-160h121q29 1 42 9q19 30 29 70h36q-5 -89 0 -209h-36q-9 41 -23 68q-22 8 -63 9h-106v-147q4 -70 9 -102h208q11 19 26 59.5t20 63.5l53 -7q-21 -102 -23 -169h-340q-26 0 -114 -2v36q35 8 58 22q8 34 13 111v344q-1 36 -9 73
q-32 19 -68 28v35h443q-8 -89 -5 -148h-19l-41 6q-2 54 -15 90zM360 726l-19 -30l-193 91l-4 15q36 20 66 46z" />
    <glyph glyph-name="Eacute" unicode="&#xc9;" horiz-adv-x="537" 
d="M397 595h-189q-5 -33 -7 -80v-160h121q29 1 42 9q19 30 29 70h36q-5 -89 0 -209h-36q-9 41 -23 68q-22 8 -63 9h-106v-147q4 -70 9 -102h208q11 19 26 59.5t20 63.5l53 -7q-21 -102 -23 -169h-340q-26 0 -114 -2v36q35 8 58 22q8 34 13 111v344q-1 36 -9 73
q-32 19 -68 28v35h443q-8 -89 -5 -148h-19l-41 6q-2 54 -15 90zM222 696l-19 30l150 122q30 -26 66 -46l-4 -15z" />
    <glyph glyph-name="Ecircumflex" unicode="&#xca;" horiz-adv-x="537" 
d="M397 595h-189q-5 -33 -7 -80v-160h121q29 1 42 9q19 30 29 70h36q-5 -89 0 -209h-36q-9 41 -23 68q-22 8 -63 9h-106v-147q4 -70 9 -102h208q11 19 26 59.5t20 63.5l53 -7q-21 -102 -23 -169h-340q-26 0 -114 -2v36q35 8 58 22q8 34 13 111v344q-1 36 -9 73
q-32 19 -68 28v35h443q-8 -89 -5 -148h-19l-41 6q-2 54 -15 90zM421 724l-25 -27l-132 81l-131 -81l-25 27l124 122h61z" />
    <glyph glyph-name="Edieresis" unicode="&#xcb;" horiz-adv-x="537" 
d="M397 595h-189q-5 -33 -7 -80v-160h121q29 1 42 9q19 30 29 70h36q-5 -89 0 -209h-36q-9 41 -23 68q-22 8 -63 9h-106v-147q4 -70 9 -102h208q11 19 26 59.5t20 63.5l53 -7q-21 -102 -23 -169h-340q-26 0 -114 -2v36q35 8 58 22q8 34 13 111v344q-1 36 -9 73
q-32 19 -68 28v35h443q-8 -89 -5 -148h-19l-41 6q-2 54 -15 90zM307 758q0 22 15.5 37.5t36.5 15.5q22 0 37.5 -15.5t15.5 -37.5q0 -21 -15.5 -36.5t-37.5 -15.5q-21 0 -36.5 15.5t-15.5 36.5zM108 758q0 22 15.5 37.5t36.5 15.5q22 0 37.5 -15.5t15.5 -37.5
q0 -21 -15.5 -36.5t-37.5 -15.5q-21 0 -36.5 15.5t-15.5 36.5z" />
    <glyph glyph-name="Igrave" unicode="&#xcc;" horiz-adv-x="312" 
d="M111 167v346q-1 36 -9 73q-32 19 -68 28v36q55 -3 123 -3q54 0 120 3v-36q-36 -9 -62 -26q-10 -47 -14 -110v-343q3 -39 14 -73q32 -20 73 -29v-35q-80 2 -123 2q-37 0 -125 -2v36q35 8 58 22q8 34 13 111zM253 726l-19 -30l-193 91l-4 15q36 20 66 46z" />
    <glyph glyph-name="Iacute" unicode="&#xcd;" horiz-adv-x="312" 
d="M111 513v-346q-5 -77 -13 -111q-23 -14 -58 -22v-36q88 2 125 2q43 0 123 -2v35q-41 9 -73 29q-11 34 -14 73v343q4 63 14 110q26 17 62 26v36q-66 -3 -120 -3q-68 0 -123 3v-36q36 -9 68 -28q8 -37 9 -73zM83 696l-19 30l150 122q30 -26 66 -46l-4 -15z" />
    <glyph glyph-name="Icircumflex" unicode="&#xce;" horiz-adv-x="312" 
d="M111 167v346q-1 36 -9 73q-32 19 -68 28v36q55 -3 123 -3q54 0 120 3v-36q-36 -9 -62 -26q-10 -47 -14 -110v-343q3 -39 14 -73q32 -20 73 -29v-35q-80 2 -123 2q-37 0 -125 -2v36q35 8 58 22q8 34 13 111zM314 724l-25 -27l-132 81l-131 -81l-25 27l124 122h61z" />
    <glyph glyph-name="Idieresis" unicode="&#xcf;" horiz-adv-x="312" 
d="M111 513v-346q-5 -77 -13 -111q-23 -14 -58 -22v-36q88 2 125 2q43 0 123 -2v35q-41 9 -73 29q-11 34 -14 73v343q4 63 14 110q26 17 62 26v36q-66 -3 -120 -3q-68 0 -123 3v-36q36 -9 68 -28q8 -37 9 -73zM202 758q0 22 15.5 37.5t36.5 15.5q22 0 37.5 -15.5t15.5 -37.5
q0 -21 -15.5 -36.5t-37.5 -15.5q-21 0 -36.5 15.5t-15.5 36.5zM3 758q0 22 15.5 37.5t36.5 15.5q22 0 37.5 -15.5t15.5 -37.5q0 -21 -15.5 -36.5t-37.5 -15.5q-21 0 -36.5 15.5t-15.5 36.5z" />
    <glyph glyph-name="Eth" unicode="&#xd0;" horiz-adv-x="637" 
d="M23 311v58h79v144q-1 39 -10 73q-32 19 -68 28v36q57 -3 121 -3h148q62 0 113.5 -14.5t96.5 -47t70 -93t25 -144.5q0 -77 -16.5 -137t-43.5 -99t-65.5 -65t-80 -36.5t-89.5 -10.5h-151q-33 0 -121 -2v36q34 7 57 22q9 34 14 111v144h-79zM496 318q0 150 -60.5 214.5
t-172.5 64.5h-71v-228h166v-58h-166v-178q2 -53 12 -82h81q115 0 163 66t48 201z" />
    <glyph glyph-name="Ntilde" unicode="&#xd1;" horiz-adv-x="720" 
d="M609 509l-1 -499l-69 -22l-357 580v-426q4 -55 12 -80q31 -19 75 -29v-35q-40 2 -105 2q-36 0 -124 -2v36q35 8 58 22q8 34 13 111v333q0 23 -7 84q-29 18 -67 27v38q70 -2 110 -2q26 0 92 2l303 -508v363q-2 52 -13 81q-42 23 -83 30v35q61 -3 117 -3q73 0 128 3v-36
q-47 -12 -74 -28q-8 -38 -8 -77zM225 719l-25 12q25 42 47 68q19 23 54 23q25 0 82.5 -21t83.5 -21q31 0 50 39l26 -8q-11 -38 -30 -70q-15 -25 -52 -25q-31 0 -93 20t-85 20q-17 0 -29 -8t-29 -29z" />
    <glyph glyph-name="Ograve" unicode="&#xd2;" horiz-adv-x="679" 
d="M322 -17q-132 0 -207.5 95t-75.5 247q0 149 86 244t228 95q128 0 207.5 -86t79.5 -230q0 -165 -86 -265t-232 -100zM321 611q-91 0 -135.5 -66.5t-44.5 -172.5q0 -47 5 -90.5t19.5 -89.5t37.5 -79t62 -54.5t90 -21.5q91 0 137.5 72.5t46.5 178.5q0 146 -54.5 234.5
t-163.5 88.5zM436 726l-19 -30l-193 91l-4 15q36 20 66 46z" />
    <glyph glyph-name="Oacute" unicode="&#xd3;" horiz-adv-x="679" 
d="M322 -17q-132 0 -207.5 95t-75.5 247q0 149 86 244t228 95q128 0 207.5 -86t79.5 -230q0 -165 -86 -265t-232 -100zM321 611q-91 0 -135.5 -66.5t-44.5 -172.5q0 -47 5 -90.5t19.5 -89.5t37.5 -79t62 -54.5t90 -21.5q91 0 137.5 72.5t46.5 178.5q0 146 -54.5 234.5
t-163.5 88.5zM286 696l-19 30l150 122q30 -26 66 -46l-4 -15z" />
    <glyph glyph-name="Ocircumflex" unicode="&#xd4;" horiz-adv-x="679" 
d="M322 -17q-132 0 -207.5 95t-75.5 247q0 149 86 244t228 95q128 0 207.5 -86t79.5 -230q0 -165 -86 -265t-232 -100zM321 611q-91 0 -135.5 -66.5t-44.5 -172.5q0 -47 5 -90.5t19.5 -89.5t37.5 -79t62 -54.5t90 -21.5q91 0 137.5 72.5t46.5 178.5q0 146 -54.5 234.5
t-163.5 88.5zM497 724l-25 -27l-132 81l-131 -81l-25 27l124 122h61z" />
    <glyph glyph-name="Otilde" unicode="&#xd5;" horiz-adv-x="679" 
d="M322 -17q-132 0 -207.5 95t-75.5 247q0 149 86 244t228 95q128 0 207.5 -86t79.5 -230q0 -165 -86 -265t-232 -100zM321 611q-91 0 -135.5 -66.5t-44.5 -172.5q0 -47 5 -90.5t19.5 -89.5t37.5 -79t62 -54.5t90 -21.5q91 0 137.5 72.5t46.5 178.5q0 146 -54.5 234.5
t-163.5 88.5zM196 719l-25 12q25 42 47 68q19 23 54 23q26 0 83 -21t83 -21q31 0 50 39l26 -8q-11 -38 -30 -70q-15 -25 -52 -25q-31 0 -93 20t-85 20q-17 0 -29 -8t-29 -29z" />
    <glyph glyph-name="Odieresis" unicode="&#xd6;" horiz-adv-x="679" 
d="M322 -17q-132 0 -207.5 95t-75.5 247q0 149 86 244t228 95q128 0 207.5 -86t79.5 -230q0 -165 -86 -265t-232 -100zM321 611q-91 0 -135.5 -66.5t-44.5 -172.5q0 -47 5 -90.5t19.5 -89.5t37.5 -79t62 -54.5t90 -21.5q91 0 137.5 72.5t46.5 178.5q0 146 -54.5 234.5
t-163.5 88.5zM383 758q0 22 15.5 37.5t36.5 15.5q22 0 37.5 -15.5t15.5 -37.5q0 -21 -15.5 -36.5t-37.5 -15.5q-21 0 -36.5 15.5t-15.5 36.5zM184 758q0 22 15.5 37.5t36.5 15.5q22 0 37.5 -15.5t15.5 -37.5q0 -21 -15.5 -36.5t-37.5 -15.5q-21 0 -36.5 15.5t-15.5 36.5z
" />
    <glyph glyph-name="multiply" unicode="&#xd7;" 
d="M400 82l-135 138l-140 -141l-42 42l142 141l-137 136l45 41l134 -135l135 137l43 -43l-138 -136l136 -137q-8 -7 -21.5 -21t-21.5 -22z" />
    <glyph glyph-name="Oslash" unicode="&#xd8;" horiz-adv-x="679" 
d="M322 -17q-58 0 -107 20l-55 -113l-51 20l58 118q-62 43 -95 120.5t-33 176.5q0 149 86 244t228 95q65 0 115 -22l43 87l52 -20l-46 -93q58 -40 90.5 -109.5t32.5 -158.5q0 -165 -86 -265t-232 -100zM321 611q-91 0 -135.5 -66.5t-44.5 -172.5q0 -175 66 -263l228 466
q-49 36 -114 36zM539 288q0 160 -63 245l-228 -464q45 -32 107 -32q91 0 137.5 72.5t46.5 178.5z" />
    <glyph glyph-name="Ugrave" unicode="&#xd9;" horiz-adv-x="700" 
d="M531 279v234q-3 39 -10 73q-32 19 -68 28v36q57 -3 100 -3q54 0 120 3v-36q-36 -9 -66 -26q-10 -46 -10 -84v-180q0 -77 -9 -139q-16 -103 -73 -150t-164 -47q-98 0 -155 39t-79 127q-12 45 -12 137v223q-1 29 -13 70q-31 20 -74 29v36q61 -3 114 -3q70 0 136 3v-36
q-37 -10 -58 -23q-8 -34 -12 -95v-184q0 -78 8 -128q12 -75 48.5 -105t111.5 -30q70 0 108 29t48 92q9 51 9 110zM445 726l-19 -30l-193 91l-4 15q36 20 66 46z" />
    <glyph glyph-name="Uacute" unicode="&#xda;" horiz-adv-x="700" 
d="M531 513v-234q0 -59 -9 -110q-10 -63 -48 -92t-108 -29q-75 0 -111.5 30t-48.5 105q-8 50 -8 128v184q4 61 12 95q21 13 58 23v36q-66 -3 -136 -3q-52 0 -114 3v-36q43 -9 74 -29q12 -41 13 -70v-223q0 -92 12 -137q22 -88 79 -127t155 -39q107 0 164 47t73 150
q9 62 9 139v180q0 38 10 84q30 17 66 26v36q-66 -3 -120 -3q-43 0 -100 3v-36q36 -9 68 -28q7 -34 10 -73zM324 696l-19 30l150 122q30 -26 66 -46l-4 -15z" />
    <glyph glyph-name="Ucircumflex" unicode="&#xdb;" horiz-adv-x="700" 
d="M531 279v234q-3 39 -10 73q-32 19 -68 28v36q57 -3 100 -3q54 0 120 3v-36q-36 -9 -66 -26q-10 -46 -10 -84v-180q0 -77 -9 -139q-16 -103 -73 -150t-164 -47q-98 0 -155 39t-79 127q-12 45 -12 137v223q-1 29 -13 70q-31 20 -74 29v36q61 -3 114 -3q70 0 136 3v-36
q-37 -10 -58 -23q-8 -34 -12 -95v-184q0 -78 8 -128q12 -75 48.5 -105t111.5 -30q70 0 108 29t48 92q9 51 9 110zM524 724l-25 -27l-132 81l-131 -81l-25 27l124 122h61z" />
    <glyph glyph-name="Udieresis" unicode="&#xdc;" horiz-adv-x="700" 
d="M531 513v-234q0 -59 -9 -110q-10 -63 -48 -92t-108 -29q-75 0 -111.5 30t-48.5 105q-8 50 -8 128v184q4 61 12 95q21 13 58 23v36q-66 -3 -136 -3q-52 0 -114 3v-36q43 -9 74 -29q12 -41 13 -70v-223q0 -92 12 -137q22 -88 79 -127t155 -39q107 0 164 47t73 150
q9 62 9 139v180q0 38 10 84q30 17 66 26v36q-66 -3 -120 -3q-43 0 -100 3v-36q36 -9 68 -28q7 -34 10 -73zM413 758q0 22 15.5 37.5t36.5 15.5q22 0 37.5 -15.5t15.5 -37.5q0 -21 -15.5 -36.5t-37.5 -15.5q-21 0 -36.5 15.5t-15.5 36.5zM214 758q0 22 15.5 37.5t36.5 15.5
q22 0 37.5 -15.5t15.5 -37.5q0 -21 -15.5 -36.5t-37.5 -15.5q-21 0 -36.5 15.5t-15.5 36.5z" />
    <glyph glyph-name="Yacute" unicode="&#xdd;" horiz-adv-x="575" 
d="M245 167v88l-167 328q-31 18 -73 31v36q66 -3 121 -3q62 0 124 3v-36q-40 -7 -73 -22l-2 -9l124 -259h6l132 259l-4 9q-25 12 -67 22v36q60 -3 108 -3t96 3v-36q-38 -11 -64 -26l-172 -323v-130q3 -39 14 -73q31 -20 73 -29v-35q-80 2 -123 2q-47 0 -135 -2v37
q46 10 67 23q11 39 15 109zM248 696l-19 30l150 122q30 -26 66 -46l-4 -15z" />
    <glyph glyph-name="Thorn" unicode="&#xde;" horiz-adv-x="521" 
d="M111 167v346q-1 36 -9 73q-32 19 -68 28v36q55 -3 123 -3q54 0 120 3v-36q-44 -11 -67 -26q-4 -20 -6 -48h92q206 0 206 -168q0 -59 -23 -100.5t-63 -63t-82.5 -30.5t-91.5 -9q-27 0 -41 1v-24q1 -40 15 -83q42 -21 92 -30v-35q-82 2 -144 2q-36 0 -124 -2v36q35 8 58 22
q8 34 13 111zM239 218q82 1 121 34.5t39 111.5q0 126 -132 126h-66v-271q12 -1 38 -1z" />
    <glyph glyph-name="germandbls" unicode="&#xdf;" horiz-adv-x="586" 
d="M274 352q0 27 12.5 49.5t31 38t36.5 29.5t30.5 31.5t12.5 37.5q0 47 -37.5 71t-88.5 24q-47 0 -73.5 -27t-26.5 -99v-396q0 -66 13 -102l-9 -12q-42 2 -71 2q-31 0 -67 -2v33q31 8 42 18q10 45 12 82v285q0 107 20 158q21 53 67.5 82t107.5 29q74 0 133 -29.5t59 -90.5
q0 -28 -20 -53.5t-43.5 -42t-43.5 -38.5t-20 -44q0 -27 21 -48t50.5 -36t59.5 -33t51 -50t21 -76q0 -69 -45.5 -112t-122.5 -43q-85 0 -143 31q11 52 13 138l53 -8q2 -50 6 -84q34 -32 82 -32q81 0 81 82q0 35 -21 58t-51 37t-60 29t-51 43t-21 70z" />
    <glyph glyph-name="agrave" unicode="&#xe0;" horiz-adv-x="465" 
d="M300 56l-7 1q-21 -20 -61 -51q-28 -18 -74 -18q-47 0 -82.5 29.5t-35.5 95.5q0 55 33 92q60 32 218 71v49q0 54 -18 77.5t-71 23.5q-15 0 -29 -1.5t-20 -2.5l-6 -2q-13 -30 -9 -87l-42 -12h-18q-4 43 -13 105q36 21 91.5 37.5t89.5 16.5q67 0 96 -33.5t29 -100.5v-206
q0 -44 15 -83q32 -18 69 -26v-33q-48 2 -74 2q-46 0 -70 -2q-3 34 -11 58zM291 98v140q-102 -22 -136 -51q-24 -20 -24 -63q0 -72 64 -72q48 0 96 46zM289 559l-33 -25l-166 144v21q56 9 90 24z" />
    <glyph glyph-name="aacute" unicode="&#xe1;" horiz-adv-x="465" 
d="M293 57l7 -1q8 -24 11 -58q24 2 70 2q26 0 74 -2v33q-37 8 -69 26q-15 39 -15 83v206q0 67 -29 100.5t-96 33.5q-34 0 -89.5 -16.5t-91.5 -37.5q9 -62 13 -105h18l42 12q-4 57 9 87q21 6 55 6q53 0 71 -23.5t18 -77.5v-49q-158 -39 -218 -71q-33 -37 -33 -92
q0 -66 35.5 -95.5t82.5 -29.5q46 0 74 18q40 31 61 51zM291 238v-140q-48 -46 -96 -46q-64 0 -64 72q0 43 24 63q34 29 136 51zM192 534l-33 25l109 164q34 -15 90 -24v-21z" />
    <glyph glyph-name="acircumflex" unicode="&#xe2;" horiz-adv-x="465" 
d="M293 57l7 -1q8 -24 11 -58q24 2 70 2q26 0 74 -2v33q-37 8 -69 26q-15 39 -15 83v206q0 67 -29 100.5t-96 33.5q-34 0 -89.5 -16.5t-91.5 -37.5q9 -62 13 -105h18l42 12q-4 57 9 87q21 6 55 6q53 0 71 -23.5t18 -77.5v-49q-158 -39 -218 -71q-33 -37 -33 -92
q0 -66 35.5 -95.5t82.5 -29.5q46 0 74 18q40 31 61 51zM291 238v-140q-48 -46 -96 -46q-64 0 -64 72q0 43 24 63q34 29 136 51zM110 534l-29 23l112 146h61l112 -146l-29 -23l-114 89z" />
    <glyph glyph-name="atilde" unicode="&#xe3;" horiz-adv-x="465" 
d="M293 57l7 -1q8 -24 11 -58q24 2 70 2q26 0 74 -2v33q-37 8 -69 26q-15 39 -15 83v206q0 67 -29 100.5t-96 33.5q-34 0 -89.5 -16.5t-91.5 -37.5q9 -62 13 -105h18l42 12q-4 57 9 87q21 6 55 6q53 0 71 -23.5t18 -77.5v-49q-158 -39 -218 -71q-33 -37 -33 -92
q0 -66 35.5 -95.5t82.5 -29.5q46 0 74 18q40 31 61 51zM291 238v-140q-48 -46 -96 -46q-64 0 -64 72q0 43 24 63q34 29 136 51zM72 569l-25 12q25 42 47 68q19 23 54 23q25 0 82.5 -21t83.5 -21q31 0 50 39l26 -8q-11 -38 -30 -70q-15 -25 -52 -25q-31 0 -93 20t-85 20
q-17 0 -29 -8t-29 -29z" />
    <glyph glyph-name="adieresis" unicode="&#xe4;" horiz-adv-x="465" 
d="M293 57l7 -1q8 -24 11 -58q24 2 70 2q26 0 74 -2v33q-37 8 -69 26q-15 39 -15 83v206q0 67 -29 100.5t-96 33.5q-34 0 -89.5 -16.5t-91.5 -37.5q9 -62 13 -105h18l42 12q-4 57 9 87q21 6 55 6q53 0 71 -23.5t18 -77.5v-49q-158 -39 -218 -71q-33 -37 -33 -92
q0 -66 35.5 -95.5t82.5 -29.5q46 0 74 18q40 31 61 51zM291 238v-140q-48 -46 -96 -46q-64 0 -64 72q0 43 24 63q34 29 136 51zM263 615q0 22 15.5 37.5t36.5 15.5q22 0 37.5 -15.5t15.5 -37.5q0 -21 -15.5 -36.5t-37.5 -15.5q-21 0 -36.5 15.5t-15.5 36.5zM64 615
q0 22 15.5 37.5t36.5 15.5q22 0 37.5 -15.5t15.5 -37.5q0 -21 -15.5 -36.5t-37.5 -15.5q-21 0 -36.5 15.5t-15.5 36.5z" />
    <glyph glyph-name="aring" unicode="&#xe5;" horiz-adv-x="465" 
d="M293 57l7 -1q8 -24 11 -58q24 2 70 2q26 0 74 -2v33q-37 8 -69 26q-15 39 -15 83v206q0 67 -29 100.5t-96 33.5q-34 0 -89.5 -16.5t-91.5 -37.5q9 -62 13 -105h18l42 12q-4 57 9 87q21 6 55 6q53 0 71 -23.5t18 -77.5v-49q-158 -39 -218 -71q-33 -37 -33 -92
q0 -66 35.5 -95.5t82.5 -29.5q46 0 74 18q40 31 61 51zM291 238v-140q-48 -46 -96 -46q-64 0 -64 72q0 43 24 63q34 29 136 51zM177 649q0 -29 13.5 -47.5t41.5 -18.5q25 0 39 19.5t14 47.5q0 30 -14 48t-41 18q-25 0 -39 -19t-14 -48zM128 649q0 42 28 73t76 31
q49 0 75.5 -28.5t26.5 -72.5q0 -45 -27.5 -76t-76.5 -31q-51 0 -76.5 30t-25.5 74z" />
    <glyph glyph-name="ae" unicode="&#xe6;" horiz-adv-x="710" 
d="M656 101l17 -32q-50 -40 -96 -68q-35 -13 -83 -13q-114 0 -170 88q-54 -48 -88 -70q-28 -18 -78 -18q-47 0 -82.5 29.5t-35.5 95.5q0 59 33 96q12 6 27 12t39 12.5t40.5 11t54 13t56.5 13.5l1 7v47q0 54 -18 77.5t-71 23.5q-15 0 -29 -1.5t-20 -2.5l-6 -2q-13 -30 -9 -87
l-42 -12h-18q-4 43 -13 105q36 21 91.5 37.5t89.5 16.5q45 0 69.5 -15.5t36.5 -49.5q62 65 156 65q83 0 125 -51.5t42 -129.5l-29 -23l-267 -27q0 -85 37.5 -136.5t115.5 -51.5q36 0 61 8.5t63 31.5zM155 189q-24 -19 -24 -65q0 -72 64 -72q47 0 112 57q-21 50 -21 111v10
q-10 -2 -33.5 -7.5t-33 -7.5t-24.5 -6.5t-24 -9t-16 -10.5zM380 287l204 34q0 46 -21.5 81t-66.5 35q-51 0 -81.5 -38t-34.5 -112z" />
    <glyph glyph-name="ccedilla" unicode="&#xe7;" horiz-adv-x="442" 
d="M272 -11l-7 -37q8 -1 22 -6q64 -21 64 -72q0 -41 -28.5 -68t-72.5 -34q-29 0 -68 3l4 29q30 3 62 11q42 12 42 47q0 32 -39 43q-19 6 -31 7l-9 15l13 62q-86 8 -137.5 71.5t-51.5 163.5q0 118 65.5 187t162.5 69q71 0 154 -33q-6 -35 -11 -129h-17l-41 9q3 46 -9 83
q-41 27 -91 27q-54 0 -88 -44.5t-34 -128.5q0 -204 155 -204q54 0 116 38l16 -34q-67 -50 -88 -62q-28 -10 -53 -13z" />
    <glyph glyph-name="egrave" unicode="&#xe8;" horiz-adv-x="459" 
d="M405 101l17 -32q-50 -40 -96 -68q-35 -13 -83 -13q-90 0 -149 64.5t-59 174.5q0 112 61.5 182.5t160.5 70.5q84 0 125.5 -53t41.5 -140l-29 -22l-269 -9q0 -91 38 -143.5t117 -52.5q36 0 60.5 9t63.5 32zM127 294l206 16q-2 127 -88 127q-50 0 -82 -37t-36 -106zM310 559
l-33 -25l-166 144v21q56 9 90 24z" />
    <glyph glyph-name="eacute" unicode="&#xe9;" horiz-adv-x="459" 
d="M422 69l-17 32q-39 -23 -63.5 -32t-60.5 -9q-79 0 -117 52.5t-38 143.5l269 9l29 22q0 87 -41.5 140t-125.5 53q-99 0 -160.5 -70.5t-61.5 -182.5q0 -110 59 -174.5t149 -64.5q48 0 83 13q46 28 96 68zM333 310l-206 -16q4 69 36 106t82 37q86 0 88 -127zM211 534l-33 25
l109 164q34 -15 90 -24v-21z" />
    <glyph glyph-name="ecircumflex" unicode="&#xea;" horiz-adv-x="459" 
d="M422 69l-17 32q-39 -23 -63.5 -32t-60.5 -9q-79 0 -117 52.5t-38 143.5l269 9l29 22q0 87 -41.5 140t-125.5 53q-99 0 -160.5 -70.5t-61.5 -182.5q0 -110 59 -174.5t149 -64.5q48 0 83 13q46 28 96 68zM333 310l-206 -16q4 69 36 106t82 37q86 0 88 -127zM129 534l-29 23
l112 146h61l112 -146l-29 -23l-114 89z" />
    <glyph glyph-name="edieresis" unicode="&#xeb;" horiz-adv-x="459" 
d="M422 69l-17 32q-39 -23 -63.5 -32t-60.5 -9q-79 0 -117 52.5t-38 143.5l269 9l29 22q0 87 -41.5 140t-125.5 53q-99 0 -160.5 -70.5t-61.5 -182.5q0 -110 59 -174.5t149 -64.5q48 0 83 13q46 28 96 68zM333 310l-206 -16q4 69 36 106t82 37q86 0 88 -127zM289 615
q0 22 15.5 37.5t36.5 15.5q22 0 37.5 -15.5t15.5 -37.5q0 -21 -15.5 -36.5t-37.5 -15.5q-21 0 -36.5 15.5t-15.5 36.5zM90 615q0 22 15.5 37.5t36.5 15.5q22 0 37.5 -15.5t15.5 -37.5q0 -21 -15.5 -36.5t-37.5 -15.5q-21 0 -36.5 15.5t-15.5 36.5z" />
    <glyph glyph-name="igrave" unicode="&#xec;" horiz-adv-x="263" 
d="M171 375v-269q1 -25 10 -52q32 -15 69 -23v-34q-62 3 -114 3q-51 0 -105 -3v33q41 12 48 18q10 45 12 82v190q0 41 -8 75q-19 13 -56 20l-5 28q86 14 142 37l20 -10q-13 -41 -13 -95zM191 559l-33 -25l-166 144v21q56 9 90 24z" />
    <glyph glyph-name="iacute" unicode="&#xed;" horiz-adv-x="263" 
d="M171 106v269q0 54 13 95l-20 10q-56 -23 -142 -37l5 -28q37 -7 56 -20q8 -34 8 -75v-190q-2 -37 -12 -82q-7 -6 -48 -18v-33q54 3 105 3q52 0 114 -3v34q-37 8 -69 23q-9 27 -10 52zM84 534l-33 25l109 164q34 -15 90 -24v-21z" />
    <glyph glyph-name="icircumflex" unicode="&#xee;" horiz-adv-x="263" 
d="M171 106v269q0 54 13 95l-20 10q-56 -23 -142 -37l5 -28q37 -7 56 -20q8 -34 8 -75v-190q-2 -37 -12 -82q-7 -6 -48 -18v-33q54 3 105 3q52 0 114 -3v34q-37 8 -69 23q-9 27 -10 52zM8 534l-29 23l112 146h61l112 -146l-29 -23l-114 89z" />
    <glyph glyph-name="idieresis" unicode="&#xef;" horiz-adv-x="263" 
d="M171 106v269q0 54 13 95l-20 10q-56 -23 -142 -37l5 -28q37 -7 56 -20q8 -34 8 -75v-190q-2 -37 -12 -82q-7 -6 -48 -18v-33q54 3 105 3q52 0 114 -3v34q-37 8 -69 23q-9 27 -10 52zM165 615q0 22 15.5 37.5t36.5 15.5q22 0 37.5 -15.5t15.5 -37.5q0 -21 -15.5 -36.5
t-37.5 -15.5q-21 0 -36.5 15.5t-15.5 36.5zM-34 615q0 22 15.5 37.5t36.5 15.5q22 0 37.5 -15.5t15.5 -37.5q0 -21 -15.5 -36.5t-37.5 -15.5q-21 0 -36.5 15.5t-15.5 36.5z" />
    <glyph glyph-name="eth" unicode="&#xf0;" horiz-adv-x="486" 
d="M136 450l-27 41l89 48q-52 35 -125 57l8 30q100 -15 176 -55l115 63l25 -42l-92 -50q141 -102 141 -291q0 -120 -55 -194t-158 -74q-93 0 -148 63t-55 161t49 153t128 55q38 0 63.5 -12.5t58.5 -38.5l5 4q-33 83 -94 139zM226 359q-46 0 -73 -33.5t-27 -99.5
q0 -34 5.5 -66t18.5 -63t38.5 -49.5t60.5 -18.5q58 0 80.5 46t22.5 127q0 74 -13 107q-53 50 -113 50z" />
    <glyph glyph-name="ntilde" unicode="&#xf1;" horiz-adv-x="554" 
d="M91 320v-190q-2 -37 -12 -82q-11 -10 -42 -18v-33q54 3 106 3q51 0 107 -3v34q-32 6 -69 23q-9 27 -10 52v268q57 46 116 46q50 0 72.5 -25t22.5 -79v-186q-2 -37 -12 -82q-7 -6 -42 -18v-33q56 3 108 3q51 0 105 -3v34q-29 5 -69 23q-9 27 -10 52v225q0 71 -36.5 110
t-110.5 39q-43 0 -72 -12q-27 -16 -73 -52l-5 1q-6 26 -4 53l-19 10q-56 -26 -124 -37l4 -29q40 -5 61 -19q6 -27 8 -75zM129 569l-25 12q25 42 47 68q19 23 54 23q25 0 83 -21t83 -21q31 0 50 39l26 -8q-11 -38 -30 -70q-15 -25 -52 -25q-31 0 -93 20t-85 20q-17 0 -29 -8
t-29 -29z" />
    <glyph glyph-name="ograve" unicode="&#xf2;" horiz-adv-x="514" 
d="M241 -12q-97 0 -151.5 67.5t-54.5 180.5q0 110 63 177t166 67q96 0 153 -58.5t57 -165.5q0 -120 -64 -194t-169 -74zM240 436q-109 0 -109 -167q0 -42 6 -79.5t20 -74.5t42.5 -59t69.5 -22q58 0 84.5 48t26.5 125q0 102 -35.5 165.5t-104.5 63.5zM329 559l-33 -25
l-166 144v21q56 9 90 24z" />
    <glyph glyph-name="oacute" unicode="&#xf3;" horiz-adv-x="514" 
d="M241 -12q-97 0 -151.5 67.5t-54.5 180.5q0 110 63 177t166 67q96 0 153 -58.5t57 -165.5q0 -120 -64 -194t-169 -74zM240 436q-109 0 -109 -167q0 -42 6 -79.5t20 -74.5t42.5 -59t69.5 -22q58 0 84.5 48t26.5 125q0 102 -35.5 165.5t-104.5 63.5zM211 534l-33 25l109 164
q34 -15 90 -24v-21z" />
    <glyph glyph-name="ocircumflex" unicode="&#xf4;" horiz-adv-x="514" 
d="M241 -12q-97 0 -151.5 67.5t-54.5 180.5q0 110 63 177t166 67q96 0 153 -58.5t57 -165.5q0 -120 -64 -194t-169 -74zM240 436q-109 0 -109 -167q0 -42 6 -79.5t20 -74.5t42.5 -59t69.5 -22q58 0 84.5 48t26.5 125q0 102 -35.5 165.5t-104.5 63.5zM149 534l-29 23l112 146
h61l112 -146l-29 -23l-114 89z" />
    <glyph glyph-name="otilde" unicode="&#xf5;" horiz-adv-x="514" 
d="M241 -12q-97 0 -151.5 67.5t-54.5 180.5q0 110 63 177t166 67q96 0 153 -58.5t57 -165.5q0 -120 -64 -194t-169 -74zM240 436q-109 0 -109 -167q0 -42 6 -79.5t20 -74.5t42.5 -59t69.5 -22q58 0 84.5 48t26.5 125q0 102 -35.5 165.5t-104.5 63.5zM110 569l-25 12
q25 42 47 68q19 23 54 23q26 0 83 -21t83 -21q31 0 50 39l26 -8q-11 -38 -30 -70q-15 -25 -52 -25q-31 0 -93 20t-85 20q-17 0 -29 -8t-29 -29z" />
    <glyph glyph-name="odieresis" unicode="&#xf6;" horiz-adv-x="514" 
d="M241 -12q-97 0 -151.5 67.5t-54.5 180.5q0 110 63 177t166 67q96 0 153 -58.5t57 -165.5q0 -120 -64 -194t-169 -74zM240 436q-109 0 -109 -167q0 -42 6 -79.5t20 -74.5t42.5 -59t69.5 -22q58 0 84.5 48t26.5 125q0 102 -35.5 165.5t-104.5 63.5zM302 615q0 22 15.5 37.5
t36.5 15.5q22 0 37.5 -15.5t15.5 -37.5q0 -21 -15.5 -36.5t-37.5 -15.5q-21 0 -36.5 15.5t-15.5 36.5zM103 615q0 22 15.5 37.5t36.5 15.5q22 0 37.5 -15.5t15.5 -37.5q0 -21 -15.5 -36.5t-37.5 -15.5q-21 0 -36.5 15.5t-15.5 36.5z" />
    <glyph glyph-name="divide" unicode="&#xf7;" 
d="M201 159q0 25 16.5 41.5t43.5 16.5q29 0 45.5 -16t16.5 -41t-15.5 -41.5t-44.5 -16.5q-30 0 -46 16t-16 41zM201 447q0 25 16.5 41.5t43.5 16.5q29 0 45.5 -16t16.5 -41t-15.5 -41.5t-44.5 -16.5q-30 0 -46 16t-16 41zM492 276h-454v58h454v-58z" />
    <glyph glyph-name="oslash" unicode="&#xf8;" horiz-adv-x="514" 
d="M241 -12q-42 0 -80 15l-47 -96l-49 23l49 100q-79 67 -79 206q0 110 63 177t166 67q36 0 67 -9l40 81l50 -18l-41 -83q94 -56 94 -195q0 -120 -64 -194t-169 -74zM380 207q0 106 -37 168l-152 -311q30 -30 78 -30q58 0 84.5 48t26.5 125zM240 436q-109 0 -109 -167
q0 -92 25 -153l148 301q-29 19 -64 19z" />
    <glyph glyph-name="ugrave" unicode="&#xf9;" horiz-adv-x="538" 
d="M357 94v237q-1 37 -7 67q-21 13 -49 18l-6 27q79 15 133 37l19 -11q-8 -29 -10 -55v-274q0 -44 15 -83q31 -18 69 -26v-34q-37 3 -75 3q-34 0 -68 -3q-3 34 -11 56l-7 2q-48 -36 -73 -55q-29 -12 -66 -12q-71 0 -108 39t-37 114v190q-1 34 -9 67q-20 13 -48 18l-6 27
q81 16 133 37l20 -11q-8 -29 -10 -55v-256q0 -55 21 -82t72 -27q23 0 50 11.5t43 22.5zM340 559l-33 -25l-166 144v21q56 9 90 24z" />
    <glyph glyph-name="uacute" unicode="&#xfa;" horiz-adv-x="538" 
d="M357 331v-237q-57 -45 -108 -45t-72 27t-21 82v256q2 26 10 55l-20 11q-52 -21 -133 -37l6 -27q28 -5 48 -18q8 -33 9 -67v-190q0 -75 37 -114t108 -39q37 0 66 12q25 19 73 55l7 -2q8 -22 11 -56q34 3 68 3q38 0 75 -3v34q-38 8 -69 26q-15 39 -15 83v274q2 26 10 55
l-19 11q-54 -22 -133 -37l6 -27q28 -5 49 -18q6 -30 7 -67zM234 534l-33 25l109 164q34 -15 90 -24v-21z" />
    <glyph glyph-name="ucircumflex" unicode="&#xfb;" horiz-adv-x="538" 
d="M357 331v-237q-57 -45 -108 -45t-72 27t-21 82v256q2 26 10 55l-20 11q-52 -21 -133 -37l6 -27q28 -5 48 -18q8 -33 9 -67v-190q0 -75 37 -114t108 -39q37 0 66 12q25 19 73 55l7 -2q8 -22 11 -56q34 3 68 3q38 0 75 -3v34q-38 8 -69 26q-15 39 -15 83v274q2 26 10 55
l-19 11q-54 -22 -133 -37l6 -27q28 -5 49 -18q6 -30 7 -67zM145 534l-29 23l112 146h61l112 -146l-29 -23l-114 89z" />
    <glyph glyph-name="udieresis" unicode="&#xfc;" horiz-adv-x="538" 
d="M357 331v-237q-57 -45 -108 -45t-72 27t-21 82v256q2 26 10 55l-20 11q-52 -21 -133 -37l6 -27q28 -5 48 -18q8 -33 9 -67v-190q0 -75 37 -114t108 -39q37 0 66 12q25 19 73 55l7 -2q8 -22 11 -56q34 3 68 3q38 0 75 -3v34q-38 8 -69 26q-15 39 -15 83v274q2 26 10 55
l-19 11q-54 -22 -133 -37l6 -27q28 -5 49 -18q6 -30 7 -67zM295 615q0 22 15.5 37.5t36.5 15.5q22 0 37.5 -15.5t15.5 -37.5q0 -21 -15.5 -36.5t-37.5 -15.5q-21 0 -36.5 15.5t-15.5 36.5zM96 615q0 22 15.5 37.5t36.5 15.5q22 0 37.5 -15.5t15.5 -37.5q0 -21 -15.5 -36.5
t-37.5 -15.5q-21 0 -36.5 15.5t-15.5 36.5z" />
    <glyph glyph-name="yacute" unicode="&#xfd;" horiz-adv-x="479" 
d="M359 424l3 -10l-107 -315h-7l-107 312l4 11q19 8 56 8v39h-194v-39q27 -3 39 -11l160 -431q-30 -105 -112 -105q-22 0 -46 9l-10 -8l15 -79q7 -1 20 -1q71 0 114 48t78 139l163 421q16 14 43 23v34h-173v-39q49 0 61 -6zM192 534l-33 25l109 164q34 -15 90 -24v-21z" />
    <glyph glyph-name="thorn" unicode="&#xfe;" horiz-adv-x="513" 
d="M227 467q31 13 72 13q77 0 127.5 -53t50.5 -170q0 -114 -66 -191.5t-169 -77.5q-42 0 -83 14v-86q4 -34 10 -52q36 -18 92 -27v-35q-80 2 -119 2q-77 0 -117 -2v33q30 6 42 18q10 45 12 82v600q0 40 -8 75q-25 15 -69 19l-5 29q96 15 150 37l20 -11q-8 -48 -8 -78v-188
q22 18 68 49zM250 32q66 0 98 55.5t32 149.5q0 88 -30.5 136.5t-82.5 48.5q-26 0 -53 -11t-41 -22l-14 -11v-312q43 -34 91 -34z" />
    <glyph glyph-name="ydieresis" unicode="&#xff;" horiz-adv-x="479" 
d="M359 424l3 -10l-107 -315h-7l-107 312l4 11q19 8 56 8v39h-194v-39q27 -3 39 -11l160 -431q-30 -105 -112 -105q-22 0 -46 9l-10 -8l15 -79q7 -1 20 -1q71 0 114 48t78 139l163 421q16 14 43 23v34h-173v-39q49 0 61 -6zM296 615q0 22 15.5 37.5t36.5 15.5
q22 0 37.5 -15.5t15.5 -37.5q0 -21 -15.5 -36.5t-37.5 -15.5q-21 0 -36.5 15.5t-15.5 36.5zM97 615q0 22 15.5 37.5t36.5 15.5q22 0 37.5 -15.5t15.5 -37.5q0 -21 -15.5 -36.5t-37.5 -15.5q-21 0 -36.5 15.5t-15.5 36.5z" />
    <glyph glyph-name="Amacron" unicode="&#x100;" horiz-adv-x="640" 
d="M465 65l-55 169h-211l-62 -170l4 -8q30 -14 67 -23v-35q-82 2 -108 2q-31 0 -95 -2v36q36 10 64 26l226 590h67l201 -585q34 -19 74 -31v-36q-88 2 -123 2q-42 0 -124 -2v35q37 6 73 23zM308 531l-90 -246h176l-79 246h-7zM172 740v46h293l17 -15v-45h-292z" />
    <glyph glyph-name="amacron" unicode="&#x101;" horiz-adv-x="465" 
d="M293 57l7 -1q8 -24 11 -58q24 2 70 2q26 0 74 -2v33q-37 8 -69 26q-15 39 -15 83v206q0 67 -29 100.5t-96 33.5q-34 0 -89.5 -16.5t-91.5 -37.5q9 -62 13 -105h18l42 12q-4 57 9 87q21 6 55 6q53 0 71 -23.5t18 -77.5v-49q-158 -39 -218 -71q-33 -37 -33 -92
q0 -66 35.5 -95.5t82.5 -29.5q46 0 74 18q40 31 61 51zM291 238v-140q-48 -46 -96 -46q-64 0 -64 72q0 43 24 63q34 29 136 51zM79 590v53h293l17 -15v-52h-292z" />
    <glyph glyph-name="Abreve" unicode="&#x102;" horiz-adv-x="640" 
d="M465 65l-55 169h-211l-62 -170l4 -8q30 -14 67 -23v-35q-82 2 -108 2q-31 0 -95 -2v36q36 10 64 26l226 590h67l201 -585q34 -19 74 -31v-36q-88 2 -123 2q-42 0 -124 -2v35q37 6 73 23zM308 531l-90 -246h176l-79 246h-7zM184 834l34 20q44 -79 115 -79q68 0 111 77
l31 -18q-53 -128 -147 -128q-89 0 -144 128z" />
    <glyph glyph-name="abreve" unicode="&#x103;" horiz-adv-x="465" 
d="M293 57l7 -1q8 -24 11 -58q24 2 70 2q26 0 74 -2v33q-37 8 -69 26q-15 39 -15 83v206q0 67 -29 100.5t-96 33.5q-34 0 -89.5 -16.5t-91.5 -37.5q9 -62 13 -105h18l42 12q-4 57 9 87q21 6 55 6q53 0 71 -23.5t18 -77.5v-49q-158 -39 -218 -71q-33 -37 -33 -92
q0 -66 35.5 -95.5t82.5 -29.5q46 0 74 18q40 31 61 51zM291 238v-140q-48 -46 -96 -46q-64 0 -64 72q0 43 24 63q34 29 136 51zM91 680l34 20q21 -41 51.5 -68t63.5 -27q61 0 111 93l31 -18q-26 -81 -66.5 -113.5t-80.5 -32.5q-46 0 -81.5 33.5t-62.5 112.5z" />
    <glyph glyph-name="Aogonek" unicode="&#x104;" horiz-adv-x="640" 
d="M465 65l-55 169h-211l-62 -170l4 -8q30 -14 67 -23v-35q-82 2 -108 2q-31 0 -95 -2v36q36 10 64 26l226 590h67l201 -585q34 -19 74 -31v-36q-45 0 -80 -16q-34 -16 -60.5 -46.5t-26.5 -69.5q0 -27 11.5 -48t36.5 -21q24 0 64 19l12 -29q-33 -20 -68 -38q-19 -10 -43 -10
q-41 0 -66 30t-25 73q0 44 24 74q32 39 94 84q-42 0 -120 -2v35q37 6 73 23zM308 531l-90 -246h176l-79 246h-7z" />
    <glyph glyph-name="aogonek" unicode="&#x105;" horiz-adv-x="466" 
d="M300 56l-7 1q-21 -20 -61 -51q-28 -18 -74 -18q-47 0 -82.5 29.5t-35.5 95.5q0 55 33 92q60 32 218 71v49q0 54 -18 77.5t-71 23.5q-15 0 -29 -1.5t-20 -2.5l-6 -2q-13 -30 -9 -87l-42 -12h-18q-4 43 -13 105q36 21 91.5 37.5t89.5 16.5q67 0 96 -33.5t29 -100.5v-206
q0 -44 15 -83q32 -18 69 -26v-28q-52 -23 -87.5 -59.5t-35.5 -80.5q0 -25 11.5 -45.5t36.5 -20.5q24 0 64 19l12 -29q-33 -20 -68 -38q-19 -10 -43 -10q-41 0 -66 30t-25 73q0 44 24 74q34 41 101 84q-47 0 -68 -2q-3 34 -11 58zM291 98v140q-102 -22 -136 -51
q-24 -20 -24 -63q0 -72 64 -72q48 0 96 46z" />
    <glyph glyph-name="Cacute" unicode="&#x106;" horiz-adv-x="588" 
d="M552 640q-103 24 -192 24q-137 0 -229 -96.5t-92 -242.5q0 -157 78 -249.5t245 -92.5q115 0 188 32q0 81 13 163l-54 7q-23 -94 -46 -128q-40 -17 -95 -17q-50 0 -89.5 18.5t-65 48t-42 69.5t-23.5 81.5t-7 85.5q0 123 56.5 195.5t148.5 72.5q64 0 120 -20q14 -31 19 -99
l42 -6h19q-5 74 6 154zM311 696l-19 30l150 122q30 -26 66 -46l-4 -15z" />
    <glyph glyph-name="cacute" unicode="&#x107;" horiz-adv-x="442" 
d="M417 447q-83 33 -154 33q-97 0 -162.5 -69t-65.5 -187q0 -107 58.5 -171.5t153.5 -64.5q40 0 78 14q21 12 88 62l-16 34q-62 -38 -116 -38q-155 0 -155 204q0 84 34 128.5t88 44.5q50 0 91 -27q12 -37 9 -83l41 -9h17q5 94 11 129zM242 534l-33 25l109 164q34 -15 90 -24
v-21z" />
    <glyph glyph-name="Ccircumflex" unicode="&#x108;" horiz-adv-x="588" 
d="M552 640q-11 -80 -6 -154h-19l-42 6q-5 68 -19 99q-56 20 -120 20q-92 0 -148.5 -72.5t-56.5 -195.5q0 -44 7 -85.5t23.5 -81.5t42 -69.5t65 -48t89.5 -18.5q55 0 95 17q23 34 46 128l54 -7q-13 -82 -13 -163q-73 -32 -188 -32q-167 0 -245 92.5t-78 249.5
q0 146 92 242.5t229 96.5q89 0 192 -24zM516 724l-25 -27l-132 81l-131 -81l-25 27l124 122h61z" />
    <glyph glyph-name="ccircumflex" unicode="&#x109;" horiz-adv-x="442" 
d="M417 447q-83 33 -154 33q-97 0 -162.5 -69t-65.5 -187q0 -107 58.5 -171.5t153.5 -64.5q40 0 78 14q21 12 88 62l-16 34q-62 -38 -116 -38q-155 0 -155 204q0 84 34 128.5t88 44.5q50 0 91 -27q12 -37 9 -83l41 -9h17q5 94 11 129zM148 534l-29 23l112 146h61l112 -146
l-29 -23l-114 89z" />
    <glyph glyph-name="Cdotaccent" unicode="&#x10a;" horiz-adv-x="588" 
d="M552 640q-103 24 -192 24q-137 0 -229 -96.5t-92 -242.5q0 -157 78 -249.5t245 -92.5q115 0 188 32q0 81 13 163l-54 7q-23 -94 -46 -128q-40 -17 -95 -17q-50 0 -89.5 18.5t-65 48t-42 69.5t-23.5 81.5t-7 85.5q0 123 56.5 195.5t148.5 72.5q64 0 120 -20q14 -31 19 -99
l42 -6h19q-5 74 6 154zM312 758q0 22 16.5 39t38.5 17q23 0 39.5 -17t16.5 -39t-17 -38.5t-39 -16.5t-38.5 16.5t-16.5 38.5z" />
    <glyph glyph-name="cdotaccent" unicode="&#x10b;" horiz-adv-x="442" 
d="M417 447q-83 33 -154 33q-97 0 -162.5 -69t-65.5 -187q0 -107 58.5 -171.5t153.5 -64.5q40 0 78 14q21 12 88 62l-16 34q-62 -38 -116 -38q-155 0 -155 204q0 84 34 128.5t88 44.5q50 0 91 -27q12 -37 9 -83l41 -9h17q5 94 11 129zM208 615q0 22 16.5 39t38.5 17
q23 0 39.5 -16.5t16.5 -39.5q0 -22 -17 -38.5t-39 -16.5t-38.5 16.5t-16.5 38.5z" />
    <glyph glyph-name="Ccaron" unicode="&#x10c;" horiz-adv-x="588" 
d="M552 640q-103 24 -192 24q-137 0 -229 -96.5t-92 -242.5q0 -157 78 -249.5t245 -92.5q115 0 188 32q0 81 13 163l-54 7q-23 -94 -46 -128q-40 -17 -95 -17q-50 0 -89.5 18.5t-65 48t-42 69.5t-23.5 81.5t-7 85.5q0 123 56.5 195.5t148.5 72.5q64 0 120 -20q14 -31 19 -99
l42 -6h19q-5 74 6 154zM500 856l25 -27l-128 -122h-61l-124 122l25 27l131 -81z" />
    <glyph glyph-name="ccaron" unicode="&#x10d;" horiz-adv-x="442" 
d="M417 447q-83 33 -154 33q-97 0 -162.5 -69t-65.5 -187q0 -107 58.5 -171.5t153.5 -64.5q40 0 78 14q21 12 88 62l-16 34q-62 -38 -116 -38q-155 0 -155 204q0 84 34 128.5t88 44.5q50 0 91 -27q12 -37 9 -83l41 -9h17q5 94 11 129zM375 703l29 -23l-112 -146h-61
l-112 146l29 23l114 -89z" />
    <glyph glyph-name="Dcaron" unicode="&#x10e;" horiz-adv-x="637" 
d="M496 318q0 -135 -48 -201t-163 -66h-81q-10 29 -12 82v464h71q112 0 172.5 -64.5t60.5 -214.5zM152 0h151q48 0 89.5 10.5t80 36.5t65.5 65t43.5 99t16.5 137q0 84 -25 144.5t-70 93t-96.5 47t-113.5 14.5h-148q-64 0 -121 3v-36q36 -9 68 -28q9 -34 10 -73v-346
q-5 -77 -14 -111q-23 -15 -57 -22v-36q88 2 121 2zM408 856l25 -27l-128 -122h-61l-124 122l25 27l131 -81z" />
    <glyph glyph-name="dcaron" unicode="&#x10f;" horiz-adv-x="560" 
d="M354 97v287q-42 53 -103 53q-55 0 -89 -48.5t-34 -140.5q0 -84 28.5 -140t89.5 -56q63 0 108 45zM362 59h-6q-42 -38 -69 -58q-34 -13 -72 -13q-87 0 -133.5 63.5t-46.5 172.5q0 116 68.5 186t153.5 70q55 0 97 -17v70q0 42 -8 77q-23 14 -69 19l-5 29q97 15 151 37
l19 -11q-8 -48 -8 -78v-459q0 -46 17 -90q31 -17 67 -26v-34q-24 2 -73 2t-72 -2q-4 39 -11 62zM549 491h-37l-10 178q42 8 78 26l10 -12z" />
    <glyph glyph-name="Dcroat" unicode="&#x110;" horiz-adv-x="637" 
d="M23 311v58h79v144q-1 39 -10 73q-32 19 -68 28v36q57 -3 121 -3h148q62 0 113.5 -14.5t96.5 -47t70 -93t25 -144.5q0 -77 -16.5 -137t-43.5 -99t-65.5 -65t-80 -36.5t-89.5 -10.5h-151q-33 0 -121 -2v36q34 7 57 22q9 34 14 111v144h-79zM496 318q0 150 -60.5 214.5
t-172.5 64.5h-71v-228h166v-58h-166v-178q2 -53 12 -82h81q115 0 163 66t48 201z" />
    <glyph glyph-name="dcroat" unicode="&#x111;" horiz-adv-x="527" 
d="M362 59h-6q-42 -38 -69 -58q-34 -13 -72 -13q-88 0 -134 59t-46 167q0 115 68 180.5t154 65.5q55 0 97 -17v80h-193v47h191q0 7 -6 40q-23 14 -69 19l-5 29q97 15 151 37l19 -11q-8 -48 -8 -78v-36h84v-47h-84v-376q0 -46 17 -90q31 -17 67 -26v-34q-24 2 -73 2t-72 -2
q-4 39 -11 62zM354 97v267q-42 53 -103 53q-56 0 -89.5 -44t-33.5 -135q0 -82 28 -134t90 -52q63 0 108 45z" />
    <glyph glyph-name="Emacron" unicode="&#x112;" horiz-adv-x="537" 
d="M397 595h-189q-5 -33 -7 -80v-160h121q29 1 42 9q19 30 29 70h36q-5 -89 0 -209h-36q-9 41 -23 68q-22 8 -63 9h-106v-147q4 -70 9 -102h208q11 19 26 59.5t20 63.5l53 -7q-21 -102 -23 -169h-340q-26 0 -114 -2v36q35 8 58 22q8 34 13 111v344q-1 36 -9 73
q-32 19 -68 28v35h443q-8 -89 -5 -148h-19l-41 6q-2 54 -15 90zM110 740v46h293l17 -15v-45h-292z" />
    <glyph glyph-name="emacron" unicode="&#x113;" horiz-adv-x="459" 
d="M422 69l-17 32q-39 -23 -63.5 -32t-60.5 -9q-79 0 -117 52.5t-38 143.5l269 9l29 22q0 87 -41.5 140t-125.5 53q-99 0 -160.5 -70.5t-61.5 -182.5q0 -110 59 -174.5t149 -64.5q48 0 83 13q46 28 96 68zM333 310l-206 -16q4 69 36 106t82 37q86 0 88 -127zM88 590v53h293
l17 -15v-52h-292z" />
    <glyph glyph-name="Ebreve" unicode="&#x114;" horiz-adv-x="537" 
d="M397 595h-189q-5 -33 -7 -80v-160h121q29 1 42 9q19 30 29 70h36q-5 -89 0 -209h-36q-9 41 -23 68q-22 8 -63 9h-106v-147q4 -70 9 -102h208q11 19 26 59.5t20 63.5l53 -7q-21 -102 -23 -169h-340q-26 0 -114 -2v36q35 8 58 22q8 34 13 111v344q-1 36 -9 73
q-32 19 -68 28v35h443q-8 -89 -5 -148h-19l-41 6q-2 54 -15 90zM133 834l34 20q44 -79 115 -79q68 0 111 77l31 -18q-53 -128 -147 -128q-89 0 -144 128z" />
    <glyph glyph-name="ebreve" unicode="&#x115;" horiz-adv-x="459" 
d="M422 69l-17 32q-39 -23 -63.5 -32t-60.5 -9q-79 0 -117 52.5t-38 143.5l269 9l29 22q0 87 -41.5 140t-125.5 53q-99 0 -160.5 -70.5t-61.5 -182.5q0 -110 59 -174.5t149 -64.5q48 0 83 13q46 28 96 68zM333 310l-206 -16q4 69 36 106t82 37q86 0 88 -127zM99 680l34 20
q21 -41 51.5 -68t63.5 -27q61 0 111 93l31 -18q-26 -81 -66.5 -113.5t-80.5 -32.5q-46 0 -81.5 33.5t-62.5 112.5z" />
    <glyph glyph-name="Edotaccent" unicode="&#x116;" horiz-adv-x="537" 
d="M397 595h-189q-5 -33 -7 -80v-160h121q29 1 42 9q19 30 29 70h36q-5 -89 0 -209h-36q-9 41 -23 68q-22 8 -63 9h-106v-147q4 -70 9 -102h208q11 19 26 59.5t20 63.5l53 -7q-21 -102 -23 -169h-340q-26 0 -114 -2v36q35 8 58 22q8 34 13 111v344q-1 36 -9 73
q-32 19 -68 28v35h443q-8 -89 -5 -148h-19l-41 6q-2 54 -15 90zM220 758q0 22 16.5 39t38.5 17q23 0 39.5 -17t16.5 -39t-17 -38.5t-39 -16.5t-38.5 16.5t-16.5 38.5z" />
    <glyph glyph-name="edotaccent" unicode="&#x117;" horiz-adv-x="459" 
d="M422 69l-17 32q-39 -23 -63.5 -32t-60.5 -9q-79 0 -117 52.5t-38 143.5l269 9l29 22q0 87 -41.5 140t-125.5 53q-99 0 -160.5 -70.5t-61.5 -182.5q0 -110 59 -174.5t149 -64.5q48 0 83 13q46 28 96 68zM333 310l-206 -16q4 69 36 106t82 37q86 0 88 -127zM194 615
q0 22 16.5 39t38.5 17q23 0 39.5 -16.5t16.5 -39.5q0 -22 -17 -38.5t-39 -16.5t-38.5 16.5t-16.5 38.5z" />
    <glyph glyph-name="Eogonek" unicode="&#x118;" horiz-adv-x="537" 
d="M397 595h-189q-5 -33 -7 -80v-160h121q29 1 42 9q19 30 29 70h36q-5 -89 0 -209h-36q-9 41 -23 68q-22 8 -63 9h-106v-147q4 -70 9 -102h208q11 19 26 59.5t20 63.5l53 -7q-21 -102 -23 -169q-42 -24 -73 -60.5t-31 -75.5q0 -27 11.5 -47t36.5 -20q24 0 64 19l12 -29
q-33 -20 -68 -38q-19 -10 -43 -10q-41 0 -66 30t-25 73q0 44 24 74q32 39 94 84h-276q-26 0 -114 -2v36q35 8 58 22q8 34 13 111v344q-1 36 -9 73q-32 19 -68 28v35h443q-8 -89 -5 -148h-19l-41 6q-2 54 -15 90z" />
    <glyph glyph-name="eogonek" unicode="&#x119;" horiz-adv-x="459" 
d="M405 101l17 -32q-25 -20 -93 -68q-98 -69 -98 -135q0 -27 11.5 -48t36.5 -21q24 0 64 19l12 -29q-33 -20 -68 -38q-19 -10 -43 -10q-41 0 -66 30t-25 73q0 44 24 74q28 34 78 72h-12q-90 0 -149 64.5t-59 174.5q0 112 61.5 182.5t160.5 70.5q84 0 125.5 -53t41.5 -140
l-29 -22l-269 -9q0 -91 38 -143.5t117 -52.5q36 0 60.5 9t63.5 32zM127 294l206 16q-2 127 -88 127q-50 0 -82 -37t-36 -106z" />
    <glyph glyph-name="Ecaron" unicode="&#x11a;" horiz-adv-x="537" 
d="M397 595h-189q-5 -33 -7 -80v-160h121q29 1 42 9q19 30 29 70h36q-5 -89 0 -209h-36q-9 41 -23 68q-22 8 -63 9h-106v-147q4 -70 9 -102h208q11 19 26 59.5t20 63.5l53 -7q-21 -102 -23 -169h-340q-26 0 -114 -2v36q35 8 58 22q8 34 13 111v344q-1 36 -9 73
q-32 19 -68 28v35h443q-8 -89 -5 -148h-19l-41 6q-2 54 -15 90zM408 856l25 -27l-128 -122h-61l-124 122l25 27l131 -81z" />
    <glyph glyph-name="ecaron" unicode="&#x11b;" horiz-adv-x="459" 
d="M422 69l-17 32q-39 -23 -63.5 -32t-60.5 -9q-79 0 -117 52.5t-38 143.5l269 9l29 22q0 87 -41.5 140t-125.5 53q-99 0 -160.5 -70.5t-61.5 -182.5q0 -110 59 -174.5t149 -64.5q48 0 83 13q46 28 96 68zM333 310l-206 -16q4 69 36 106t82 37q86 0 88 -127zM359 703l29 -23
l-112 -146h-61l-112 146l29 23l114 -89z" />
    <glyph glyph-name="Gcircumflex" unicode="&#x11c;" horiz-adv-x="642" 
d="M372 42q47 0 104 17v94q-2 46 -9 82q-40 21 -88 30v35q80 -2 131 -2q34 0 122 2v-36q-31 -7 -58 -22q-5 -40 -9 -111v-104q-109 -44 -211 -44q-155 0 -235 89.5t-80 252.5q0 149 93.5 244t234.5 95q95 0 199 -23q-11 -80 -6 -155h-19l-42 6q-5 63 -19 98q-55 20 -119 20
q-102 0 -161 -70.5t-59 -199.5q0 -57 11.5 -107.5t37 -94.5t72 -70t110.5 -26zM517 724l-25 -27l-132 81l-131 -81l-25 27l124 122h61z" />
    <glyph glyph-name="gcircumflex" unicode="&#x11d;" horiz-adv-x="465" 
d="M211 443q-40 0 -60 -29t-20 -79q0 -63 23 -105.5t72 -42.5q82 0 82 116q0 140 -97 140zM168 158q-26 -30 -26 -47q0 -26 69 -33l114 -11q57 -6 87 -36.5t30 -74.5q0 -78 -60.5 -120.5t-155.5 -42.5q-94 0 -150 33.5t-66 99.5l72 45l18 -9q20 -123 134 -123q59 0 94.5 22
t35.5 64q0 60 -88 67l-113 8q-46 3 -74.5 24t-28.5 57q0 16 4 30q54 49 62 58q-86 42 -86 149q0 75 47.5 118.5t128.5 43.5q56 0 103 -18q63 14 117 38l10 -9l4 -66q-45 2 -83 -4l-4 -7q34 -39 34 -99q0 -72 -47.5 -118t-129.5 -46q-17 0 -52 7zM129 534l-29 23l112 146h61
l112 -146l-29 -23l-114 89z" />
    <glyph glyph-name="Gbreve" unicode="&#x11e;" horiz-adv-x="642" 
d="M372 42q47 0 104 17v94q-2 46 -9 82q-40 21 -88 30v35q80 -2 131 -2q34 0 122 2v-36q-31 -7 -58 -22q-5 -40 -9 -111v-104q-109 -44 -211 -44q-155 0 -235 89.5t-80 252.5q0 149 93.5 244t234.5 95q95 0 199 -23q-11 -80 -6 -155h-19l-42 6q-5 63 -19 98q-55 20 -119 20
q-102 0 -161 -70.5t-59 -199.5q0 -57 11.5 -107.5t37 -94.5t72 -70t110.5 -26zM230 834l34 20q44 -79 115 -79q68 0 111 77l31 -18q-53 -128 -147 -128q-89 0 -144 128z" />
    <glyph glyph-name="gbreve" unicode="&#x11f;" horiz-adv-x="465" 
d="M211 443q-40 0 -60 -29t-20 -79q0 -63 23 -105.5t72 -42.5q82 0 82 116q0 140 -97 140zM168 158q-26 -30 -26 -47q0 -26 69 -33l114 -11q57 -6 87 -36.5t30 -74.5q0 -78 -60.5 -120.5t-155.5 -42.5q-94 0 -150 33.5t-66 99.5l72 45l18 -9q20 -123 134 -123q59 0 94.5 22
t35.5 64q0 60 -88 67l-113 8q-46 3 -74.5 24t-28.5 57q0 16 4 30q54 49 62 58q-86 42 -86 149q0 75 47.5 118.5t128.5 43.5q56 0 103 -18q63 14 117 38l10 -9l4 -66q-45 2 -83 -4l-4 -7q34 -39 34 -99q0 -72 -47.5 -118t-129.5 -46q-17 0 -52 7zM87 680l34 20
q21 -41 51.5 -68t63.5 -27q61 0 111 93l31 -18q-26 -81 -66.5 -113.5t-80.5 -32.5q-46 0 -81.5 33.5t-62.5 112.5z" />
    <glyph glyph-name="Gdotaccent" unicode="&#x120;" horiz-adv-x="642" 
d="M372 42q47 0 104 17v94q-2 46 -9 82q-40 21 -88 30v35q80 -2 131 -2q34 0 122 2v-36q-31 -7 -58 -22q-5 -40 -9 -111v-104q-109 -44 -211 -44q-155 0 -235 89.5t-80 252.5q0 149 93.5 244t234.5 95q95 0 199 -23q-11 -80 -6 -155h-19l-42 6q-5 63 -19 98q-55 20 -119 20
q-102 0 -161 -70.5t-59 -199.5q0 -57 11.5 -107.5t37 -94.5t72 -70t110.5 -26zM317 758q0 22 16.5 39t38.5 17t39 -17t17 -39t-17 -38.5t-39 -16.5t-38.5 16.5t-16.5 38.5z" />
    <glyph glyph-name="gdotaccent" unicode="&#x121;" horiz-adv-x="465" 
d="M211 443q-40 0 -60 -29t-20 -79q0 -63 23 -105.5t72 -42.5q82 0 82 116q0 140 -97 140zM168 158q-26 -30 -26 -47q0 -26 69 -33l114 -11q57 -6 87 -36.5t30 -74.5q0 -78 -60.5 -120.5t-155.5 -42.5q-94 0 -150 33.5t-66 99.5l72 45l18 -9q20 -123 134 -123q59 0 94.5 22
t35.5 64q0 60 -88 67l-113 8q-46 3 -74.5 24t-28.5 57q0 16 4 30q54 49 62 58q-86 42 -86 149q0 75 47.5 118.5t128.5 43.5q56 0 103 -18q63 14 117 38l10 -9l4 -66q-45 2 -83 -4l-4 -7q34 -39 34 -99q0 -72 -47.5 -118t-129.5 -46q-17 0 -52 7zM178 615q0 22 16.5 39
t38.5 17q23 0 39.5 -16.5t16.5 -39.5q0 -22 -17 -38.5t-39 -16.5t-38.5 16.5t-16.5 38.5z" />
    <glyph glyph-name="Gcommaaccent" unicode="&#x122;" horiz-adv-x="642" 
d="M372 42q47 0 104 17v94q-2 46 -9 82q-40 21 -88 30v35q80 -2 131 -2q34 0 122 2v-36q-31 -7 -58 -22q-5 -40 -9 -111v-104q-109 -44 -211 -44q-155 0 -235 89.5t-80 252.5q0 149 93.5 244t234.5 95q95 0 199 -23q-11 -80 -6 -155h-19l-42 6q-5 63 -19 98q-55 20 -119 20
q-102 0 -161 -70.5t-59 -199.5q0 -57 11.5 -107.5t37 -94.5t72 -70t110.5 -26zM303 -206q47 22 47 60q0 10 -14.5 25t-14.5 30q0 19 11.5 30t30.5 11q21 0 34.5 -15t13.5 -42q0 -39 -27 -71t-65 -53z" />
    <glyph glyph-name="gcommaaccent" unicode="&#x123;" horiz-adv-x="465" 
d="M211 443q-40 0 -60 -29t-20 -79q0 -63 23 -105.5t72 -42.5q82 0 82 116q0 140 -97 140zM168 158q-26 -30 -26 -47q0 -26 69 -33l114 -11q57 -6 87 -36.5t30 -74.5q0 -78 -60.5 -120.5t-155.5 -42.5q-94 0 -150 33.5t-66 99.5l72 45l18 -9q20 -123 134 -123q59 0 94.5 22
t35.5 64q0 60 -88 67l-113 8q-46 3 -74.5 24t-28.5 57q0 16 4 30q54 49 62 58q-86 42 -86 149q0 75 47.5 118.5t128.5 43.5q56 0 103 -18q63 14 117 38l10 -9l4 -66q-45 2 -83 -4l-4 -7q34 -39 34 -99q0 -72 -47.5 -118t-129.5 -46q-17 0 -52 7zM287 685q-45 -23 -45 -58
q0 -10 14 -24.5t14 -29.5q0 -18 -11.5 -28.5t-29.5 -10.5q-20 0 -33 14.5t-13 40.5q0 38 26 69.5t63 50.5z" />
    <glyph glyph-name="Hcircumflex" unicode="&#x124;" horiz-adv-x="704" 
d="M503 367v146q-3 47 -10 73q-32 19 -68 28v36q57 -3 123 -3q56 0 120 3v-36q-30 -8 -62 -26q-9 -41 -13 -110v-343q1 -37 13 -73q31 -20 74 -29v-35q-82 2 -124 2q-36 0 -124 -2v36q34 7 57 22q9 34 14 111v146h-302v-178q3 -39 14 -73q32 -20 73 -29v-35q-80 2 -124 2
q-36 0 -124 -2v36q35 8 58 22q8 34 13 111v345q-1 35 -9 72q-33 21 -70 29v36q61 -3 116 -3q62 0 126 3v-36q-38 -10 -59 -23q-10 -40 -14 -111v-112h302zM526 724l-25 -27l-132 81l-131 -81l-25 27l124 122h61z" />
    <glyph glyph-name="hcircumflex" unicode="&#x125;" horiz-adv-x="549" 
d="M171 608v-141q0 -5 -0.5 -12t-1 -13.5t-1 -12.5t-0.5 -10l-1 -4l4 -3q39 37 69 56q33 12 70 12q75 0 113.5 -38t38.5 -110v-226q1 -25 10 -52q37 -17 69 -23v-34q-47 3 -98 3q-58 0 -115 -3v33q31 8 42 18q10 45 12 82v187q0 103 -94 103q-29 0 -58 -11t-44 -23l-15 -11
v-269q1 -25 10 -52q40 -18 69 -23v-34q-51 3 -103 3q-55 0 -110 -3v33q31 8 42 18q10 45 12 82v405q0 40 -8 75q-25 15 -69 19l-5 29q96 15 150 37l20 -11q-7 -41 -8 -76zM352 754l-25 -27l-132 81l-131 -81l-25 27l124 122h61z" />
    <glyph glyph-name="Hbar" unicode="&#x126;" horiz-adv-x="704" 
d="M26 456v53h85q-1 40 -13 75q-31 20 -74 29v36q61 -3 124 -3q60 0 124 3v-36q-35 -9 -57 -23q-9 -32 -12 -81h300v4q-3 47 -10 73q-32 19 -68 28v36q57 -3 123 -3q56 0 120 3v-36q-30 -8 -62 -26q-9 -38 -12 -79h90v-53h-91v-321q1 -37 13 -73q31 -20 74 -29v-35
q-82 2 -124 2q-36 0 -124 -2v36q34 7 57 22q9 34 14 111v146h-302v-178q3 -39 14 -73q32 -20 73 -29v-35q-80 2 -124 2q-36 0 -124 -2v36q35 8 58 22q8 34 13 111v289h-85zM201 367h302v89h-302v-89z" />
    <glyph glyph-name="hbar" unicode="&#x127;" horiz-adv-x="549" 
d="M9 523v47h80q-1 20 -6 40q-25 15 -69 19l-5 29q96 15 150 37l20 -11q-7 -41 -8 -76v-38h195v-47h-195v-76q0 -5 -0.5 -12t-1 -13.5t-1 -12.5t-0.5 -10l-1 -4l4 -3q39 37 69 56q33 12 70 12q71 0 109 -38.5t38 -109.5v-206q1 -25 10 -52q37 -17 69 -23v-34q-46 3 -98 3
q-58 0 -115 -3v33q31 8 42 18q10 45 12 82v167q0 103 -89 103q-29 0 -58 -11t-44 -23l-15 -11v-249q1 -25 10 -52q40 -18 69 -23v-34q-51 3 -103 3q-55 0 -110 -3v33q31 8 42 18q10 45 12 82v393h-82z" />
    <glyph glyph-name="Itilde" unicode="&#x128;" horiz-adv-x="312" 
d="M111 513v-346q-5 -77 -13 -111q-23 -14 -58 -22v-36q88 2 125 2q43 0 123 -2v35q-41 9 -73 29q-11 34 -14 73v343q4 63 14 110q26 17 62 26v36q-66 -3 -120 -3q-68 0 -123 3v-36q36 -9 68 -28q8 -37 9 -73zM13 719l-25 12q25 42 47 68q19 23 54 23q26 0 83.5 -21
t82.5 -21q31 0 50 39l26 -8q-11 -38 -30 -70q-15 -25 -52 -25q-31 0 -93 20t-85 20q-17 0 -29 -8t-29 -29z" />
    <glyph glyph-name="itilde" unicode="&#x129;" horiz-adv-x="263" 
d="M171 106v269q0 54 13 95l-20 10q-56 -23 -142 -37l5 -28q37 -7 56 -20q8 -34 8 -75v-190q-2 -37 -12 -82q-7 -6 -48 -18v-33q54 3 105 3q52 0 114 -3v34q-37 8 -69 23q-9 27 -10 52zM-30 569l-25 12q25 42 47 68q19 23 54 23q26 0 83 -21t83 -21q31 0 50 39l26 -8
q-11 -38 -30 -70q-15 -25 -52 -25q-31 0 -93 20t-85 20q-17 0 -29 -8t-29 -29z" />
    <glyph glyph-name="Imacron" unicode="&#x12a;" horiz-adv-x="312" 
d="M111 513v-346q-5 -77 -13 -111q-23 -14 -58 -22v-36q88 2 125 2q43 0 123 -2v35q-41 9 -73 29q-11 34 -14 73v343q4 63 14 110q26 17 62 26v36q-66 -3 -120 -3q-68 0 -123 3v-36q36 -9 68 -28q8 -37 9 -73zM-1 740v46h293l17 -15v-45h-292z" />
    <glyph glyph-name="imacron" unicode="&#x12b;" horiz-adv-x="263" 
d="M171 106v269q0 54 13 95l-20 10q-56 -23 -142 -37l5 -28q37 -7 56 -20q8 -34 8 -75v-190q-2 -37 -12 -82q-7 -6 -48 -18v-33q54 3 105 3q52 0 114 -3v34q-37 8 -69 23q-9 27 -10 52zM-39 590v53h293l17 -15v-52h-292z" />
    <glyph glyph-name="Ibreve" unicode="&#x12c;" horiz-adv-x="312" 
d="M111 513v-346q-5 -77 -13 -111q-23 -14 -58 -22v-36q88 2 125 2q43 0 123 -2v35q-41 9 -73 29q-11 34 -14 73v343q4 63 14 110q26 17 62 26v36q-66 -3 -120 -3q-68 0 -123 3v-36q36 -9 68 -28q8 -37 9 -73zM11 834l34 20q44 -79 115 -79q68 0 111 77l31 -18
q-53 -128 -147 -128q-89 0 -144 128z" />
    <glyph glyph-name="ibreve" unicode="&#x12d;" horiz-adv-x="263" 
d="M171 106v269q0 54 13 95l-20 10q-56 -23 -142 -37l5 -28q37 -7 56 -20q8 -34 8 -75v-190q-2 -37 -12 -82q-7 -6 -48 -18v-33q54 3 105 3q52 0 114 -3v34q-37 8 -69 23q-9 27 -10 52zM-14 680l34 20q21 -41 51.5 -68t63.5 -27q61 0 111 93l31 -18q-26 -81 -66.5 -113.5
t-80.5 -32.5q-46 0 -81.5 33.5t-62.5 112.5z" />
    <glyph glyph-name="Iogonek" unicode="&#x12e;" horiz-adv-x="312" 
d="M111 167v346q-1 36 -9 73q-32 19 -68 28v36q55 -3 123 -3q54 0 120 3v-36q-36 -9 -62 -26q-10 -47 -14 -110v-343q3 -39 14 -73q32 -20 73 -29v-35q-38 -6 -70 -26q-71 -43 -71 -106q0 -27 11.5 -48t36.5 -21q24 0 64 19l12 -29q-33 -20 -68 -38q-19 -10 -43 -10
q-41 0 -66 30t-25 73q0 44 24 74q32 39 94 84h-22q-37 0 -125 -2v36q35 8 58 22q8 34 13 111z" />
    <glyph glyph-name="iogonek" unicode="&#x12f;" horiz-adv-x="263" 
d="M171 106v269q0 54 13 95l-20 10q-56 -23 -142 -37l5 -28q37 -7 56 -20q8 -34 8 -75v-190q-2 -37 -12 -82q-7 -6 -48 -18v-33q48 3 108 3q-61 -44 -101 -87q-24 -26 -24 -77q0 -44 24.5 -70.5t66.5 -26.5q24 0 43 10q35 18 68 38l-12 29q-40 -19 -64 -19q-48 0 -48 59
q0 38 27.5 71.5t62.5 54.5q27 15 68 15v34q-37 8 -69 23q-9 27 -10 52zM67 625q0 24 17.5 41.5t40.5 17.5q24 0 41.5 -17.5t17.5 -41.5q0 -23 -17.5 -40.5t-41.5 -17.5q-23 0 -40.5 17.5t-17.5 40.5z" />
    <glyph glyph-name="Idotaccent" unicode="&#x130;" horiz-adv-x="312" 
d="M111 513v-346q-5 -77 -13 -111q-23 -14 -58 -22v-36q88 2 125 2q43 0 123 -2v35q-41 9 -73 29q-11 34 -14 73v343q4 63 14 110q26 17 62 26v36q-66 -3 -120 -3q-68 0 -123 3v-36q36 -9 68 -28q8 -37 9 -73zM102 758q0 22 16.5 39t38.5 17q23 0 39.5 -17t16.5 -39
t-17 -38.5t-39 -16.5t-38.5 16.5t-16.5 38.5z" />
    <glyph glyph-name="dotlessi" unicode="&#x131;" horiz-adv-x="263" 
d="M171 375v-269q1 -25 10 -52q32 -15 69 -23v-34q-62 3 -114 3q-51 0 -105 -3v33q41 12 48 18q10 45 12 82v190q0 41 -8 75q-19 13 -56 20l-5 28q86 14 142 37l20 -10q-13 -41 -13 -95z" />
    <glyph glyph-name="IJ" unicode="&#x132;" horiz-adv-x="618" 
d="M111 167v346q-1 36 -9 73q-32 19 -68 28v36q55 -3 123 -3q54 0 120 3v-36q-36 -9 -62 -26q-10 -47 -14 -110v-343q3 -39 14 -73q32 -20 73 -29v-35q-80 2 -123 2q-37 0 -125 -2v36q35 8 58 22q8 34 13 111zM423 91v419q-1 34 -10 76q-31 18 -77 28v36q57 -3 131 -3
q56 0 122 3v-36q-36 -9 -62 -26q-10 -47 -14 -110v-362q-1 -90 -9 -167q-11 -12 -37.5 -42.5t-56.5 -66t-38 -44.5l-30 26q81 122 81 269z" />
    <glyph glyph-name="ij" unicode="&#x133;" horiz-adv-x="498" 
d="M171 106v269q0 54 13 95l-20 10q-56 -23 -142 -37l5 -28q37 -7 56 -20q8 -34 8 -75v-190q-2 -37 -12 -82q-7 -6 -48 -18v-33q54 3 105 3q52 0 114 -3v34q-37 8 -69 23q-9 27 -10 52zM67 625q0 24 17.5 41.5t40.5 17.5q24 0 41.5 -17.5t17.5 -41.5q0 -23 -17.5 -40.5
t-41.5 -17.5q-23 0 -40.5 17.5t-17.5 40.5zM347 320v-265q0 -128 -72 -237l25 -22q10 11 59.5 64t62.5 66q5 56 5 152v297q0 54 13 95l-20 10q-56 -22 -141 -37l5 -28q36 -7 55 -20q6 -27 8 -75zM324 625q0 24 17 41.5t41 17.5q23 0 40.5 -17.5t17.5 -41.5
q0 -23 -17.5 -40.5t-40.5 -17.5q-24 0 -41 17.5t-17 40.5z" />
    <glyph glyph-name="Jcircumflex" unicode="&#x134;" horiz-adv-x="312" 
d="M111 91v419q-1 34 -10 76q-31 18 -77 28v36q57 -3 131 -3q56 0 122 3v-36q-36 -9 -62 -26q-10 -47 -14 -110v-362q-1 -90 -9 -167q-11 -12 -37.5 -42.5t-56.5 -66t-38 -44.5l-30 26q81 122 81 269zM314 724l-25 -27l-132 81l-131 -81l-25 27l124 122h61z" />
    <glyph glyph-name="jcircumflex" unicode="&#x135;" horiz-adv-x="235" 
d="M84 320v-265q0 -128 -72 -237l25 -22q10 11 59.5 64t62.5 66q5 56 5 152v297q0 54 13 95l-20 10q-56 -22 -141 -37l5 -28q36 -7 55 -20q6 -27 8 -75zM6 534l-29 23l112 146h61l112 -146l-29 -23l-114 89z" />
    <glyph glyph-name="Kcommaaccent" unicode="&#x136;" horiz-adv-x="588" 
d="M293 357l220 -281l63 -43v-33h-132q-23 37 -48 71l-190 254h-5v-190q3 -39 14 -73q32 -20 73 -29v-35q-80 2 -124 2q-36 0 -124 -2v36q35 8 58 22q8 34 13 111v345q0 33 -13 72q-31 20 -74 29v36q61 -3 124 -3q60 0 124 3v-36q-35 -9 -57 -23q-10 -40 -14 -111v-144h4
l228 253l-2 11q-21 12 -54 14v36q76 -2 112 -2q52 0 78 2v-35q-27 -6 -50 -23zM272 -206q47 22 47 60q0 10 -14.5 25t-14.5 30q0 19 11.5 30t30.5 11q21 0 34.5 -15t13.5 -42q0 -39 -27 -71t-65 -53z" />
    <glyph glyph-name="kcommaaccent" unicode="&#x137;" horiz-adv-x="503" 
d="M259 280l187 -218l40 -31v-31h-109q-19 28 -40 55l-162 197h-4v-150q1 -26 10 -53q32 -13 57 -18v-34q-51 3 -101 3q-49 0 -100 -3v33q31 8 42 18q10 45 12 82v405q0 40 -8 75q-25 15 -69 19l-5 29q96 15 150 37l24 -11q-12 -52 -12 -94v-331h4l154 161l-1 8q-9 2 -46 5
v36h179l5 -37q-20 -3 -62 -22zM229 -206q47 22 47 60q0 10 -14.5 25t-14.5 30q0 19 11.5 30t30.5 11q21 0 34.5 -15t13.5 -42q0 -39 -27 -71t-65 -53z" />
    <glyph glyph-name="kgreenlandic" unicode="&#x138;" horiz-adv-x="503" 
d="M257 264l189 -202l40 -31v-31h-109q-19 29 -46 59l-156 173h-4v-130q1 -26 10 -53q32 -13 57 -18v-34q-51 3 -101 3q-49 0 -100 -3v33q31 8 42 18q10 45 12 82v192q0 40 -8 75q-25 15 -69 19l-5 29q96 15 150 37l24 -11q-12 -52 -12 -94v-138h4l154 181l-1 8q-9 2 -46 5
v36h179l5 -37q-28 -5 -65 -21z" />
    <glyph glyph-name="Lacute" unicode="&#x139;" horiz-adv-x="514" 
d="M399 54h-189q-6 41 -8 101v348q2 48 13 82q40 21 88 30v35q-120 -3 -146 -3q-68 0 -123 3v-36q36 -9 68 -28q8 -37 9 -73v-346q-5 -77 -13 -111q-23 -14 -58 -22v-36q88 2 117 2h324q0 92 20 200l-50 5q-32 -120 -52 -151zM108 696l-19 30l150 122q30 -26 66 -46l-4 -15z
" />
    <glyph glyph-name="lacute" unicode="&#x13a;" horiz-adv-x="263" 
d="M171 106v500q0 30 8 78l-20 11q-54 -22 -150 -37l5 -29q44 -4 69 -19q8 -35 8 -75v-405q-2 -37 -12 -82q-14 -12 -42 -18v-33q54 3 107 3q52 0 106 -3v34q-34 6 -69 23q-9 27 -10 52zM58 717l-19 30l150 122q30 -26 66 -46l-4 -15z" />
    <glyph glyph-name="Lcommaaccent" unicode="&#x13b;" horiz-adv-x="514" 
d="M210 54h189q20 31 52 151l50 -5q-20 -108 -20 -200h-324q-29 0 -117 -2v36q35 8 58 22q8 34 13 111v346q-1 36 -9 73q-32 19 -68 28v36q55 -3 123 -3q26 0 146 3v-35q-48 -9 -88 -30q-11 -34 -13 -82v-348q2 -60 8 -101zM227 -206q47 22 47 60q0 10 -14.5 25t-14.5 30
q0 19 11.5 30t30.5 11q21 0 34.5 -15t13.5 -42q0 -39 -27 -71t-65 -53z" />
    <glyph glyph-name="lcommaaccent" unicode="&#x13c;" horiz-adv-x="263" 
d="M171 606v-500q1 -25 10 -52q35 -17 69 -23v-34q-54 3 -106 3q-53 0 -107 -3v33q28 6 42 18q10 45 12 82v405q0 40 -8 75q-25 15 -69 19l-5 29q96 15 150 37l20 -11q-8 -48 -8 -78zM78 -206q47 22 47 60q0 10 -14.5 25t-14.5 30q0 19 11.5 30t30.5 11q21 0 34.5 -15
t13.5 -42q0 -39 -27 -71t-65 -53z" />
    <glyph glyph-name="Lcaron" unicode="&#x13d;" horiz-adv-x="514" 
d="M210 54h189q20 31 52 151l50 -5q-20 -108 -20 -200h-324q-29 0 -117 -2v36q35 8 58 22q8 34 13 111v346q-1 36 -9 73q-32 19 -68 28v36q55 -3 123 -3q26 0 146 3v-35q-48 -9 -88 -30q-11 -34 -13 -82v-348q2 -60 8 -101zM417 446h-37l-10 178q42 8 78 26l10 -12z" />
    <glyph glyph-name="lcaron" unicode="&#x13e;" horiz-adv-x="290" 
d="M171 606v-500q1 -25 10 -52q35 -17 69 -23v-34q-54 3 -106 3q-53 0 -107 -3v33q28 6 42 18q10 45 12 82v405q0 40 -8 75q-25 15 -69 19l-5 29q96 15 150 37l20 -11q-8 -48 -8 -78zM279 491h-37l-10 178q42 8 78 26l10 -12z" />
    <glyph glyph-name="Ldot" unicode="&#x13f;" horiz-adv-x="514" 
d="M210 54h189q20 31 52 151l50 -5q-20 -108 -20 -200h-324q-29 0 -117 -2v36q35 8 58 22q8 34 13 111v346q-1 36 -9 73q-32 19 -68 28v36q55 -3 123 -3q26 0 146 3v-35q-48 -9 -88 -30q-11 -34 -13 -82v-348q2 -60 8 -101zM362 359q0 22 16.5 39t38.5 17q23 0 39.5 -16.5
t16.5 -39.5q0 -22 -17 -38.5t-39 -16.5t-38.5 16.5t-16.5 38.5z" />
    <glyph glyph-name="ldot" unicode="&#x140;" horiz-adv-x="297" 
d="M171 606v-500q1 -25 10 -52q35 -17 69 -23v-34q-54 3 -106 3q-53 0 -107 -3v33q28 6 42 18q10 45 12 82v405q0 40 -8 75q-25 15 -69 19l-5 29q96 15 150 37l20 -11q-8 -48 -8 -78zM223 383q0 22 16.5 39t38.5 17t39 -16.5t17 -39.5q0 -22 -17 -38.5t-39 -16.5t-38.5 16.5
t-16.5 38.5z" />
    <glyph glyph-name="Lslash" unicode="&#x141;" horiz-adv-x="499" 
d="M210 54h189q20 31 52 151l50 -5q-20 -108 -20 -200h-324q-29 0 -117 -2v36q35 8 58 22q8 34 13 111v109l-83 -32v60l83 32v177q-1 36 -9 73q-32 19 -68 28v36q55 -3 123 -3q26 0 146 3v-35q-48 -9 -88 -30q-11 -34 -13 -82v-140l219 85v-60l-219 -85v-148q2 -60 8 -101z
" />
    <glyph glyph-name="lslash" unicode="&#x142;" horiz-adv-x="292" 
d="M177 349v-243q1 -25 10 -52q35 -17 69 -23v-34q-54 3 -106 3q-53 0 -107 -3v33q28 6 42 18q10 45 12 82v182l-79 -46v62l79 46v161q0 40 -8 75q-25 15 -69 19l-5 29q96 15 150 37l20 -11q-8 -48 -8 -78v-195l90 53v-62z" />
    <glyph glyph-name="Nacute" unicode="&#x143;" horiz-adv-x="720" 
d="M609 509l-1 -499l-69 -22l-357 580v-426q4 -55 12 -80q31 -19 75 -29v-35q-40 2 -105 2q-36 0 -124 -2v36q35 8 58 22q8 34 13 111v333q0 23 -7 84q-29 18 -67 27v38q70 -2 110 -2q26 0 92 2l303 -508v363q-2 52 -13 81q-42 23 -83 30v35q61 -3 117 -3q73 0 128 3v-36
q-47 -12 -74 -28q-8 -38 -8 -77zM315 696l-19 30l150 122q30 -26 66 -46l-4 -15z" />
    <glyph glyph-name="nacute" unicode="&#x144;" horiz-adv-x="554" 
d="M91 320v-190q-2 -37 -12 -82q-11 -10 -42 -18v-33q54 3 106 3q51 0 107 -3v34q-32 6 -69 23q-9 27 -10 52v268q57 46 116 46q50 0 72.5 -25t22.5 -79v-186q-2 -37 -12 -82q-7 -6 -42 -18v-33q56 3 108 3q51 0 105 -3v34q-29 5 -69 23q-9 27 -10 52v225q0 71 -36.5 110
t-110.5 39q-43 0 -72 -12q-27 -16 -73 -52l-5 1q-6 26 -4 53l-19 10q-56 -26 -124 -37l4 -29q40 -5 61 -19q6 -27 8 -75zM260 534l-33 25l109 164q34 -15 90 -24v-21z" />
    <glyph glyph-name="Ncommaaccent" unicode="&#x145;" horiz-adv-x="720" 
d="M609 509l-1 -499l-69 -22l-357 580v-426q4 -55 12 -80q31 -19 75 -29v-35q-40 2 -105 2q-36 0 -124 -2v36q35 8 58 22q8 34 13 111v333q0 23 -7 84q-29 18 -67 27v38q70 -2 110 -2q26 0 92 2l303 -508v363q-2 52 -13 81q-42 23 -83 30v35q61 -3 117 -3q73 0 128 3v-36
q-47 -12 -74 -28q-8 -38 -8 -77zM317 -206q47 22 47 60q0 10 -14.5 25t-14.5 30q0 19 11.5 30t30.5 11q21 0 34.5 -15t13.5 -42q0 -39 -27 -71t-65 -53z" />
    <glyph glyph-name="ncommaaccent" unicode="&#x146;" horiz-adv-x="554" 
d="M91 130v190q-2 48 -8 75q-21 14 -61 19l-4 29q68 11 124 37l19 -10q-2 -27 4 -53l5 -1q46 36 73 52q29 12 72 12q74 0 110.5 -39t36.5 -110v-225q1 -25 10 -52q40 -18 69 -23v-34q-54 3 -105 3q-52 0 -108 -3v33q35 12 42 18q10 45 12 82v186q0 54 -22.5 79t-72.5 25
q-59 0 -116 -46v-268q1 -25 10 -52q37 -17 69 -23v-34q-56 3 -107 3q-52 0 -106 -3v33q31 8 42 18q10 45 12 82zM226 -206q47 22 47 60q0 10 -14.5 25t-14.5 30q0 19 11.5 30t30.5 11q21 0 34.5 -15t13.5 -42q0 -39 -27 -71t-65 -53z" />
    <glyph glyph-name="Ncaron" unicode="&#x147;" horiz-adv-x="720" 
d="M609 509l-1 -499l-69 -22l-357 580v-426q4 -55 12 -80q31 -19 75 -29v-35q-40 2 -105 2q-36 0 -124 -2v36q35 8 58 22q8 34 13 111v333q0 23 -7 84q-29 18 -67 27v38q70 -2 110 -2q26 0 92 2l303 -508v363q-2 52 -13 81q-42 23 -83 30v35q61 -3 117 -3q73 0 128 3v-36
q-47 -12 -74 -28q-8 -38 -8 -77zM499 856l25 -27l-128 -122h-61l-124 122l25 27l131 -81z" />
    <glyph glyph-name="ncaron" unicode="&#x148;" horiz-adv-x="554" 
d="M91 320v-190q-2 -37 -12 -82q-11 -10 -42 -18v-33q54 3 106 3q51 0 107 -3v34q-32 6 -69 23q-9 27 -10 52v268q57 46 116 46q50 0 72.5 -25t22.5 -79v-186q-2 -37 -12 -82q-7 -6 -42 -18v-33q56 3 108 3q51 0 105 -3v34q-29 5 -69 23q-9 27 -10 52v225q0 71 -36.5 110
t-110.5 39q-43 0 -72 -12q-27 -16 -73 -52l-5 1q-6 26 -4 53l-19 10q-56 -26 -124 -37l4 -29q40 -5 61 -19q6 -27 8 -75zM404 703l29 -23l-112 -146h-61l-112 146l29 23l114 -89z" />
    <glyph glyph-name="napostrophe" unicode="&#x149;" horiz-adv-x="554" 
d="M91 320v-190q-2 -37 -12 -82q-11 -10 -42 -18v-33q54 3 106 3q51 0 107 -3v34q-32 6 -69 23q-9 27 -10 52v268q57 46 116 46q50 0 72.5 -25t22.5 -79v-186q-2 -37 -12 -82q-7 -6 -42 -18v-33q56 3 108 3q51 0 105 -3v34q-29 5 -69 23q-9 27 -10 52v225q0 71 -36.5 110
t-110.5 39q-43 0 -72 -12q-27 -16 -73 -52l-5 1q-6 26 -4 53l-19 10q-56 -26 -124 -37l4 -29q40 -5 61 -19q6 -27 8 -75zM20 508q47 22 47 60q0 10 -14.5 25t-14.5 30q0 19 11.5 30t30.5 11q21 0 34.5 -15t13.5 -42q0 -39 -27 -71t-65 -53z" />
    <glyph glyph-name="Eng" unicode="&#x14a;" horiz-adv-x="720" 
d="M609 509l-1 -420q0 -78 -8 -140q-11 -12 -37.5 -42.5t-56.5 -66t-38 -44.5l-30 26q64 101 77 205l-333 541v-426q4 -55 12 -80q31 -19 75 -29v-35q-40 2 -105 2q-36 0 -124 -2v36q35 8 58 22q8 34 13 111v333q0 23 -7 84q-29 18 -67 27v38q70 -2 110 -2q26 0 92 2
l303 -508v363q-2 52 -13 81q-42 23 -83 30v35q61 -3 117 -3q73 0 128 3v-36q-47 -12 -74 -28q-8 -38 -8 -77z" />
    <glyph glyph-name="eng" unicode="&#x14b;" horiz-adv-x="542" 
d="M310 -182q72 110 72 233v265q0 54 -22.5 79t-72.5 25q-59 0 -116 -46v-268q1 -25 10 -52q37 -17 69 -23v-34q-56 3 -107 3q-52 0 -106 -3v33q31 8 42 18q10 45 12 82v190q-2 48 -8 75q-21 14 -61 19l-4 29q68 11 124 37l19 -10q-2 -27 4 -53l5 -1q46 36 73 52
q29 12 72 12q74 0 110.5 -39t36.5 -110v-287q0 -58 -5 -118q-13 -13 -62.5 -66t-59.5 -64z" />
    <glyph glyph-name="Omacron" unicode="&#x14c;" horiz-adv-x="679" 
d="M322 -17q-132 0 -207.5 95t-75.5 247q0 149 86 244t228 95q128 0 207.5 -86t79.5 -230q0 -165 -86 -265t-232 -100zM321 611q-91 0 -135.5 -66.5t-44.5 -172.5q0 -47 5 -90.5t19.5 -89.5t37.5 -79t62 -54.5t90 -21.5q91 0 137.5 72.5t46.5 178.5q0 146 -54.5 234.5
t-163.5 88.5zM196 740v46h293l17 -15v-45h-292z" />
    <glyph glyph-name="omacron" unicode="&#x14d;" horiz-adv-x="514" 
d="M241 -12q-97 0 -151.5 67.5t-54.5 180.5q0 110 63 177t166 67q96 0 153 -58.5t57 -165.5q0 -120 -64 -194t-169 -74zM240 436q-109 0 -109 -167q0 -42 6 -79.5t20 -74.5t42.5 -59t69.5 -22q58 0 84.5 48t26.5 125q0 102 -35.5 165.5t-104.5 63.5zM101 590v53h293l17 -15
v-52h-292z" />
    <glyph glyph-name="Obreve" unicode="&#x14e;" horiz-adv-x="679" 
d="M322 -17q-132 0 -207.5 95t-75.5 247q0 149 86 244t228 95q128 0 207.5 -86t79.5 -230q0 -165 -86 -265t-232 -100zM321 611q-91 0 -135.5 -66.5t-44.5 -172.5q0 -47 5 -90.5t19.5 -89.5t37.5 -79t62 -54.5t90 -21.5q91 0 137.5 72.5t46.5 178.5q0 146 -54.5 234.5
t-163.5 88.5zM194 834l34 20q44 -79 115 -79q68 0 111 77l31 -18q-53 -128 -147 -128q-89 0 -144 128z" />
    <glyph glyph-name="obreve" unicode="&#x14f;" horiz-adv-x="514" 
d="M241 -12q-97 0 -151.5 67.5t-54.5 180.5q0 110 63 177t166 67q96 0 153 -58.5t57 -165.5q0 -120 -64 -194t-169 -74zM240 436q-109 0 -109 -167q0 -42 6 -79.5t20 -74.5t42.5 -59t69.5 -22q58 0 84.5 48t26.5 125q0 102 -35.5 165.5t-104.5 63.5zM113 680l34 20
q21 -41 51.5 -68t63.5 -27q61 0 111 93l31 -18q-26 -81 -66.5 -113.5t-80.5 -32.5q-46 0 -81.5 33.5t-62.5 112.5z" />
    <glyph glyph-name="Ohungarumlaut" unicode="&#x150;" horiz-adv-x="679" 
d="M322 -17q-132 0 -207.5 95t-75.5 247q0 149 86 244t228 95q128 0 207.5 -86t79.5 -230q0 -165 -86 -265t-232 -100zM321 611q-91 0 -135.5 -66.5t-44.5 -172.5q0 -47 5 -90.5t19.5 -89.5t37.5 -79t62 -54.5t90 -21.5q91 0 137.5 72.5t46.5 178.5q0 146 -54.5 234.5
t-163.5 88.5zM230 694l-23 27l124 160q36 -24 73 -38l-2 -15zM395 694l-19 30l122 138q24 -21 67 -46l-3 -15z" />
    <glyph glyph-name="ohungarumlaut" unicode="&#x151;" horiz-adv-x="514" 
d="M241 -12q-97 0 -151.5 67.5t-54.5 180.5q0 110 63 177t166 67q96 0 153 -58.5t57 -165.5q0 -120 -64 -194t-169 -74zM240 436q-109 0 -109 -167q0 -42 6 -79.5t20 -74.5t42.5 -59t69.5 -22q58 0 84.5 48t26.5 125q0 102 -35.5 165.5t-104.5 63.5zM158 534l-29 23l110 157
q39 -18 77 -27v-16zM308 534l-29 23l110 157q39 -18 77 -27v-16z" />
    <glyph glyph-name="OE" unicode="&#x152;" horiz-adv-x="917" 
d="M777 595h-189q-5 -33 -7 -80v-160h121q29 1 42 9q19 30 29 70h36q-5 -89 0 -209h-36q-9 41 -23 68q-22 8 -63 9h-106v-147q4 -70 9 -102h208q11 19 25.5 59t20.5 64l53 -7q-21 -102 -23 -169h-384q-75 -17 -142 -17q-151 0 -230 93.5t-79 248.5q0 148 87.5 243.5
t226.5 95.5q55 0 128 -17h376q-8 -89 -5 -148h-19l-41 6q-2 54 -15 90zM362 37q68 0 129 37v501q-75 35 -146 35q-103 0 -153.5 -64t-50.5 -174q0 -51 5.5 -95.5t21 -90t39.5 -77.5t64 -52t91 -20z" />
    <glyph glyph-name="oe" unicode="&#x153;" horiz-adv-x="801" 
d="M747 101l16 -32q-53 -43 -95 -68q-36 -13 -84 -13q-52 0 -95.5 27.5t-65.5 73.5q-57 -101 -182 -101q-97 0 -151.5 67.5t-54.5 180.5q0 110 63 177t166 67q113 0 164 -88q66 88 171 88q83 0 125 -53t42 -140l-30 -22l-267 -9q0 -86 38 -140.5t115 -54.5q36 0 61 8.5
t64 31.5zM240 436q-109 0 -109 -167q0 -42 6 -79.5t20 -74.5t42.5 -59t69.5 -22q58 0 84.5 48t26.5 125q0 101 -36.5 165t-103.5 64zM470 294l204 16q-2 127 -88 127q-50 0 -81 -37t-35 -106z" />
    <glyph glyph-name="Racute" unicode="&#x154;" horiz-adv-x="579" 
d="M203 135v157h62l137 -219q28 -44 42 -73h123v33l-53 43l-154 227q66 18 107 62.5t41 112.5q0 169 -199 169h-149q-71 0 -126 3v-36q36 -9 68 -28q8 -37 9 -73v-346q-5 -77 -13 -111q-23 -14 -58 -22v-36q44 2 127 2q41 0 123 -2v35q-43 9 -74 29q-12 36 -13 73zM286 345
h-83v172q2 45 7 80h70q60 0 92.5 -32t32.5 -94q0 -126 -119 -126zM212 696l-19 30l150 122q30 -26 66 -46l-4 -15z" />
    <glyph glyph-name="racute" unicode="&#x155;" horiz-adv-x="368" 
d="M91 319v-189q-2 -37 -12 -82q-11 -10 -42 -18v-33q60 3 119 3q56 0 114 -3v34q-51 7 -89 26q-9 27 -10 52v262q38 31 64 31q38 0 55 -46h17l58 76q-10 18 -33 33t-49 15q-33 0 -52 -8q-38 -33 -65 -61l-5 2q-4 38 0 56l-19 11q-68 -27 -124 -37l4 -29q40 -5 61 -19
q8 -34 8 -76zM172 534l-33 25l109 164q34 -15 90 -24v-21z" />
    <glyph glyph-name="Rcommaaccent" unicode="&#x156;" horiz-adv-x="579" 
d="M203 292v-157q1 -37 13 -73q31 -20 74 -29v-35q-82 2 -123 2q-83 0 -127 -2v36q35 8 58 22q8 34 13 111v346q-1 36 -9 73q-32 19 -68 28v36q55 -3 126 -3h149q199 0 199 -169q0 -68 -41 -112.5t-107 -62.5l154 -227l53 -43v-33h-123q-14 29 -42 73l-137 219h-62zM203 345
h83q119 0 119 126q0 62 -32.5 94t-92.5 32h-70q-5 -35 -7 -80v-172zM267 -206q47 22 47 60q0 10 -14.5 25t-14.5 30q0 19 11.5 30t30.5 11q21 0 34.5 -15t13.5 -42q0 -39 -27 -71t-65 -53z" />
    <glyph glyph-name="rcommaaccent" unicode="&#x157;" horiz-adv-x="368" 
d="M91 130v189q0 42 -8 76q-21 14 -61 19l-4 29q56 10 124 37l19 -11q-4 -18 0 -56l5 -2q27 28 65 61q19 8 52 8q26 0 49 -15t33 -33l-58 -76h-17q-17 46 -55 46q-26 0 -64 -31v-262q1 -25 10 -52q38 -19 89 -26v-34q-58 3 -114 3q-59 0 -119 -3v33q31 8 42 18q10 45 12 82z
M75 -206q47 22 47 60q0 10 -14.5 25t-14.5 30q0 19 11.5 30t30.5 11q21 0 34.5 -15t13.5 -42q0 -39 -27 -71t-65 -53z" />
    <glyph glyph-name="Rcaron" unicode="&#x158;" horiz-adv-x="579" 
d="M203 135v157h62l137 -219q28 -44 42 -73h123v33l-53 43l-154 227q66 18 107 62.5t41 112.5q0 169 -199 169h-149q-71 0 -126 3v-36q36 -9 68 -28q8 -37 9 -73v-346q-5 -77 -13 -111q-23 -14 -58 -22v-36q44 2 127 2q41 0 123 -2v35q-43 9 -74 29q-12 36 -13 73zM286 345
h-83v172q2 45 7 80h70q60 0 92.5 -32t32.5 -94q0 -126 -119 -126zM403 856l25 -27l-128 -122h-61l-124 122l25 27l131 -81z" />
    <glyph glyph-name="rcaron" unicode="&#x159;" horiz-adv-x="368" 
d="M91 319v-189q-2 -37 -12 -82q-11 -10 -42 -18v-33q60 3 119 3q56 0 114 -3v34q-51 7 -89 26q-9 27 -10 52v262q38 31 64 31q38 0 55 -46h17l58 76q-10 18 -33 33t-49 15q-33 0 -52 -8q-38 -33 -65 -61l-5 2q-4 38 0 56l-19 11q-68 -27 -124 -37l4 -29q40 -5 61 -19
q8 -34 8 -76zM311 703l29 -23l-112 -146h-61l-112 146l29 23l114 -89z" />
    <glyph glyph-name="Sacute" unicode="&#x15a;" horiz-adv-x="501" 
d="M439 625q-68 34 -166 34q-86 0 -147.5 -46t-61.5 -134q0 -75 43.5 -114t120.5 -66q72 -25 109.5 -56.5t37.5 -89.5q0 -53 -32.5 -82t-93.5 -29q-77 0 -118 39q-13 44 -16 119l-60 8q-13 -145 -21 -179q79 -41 190 -41q113 0 178 52.5t65 152.5q0 25 -6.5 46.5t-14.5 37
t-26 31t-29 24t-36.5 21t-36 16.5t-39.5 16q-63 25 -94.5 55t-31.5 79q0 40 28.5 65t82.5 25q58 0 90 -32q16 -39 18 -99l43 -6h18q-3 71 6 153zM214 696l-19 30l150 122q30 -26 66 -46l-4 -15z" />
    <glyph glyph-name="sacute" unicode="&#x15b;" horiz-adv-x="402" 
d="M349 450q-24 13 -62.5 21.5t-66.5 8.5q-66 0 -117.5 -34.5t-51.5 -103.5q0 -28 9 -49.5t28 -36.5t35.5 -23.5t43.5 -19.5q3 -1 17 -6.5t17.5 -7t16 -7t16 -8t13.5 -8.5t13 -10t9.5 -10.5t8.5 -13t4 -15t2 -17.5q0 -37 -22 -57t-63 -20q-53 0 -88 26q-4 34 -6 84l-53 8
q-2 -88 -13 -135q57 -28 142 -28q83 0 131 40t48 115q0 33 -12 58t-34.5 42t-43 27.5t-50.5 22.5l-4.5 1.5t-4 1.5t-4.5 2q-28 12 -43 20t-27.5 23.5t-12.5 34.5q0 28 19.5 46t56.5 18q52 0 76 -22q11 -32 8 -75l39 -8h17q2 76 9 115zM187 534l-33 25l109 164q34 -15 90 -24
v-21z" />
    <glyph glyph-name="Scircumflex" unicode="&#x15c;" horiz-adv-x="501" 
d="M439 625q-9 -82 -6 -153h-18l-43 6q-2 60 -18 99q-32 32 -90 32q-54 0 -82.5 -25t-28.5 -65q0 -49 31.5 -79t94.5 -55q29 -12 39.5 -16t36 -16.5t36.5 -21t29 -24t26 -31t14.5 -37t6.5 -46.5q0 -100 -65 -152.5t-178 -52.5q-111 0 -190 41q8 34 21 179l60 -8
q3 -75 16 -119q41 -39 118 -39q61 0 93.5 29t32.5 82q0 58 -37.5 89.5t-109.5 56.5q-77 27 -120.5 66t-43.5 114q0 88 61.5 134t147.5 46q98 0 166 -34zM429 724l-25 -27l-132 81l-131 -81l-25 27l124 122h61z" />
    <glyph glyph-name="scircumflex" unicode="&#x15d;" horiz-adv-x="402" 
d="M349 450q-24 13 -62.5 21.5t-66.5 8.5q-66 0 -117.5 -34.5t-51.5 -103.5q0 -28 9 -49.5t28 -36.5t35.5 -23.5t43.5 -19.5q3 -1 17 -6.5t17.5 -7t16 -7t16 -8t13.5 -8.5t13 -10t9.5 -10.5t8.5 -13t4 -15t2 -17.5q0 -37 -22 -57t-63 -20q-53 0 -88 26q-4 34 -6 84l-53 8
q-2 -88 -13 -135q57 -28 142 -28q83 0 131 40t48 115q0 33 -12 58t-34.5 42t-43 27.5t-50.5 22.5l-4.5 1.5t-4 1.5t-4.5 2q-28 12 -43 20t-27.5 23.5t-12.5 34.5q0 28 19.5 46t56.5 18q52 0 76 -22q11 -32 8 -75l39 -8h17q2 76 9 115zM98 534l-29 23l112 146h61l112 -146
l-29 -23l-114 89z" />
    <glyph glyph-name="Scedilla" unicode="&#x15e;" horiz-adv-x="501" 
d="M259 -10l-7 -38q8 -1 22 -6q64 -21 64 -72q0 -41 -28.5 -68t-72.5 -34q-29 0 -68 3l4 29q30 3 62 11q42 12 42 47q0 32 -39 43q-19 6 -31 7l-9 15l13 61q-105 3 -177 41q8 34 21 179l60 -8q3 -75 16 -119q41 -39 118 -39q61 0 93.5 29t32.5 82q0 58 -37.5 89.5
t-109.5 56.5q-77 27 -120.5 66t-43.5 114q0 88 61.5 134t147.5 46q98 0 166 -34q-9 -82 -6 -153h-18l-43 6q-2 60 -18 99q-32 32 -90 32q-54 0 -82.5 -25t-28.5 -65q0 -49 31.5 -79t94.5 -55q29 -12 39.5 -16t36 -16.5t36.5 -21t29 -24t26 -31t14.5 -37t6.5 -46.5
q0 -92 -55 -143.5t-153 -59.5z" />
    <glyph glyph-name="scedilla" unicode="&#x15f;" horiz-adv-x="402" 
d="M210 -10l-7 -38q8 -1 22 -6q64 -21 64 -72q0 -41 -28.5 -68t-72.5 -34q-29 0 -68 3l4 29q30 3 62 11q42 12 42 47q0 32 -39 43q-19 6 -31 7l-9 15l13 62q-73 3 -123 27q11 47 13 135l53 -8q2 -50 6 -84q35 -26 88 -26q41 0 63 20t22 57q0 9 -2 17.5t-4 15t-8.5 13
t-9.5 10.5t-13 10t-13.5 8.5t-16 8t-16 7t-17.5 7t-17 6.5q-27 11 -43.5 19.5t-35.5 23.5t-28 36.5t-9 49.5q0 69 51.5 103.5t117.5 34.5q28 0 66.5 -8.5t62.5 -21.5q-7 -39 -9 -115h-17l-39 8q3 43 -8 75q-24 22 -76 22q-37 0 -56.5 -18t-19.5 -46t20.5 -44t62.5 -34
q78 -32 103 -51q50 -39 50 -104q0 -68 -40 -107t-110 -46z" />
    <glyph glyph-name="Scaron" unicode="&#x160;" horiz-adv-x="501" 
d="M439 625q-68 34 -166 34q-86 0 -147.5 -46t-61.5 -134q0 -75 43.5 -114t120.5 -66q72 -25 109.5 -56.5t37.5 -89.5q0 -53 -32.5 -82t-93.5 -29q-77 0 -118 39q-13 44 -16 119l-60 8q-13 -145 -21 -179q79 -41 190 -41q113 0 178 52.5t65 152.5q0 25 -6.5 46.5t-14.5 37
t-26 31t-29 24t-36.5 21t-36 16.5t-39.5 16q-63 25 -94.5 55t-31.5 79q0 40 28.5 65t82.5 25q58 0 90 -32q16 -39 18 -99l43 -6h18q-3 71 6 153zM411 856l25 -27l-128 -122h-61l-124 122l25 27l131 -81z" />
    <glyph glyph-name="scaron" unicode="&#x161;" horiz-adv-x="402" 
d="M349 450q-24 13 -62.5 21.5t-66.5 8.5q-66 0 -117.5 -34.5t-51.5 -103.5q0 -28 9 -49.5t28 -36.5t35.5 -23.5t43.5 -19.5q3 -1 17 -6.5t17.5 -7t16 -7t16 -8t13.5 -8.5t13 -10t9.5 -10.5t8.5 -13t4 -15t2 -17.5q0 -37 -22 -57t-63 -20q-53 0 -88 26q-4 34 -6 84l-53 8
q-2 -88 -13 -135q57 -28 142 -28q83 0 131 40t48 115q0 33 -12 58t-34.5 42t-43 27.5t-50.5 22.5l-4.5 1.5t-4 1.5t-4.5 2q-28 12 -43 20t-27.5 23.5t-12.5 34.5q0 28 19.5 46t56.5 18q52 0 76 -22q11 -32 8 -75l39 -8h17q2 76 9 115zM328 703l29 -23l-112 -146h-61
l-112 146l29 23l114 -89z" />
    <glyph glyph-name="Tcommaaccent" unicode="&#x162;" horiz-adv-x="581" 
d="M234 595h-129q-7 -21 -15.5 -68.5t-9.5 -66.5l-43 -6h-18q5 115 -7 193h553q-12 -96 -8 -192h-19l-42 6q-1 21 -9 67.5t-15 66.5h-128q-6 -35 -10 -83v-367q2 -44 14 -83q41 -21 88 -29v-35q-82 2 -138 2q-62 0 -150 -2v38q57 10 82 25q10 34 14 108v342q-3 55 -10 84z
M228 -206q47 22 47 60q0 10 -14.5 25t-14.5 30q0 19 11.5 30t30.5 11q21 0 34.5 -15t13.5 -42q0 -39 -27 -71t-65 -53z" />
    <glyph glyph-name="tcommaaccent" unicode="&#x163;" horiz-adv-x="328" 
d="M311 79l17 -29q-46 -33 -86 -54q-23 -8 -54 -8q-53 0 -82 27t-29 79v323h-57v42q64 32 98 84l47 7q-6 -31 -8 -81q76 2 122 8q-4 -24 -7 -62h-115v-296q0 -71 73 -71q31 0 81 31zM126 -206q47 22 47 60q0 10 -14.5 25t-14.5 30q0 19 11.5 30t30.5 11q21 0 34.5 -15
t13.5 -42q0 -39 -27 -71t-65 -53z" />
    <glyph glyph-name="Tcaron" unicode="&#x164;" horiz-adv-x="581" 
d="M234 595h-129q-7 -21 -15.5 -68.5t-9.5 -66.5l-43 -6h-18q5 115 -7 193h553q-12 -96 -8 -192h-19l-42 6q-1 21 -9 67.5t-15 66.5h-128q-6 -35 -10 -83v-367q2 -44 14 -83q41 -21 88 -29v-35q-82 2 -138 2q-62 0 -150 -2v38q57 10 82 25q10 34 14 108v342q-3 55 -10 84z
M426 856l25 -27l-128 -122h-61l-124 122l25 27l131 -81z" />
    <glyph glyph-name="tcaron" unicode="&#x165;" horiz-adv-x="328" 
d="M328 50l-17 29q-50 -31 -81 -31q-73 0 -73 71v296h115q3 38 7 62q-46 -6 -122 -8q2 50 8 81l-47 -7q-34 -52 -98 -84v-42h57v-323q0 -52 29 -79t82 -27q31 0 54 8q40 21 86 54zM262 522h-37l-10 178q42 8 78 26l10 -12z" />
    <glyph glyph-name="Tbar" unicode="&#x166;" horiz-adv-x="581" 
d="M234 595h-129q-7 -21 -15.5 -68.5t-9.5 -66.5l-43 -6h-18q5 115 -7 193h553q-12 -96 -8 -192h-19l-42 6q-1 21 -9 67.5t-15 66.5h-128q-6 -35 -10 -83v-174h150v-57h-150v-136q2 -44 14 -83q41 -21 88 -29v-35q-82 2 -138 2q-62 0 -150 -2v38q57 10 82 25q10 34 14 108
v112h-143v57h143v173q-3 55 -10 84z" />
    <glyph glyph-name="tbar" unicode="&#x167;" horiz-adv-x="328" 
d="M311 79l17 -29q-46 -33 -86 -54q-23 -8 -54 -8q-53 0 -82 27t-29 79v140h-58v57h58v126h-57v42q64 32 98 84l47 7q-6 -31 -8 -81q76 2 122 8q-4 -24 -7 -62h-115v-124h118v-57h-118v-115q0 -71 73 -71q31 0 81 31z" />
    <glyph glyph-name="Utilde" unicode="&#x168;" horiz-adv-x="700" 
d="M531 513v-234q0 -59 -9 -110q-10 -63 -48 -92t-108 -29q-75 0 -111.5 30t-48.5 105q-8 50 -8 128v184q4 61 12 95q21 13 58 23v36q-66 -3 -136 -3q-52 0 -114 3v-36q43 -9 74 -29q12 -41 13 -70v-223q0 -92 12 -137q22 -88 79 -127t155 -39q107 0 164 47t73 150
q9 62 9 139v180q0 38 10 84q30 17 66 26v36q-66 -3 -120 -3q-43 0 -100 3v-36q36 -9 68 -28q7 -34 10 -73zM219 719l-25 12q25 42 47 68q19 23 54 23q25 0 83 -21t83 -21q31 0 50 39l26 -8q-11 -38 -30 -70q-15 -25 -52 -25q-31 0 -93 20t-85 20q-17 0 -29 -8t-29 -29z" />
    <glyph glyph-name="utilde" unicode="&#x169;" horiz-adv-x="538" 
d="M357 331v-237q-57 -45 -108 -45t-72 27t-21 82v256q2 26 10 55l-20 11q-52 -21 -133 -37l6 -27q28 -5 48 -18q8 -33 9 -67v-190q0 -75 37 -114t108 -39q37 0 66 12q25 19 73 55l7 -2q8 -22 11 -56q34 3 68 3q38 0 75 -3v34q-38 8 -69 26q-15 39 -15 83v274q2 26 10 55
l-19 11q-54 -22 -133 -37l6 -27q28 -5 49 -18q6 -30 7 -67zM127 569l-25 12q25 42 47 68q19 23 54 23q25 0 83 -21t83 -21q31 0 50 39l26 -8q-11 -38 -30 -70q-15 -25 -52 -25q-31 0 -93 20t-85 20q-17 0 -29 -8t-29 -29z" />
    <glyph glyph-name="Umacron" unicode="&#x16a;" horiz-adv-x="700" 
d="M531 513v-234q0 -59 -9 -110q-10 -63 -48 -92t-108 -29q-75 0 -111.5 30t-48.5 105q-8 50 -8 128v184q4 61 12 95q21 13 58 23v36q-66 -3 -136 -3q-52 0 -114 3v-36q43 -9 74 -29q12 -41 13 -70v-223q0 -92 12 -137q22 -88 79 -127t155 -39q107 0 164 47t73 150
q9 62 9 139v180q0 38 10 84q30 17 66 26v36q-66 -3 -120 -3q-43 0 -100 3v-36q36 -9 68 -28q7 -34 10 -73zM213 740v46h293l17 -15v-45h-292z" />
    <glyph glyph-name="umacron" unicode="&#x16b;" horiz-adv-x="538" 
d="M357 331v-237q-57 -45 -108 -45t-72 27t-21 82v256q2 26 10 55l-20 11q-52 -21 -133 -37l6 -27q28 -5 48 -18q8 -33 9 -67v-190q0 -75 37 -114t108 -39q37 0 66 12q25 19 73 55l7 -2q8 -22 11 -56q34 3 68 3q38 0 75 -3v34q-38 8 -69 26q-15 39 -15 83v274q2 26 10 55
l-19 11q-54 -22 -133 -37l6 -27q28 -5 49 -18q6 -30 7 -67zM99 590v53h293l17 -15v-52h-292z" />
    <glyph glyph-name="Ubreve" unicode="&#x16c;" horiz-adv-x="700" 
d="M531 513v-234q0 -59 -9 -110q-10 -63 -48 -92t-108 -29q-75 0 -111.5 30t-48.5 105q-8 50 -8 128v184q4 61 12 95q21 13 58 23v36q-66 -3 -136 -3q-52 0 -114 3v-36q43 -9 74 -29q12 -41 13 -70v-223q0 -92 12 -137q22 -88 79 -127t155 -39q107 0 164 47t73 150
q9 62 9 139v180q0 38 10 84q30 17 66 26v36q-66 -3 -120 -3q-43 0 -100 3v-36q36 -9 68 -28q7 -34 10 -73zM233 834l34 20q44 -79 115 -79q68 0 111 77l31 -18q-53 -128 -147 -128q-89 0 -144 128z" />
    <glyph glyph-name="ubreve" unicode="&#x16d;" horiz-adv-x="538" 
d="M357 331v-237q-57 -45 -108 -45t-72 27t-21 82v256q2 26 10 55l-20 11q-52 -21 -133 -37l6 -27q28 -5 48 -18q8 -33 9 -67v-190q0 -75 37 -114t108 -39q37 0 66 12q25 19 73 55l7 -2q8 -22 11 -56q34 3 68 3q38 0 75 -3v34q-38 8 -69 26q-15 39 -15 83v274q2 26 10 55
l-19 11q-54 -22 -133 -37l6 -27q28 -5 49 -18q6 -30 7 -67zM124 680l34 20q21 -41 51.5 -68t63.5 -27q61 0 111 93l31 -18q-26 -81 -66.5 -113.5t-80.5 -32.5q-46 0 -81.5 33.5t-62.5 112.5z" />
    <glyph glyph-name="Uring" unicode="&#x16e;" horiz-adv-x="700" 
d="M531 513v-234q0 -59 -9 -110q-10 -63 -48 -92t-108 -29q-75 0 -111.5 30t-48.5 105q-8 50 -8 128v184q4 61 12 95q21 13 58 23v36q-66 -3 -136 -3q-52 0 -114 3v-36q43 -9 74 -29q12 -41 13 -70v-223q0 -92 12 -137q22 -88 79 -127t155 -39q107 0 164 47t73 150
q9 62 9 139v180q0 38 10 84q30 17 66 26v36q-66 -3 -120 -3q-43 0 -100 3v-36q36 -9 68 -28q7 -34 10 -73zM315 772q0 -29 13.5 -47.5t41.5 -18.5q25 0 39 19.5t14 47.5q0 30 -14 48t-41 18q-25 0 -39 -19t-14 -48zM266 772q0 42 28 73t76 31q49 0 75.5 -28.5t26.5 -72.5
q0 -45 -27.5 -76t-76.5 -31q-51 0 -76.5 30t-25.5 74z" />
    <glyph glyph-name="uring" unicode="&#x16f;" horiz-adv-x="538" 
d="M357 331v-237q-57 -45 -108 -45t-72 27t-21 82v256q2 26 10 55l-20 11q-52 -21 -133 -37l6 -27q28 -5 48 -18q8 -33 9 -67v-190q0 -75 37 -114t108 -39q37 0 66 12q25 19 73 55l7 -2q8 -22 11 -56q34 3 68 3q38 0 75 -3v34q-38 8 -69 26q-15 39 -15 83v274q2 26 10 55
l-19 11q-54 -22 -133 -37l6 -27q28 -5 49 -18q6 -30 7 -67zM219 649q0 -29 13.5 -47.5t41.5 -18.5q25 0 39 19.5t14 47.5q0 30 -14 48t-41 18q-25 0 -39 -19t-14 -48zM170 649q0 42 28 73t76 31q49 0 75.5 -28.5t26.5 -72.5q0 -45 -27.5 -76t-76.5 -31q-51 0 -76.5 30
t-25.5 74z" />
    <glyph glyph-name="Uhungarumlaut" unicode="&#x170;" horiz-adv-x="700" 
d="M531 513v-234q0 -59 -9 -110q-10 -63 -48 -92t-108 -29q-75 0 -111.5 30t-48.5 105q-8 50 -8 128v184q4 61 12 95q21 13 58 23v36q-66 -3 -136 -3q-52 0 -114 3v-36q43 -9 74 -29q12 -41 13 -70v-223q0 -92 12 -137q22 -88 79 -127t155 -39q107 0 164 47t73 150
q9 62 9 139v180q0 38 10 84q30 17 66 26v36q-66 -3 -120 -3q-43 0 -100 3v-36q36 -9 68 -28q7 -34 10 -73zM262 694l-23 27l124 160q36 -24 73 -38l-2 -15zM427 694l-19 30l122 138q24 -21 67 -46l-3 -15z" />
    <glyph glyph-name="uhungarumlaut" unicode="&#x171;" horiz-adv-x="538" 
d="M357 331v-237q-57 -45 -108 -45t-72 27t-21 82v256q2 26 10 55l-20 11q-52 -21 -133 -37l6 -27q28 -5 48 -18q8 -33 9 -67v-190q0 -75 37 -114t108 -39q37 0 66 12q25 19 73 55l7 -2q8 -22 11 -56q34 3 68 3q38 0 75 -3v34q-38 8 -69 26q-15 39 -15 83v274q2 26 10 55
l-19 11q-54 -22 -133 -37l6 -27q28 -5 49 -18q6 -30 7 -67zM147 534l-29 23l110 157q39 -18 77 -27v-16zM297 534l-29 23l110 157q39 -18 77 -27v-16z" />
    <glyph glyph-name="Uogonek" unicode="&#x172;" horiz-adv-x="700" 
d="M467 4q-106 -70 -106 -138q0 -27 11.5 -48t36.5 -21q24 0 64 19l12 -29q-33 -20 -68 -38q-19 -10 -43 -10q-41 0 -66 30t-25 73q0 44 24 74q29 35 80 74q-24 -2 -36 -2q-98 0 -155 39t-79 127q-12 45 -12 137v223q-1 29 -13 70q-31 20 -74 29v36q61 -3 114 -3q70 0 136 3
v-36q-37 -10 -58 -23q-8 -34 -12 -95v-184q0 -78 8 -128q12 -75 48.5 -105t111.5 -30q70 0 108 29t48 92q9 51 9 110v234q-3 39 -10 73q-32 19 -68 28v36q57 -3 100 -3q54 0 120 3v-36q-36 -9 -66 -26q-10 -46 -10 -84v-180q0 -77 -9 -139q-10 -68 -39 -107t-82 -74z" />
    <glyph glyph-name="uogonek" unicode="&#x173;" horiz-adv-x="538" 
d="M357 94v237q-1 37 -7 67q-21 13 -49 18l-6 27q79 15 133 37l19 -11q-8 -29 -10 -55v-274q0 -44 15 -83q31 -18 69 -26v-34q-111 -66 -111 -141q0 -59 48 -59q24 0 64 19l12 -29q-33 -20 -68 -38q-19 -10 -43 -10q-41 0 -66 27.5t-25 69.5q0 51 24 77q34 36 104 87h-14
q-34 0 -68 -3q-3 34 -11 56l-7 2l-73 -55q-29 -12 -66 -12q-71 0 -108 39t-37 114v190q-1 34 -9 67q-20 13 -48 18l-6 27q81 16 133 37l20 -11q-8 -29 -10 -55v-256q0 -55 21 -82t72 -27q23 0 50 11.5t43 22.5z" />
    <glyph glyph-name="Wcircumflex" unicode="&#x174;" horiz-adv-x="921" 
d="M510 583l146 -455h13l113 456l-3 8q-29 13 -68 22v36q62 -3 109 -3q48 0 96 3v-36q-41 -11 -65 -26l-163 -600h-79l-146 439l-151 -439h-67l-167 595q-31 18 -73 31v36q66 -3 121 -3q60 0 121 3v-36q-42 -7 -74 -22l-1 -9l121 -450h11l129 377l-30 86q-13 7 -58 16v37
q86 -2 126 -2q68 0 112 2v-40q-43 -2 -68 -13zM618 724l-25 -27l-132 81l-131 -81l-25 27l124 122h61z" />
    <glyph glyph-name="wcircumflex" unicode="&#x175;" horiz-adv-x="711" 
d="M592 424l3 -10l-81 -312h-8l-103 309l3 11q19 8 52 8v39h-189v-39q25 -3 39 -11l20 -53l-86 -264h-8l-93 309l4 11q19 8 56 8v39h-194v-39q27 -3 39 -11l140 -431h64l106 303l106 -303h64l135 424q13 13 43 23v34h-173v-39q47 0 61 -6zM252 534l-29 23l112 146h61
l112 -146l-29 -23l-114 89z" />
    <glyph glyph-name="Ycircumflex" unicode="&#x176;" horiz-adv-x="575" 
d="M245 167v88l-167 328q-31 18 -73 31v36q66 -3 121 -3q62 0 124 3v-36q-40 -7 -73 -22l-2 -9l124 -259h6l132 259l-4 9q-25 12 -67 22v36q60 -3 108 -3t96 3v-36q-38 -11 -64 -26l-172 -323v-130q3 -39 14 -73q31 -20 73 -29v-35q-80 2 -123 2q-47 0 -135 -2v37
q46 10 67 23q11 39 15 109zM459 724l-25 -27l-132 81l-131 -81l-25 27l124 122h61z" />
    <glyph glyph-name="ycircumflex" unicode="&#x177;" horiz-adv-x="479" 
d="M359 424l3 -10l-107 -315h-7l-107 312l4 11q19 8 56 8v39h-194v-39q27 -3 39 -11l160 -431q-30 -105 -112 -105q-22 0 -46 9l-10 -8l15 -79q7 -1 20 -1q71 0 114 48t78 139l163 421q16 14 43 23v34h-173v-39q49 0 61 -6zM136 534l-29 23l112 146h61l112 -146l-29 -23
l-114 89z" />
    <glyph glyph-name="Ydieresis" unicode="&#x178;" horiz-adv-x="575" 
d="M245 167v88l-167 328q-31 18 -73 31v36q66 -3 121 -3q62 0 124 3v-36q-40 -7 -73 -22l-2 -9l124 -259h6l132 259l-4 9q-25 12 -67 22v36q60 -3 108 -3t96 3v-36q-38 -11 -64 -26l-172 -323v-130q3 -39 14 -73q31 -20 73 -29v-35q-80 2 -123 2q-47 0 -135 -2v37
q46 10 67 23q11 39 15 109zM348 758q0 22 15.5 37.5t36.5 15.5q22 0 37.5 -15.5t15.5 -37.5q0 -21 -15.5 -36.5t-37.5 -15.5q-21 0 -36.5 15.5t-15.5 36.5zM149 758q0 22 15.5 37.5t36.5 15.5q22 0 37.5 -15.5t15.5 -37.5q0 -21 -15.5 -36.5t-37.5 -15.5q-21 0 -36.5 15.5
t-15.5 36.5z" />
    <glyph glyph-name="Zacute" unicode="&#x179;" horiz-adv-x="566" 
d="M418 598h-283q-18 -50 -25 -132l-46 -7h-18q2 30 1.5 86t-3.5 87l15 15h470v-46l-386 -550h291q38 77 60 158l57 -8q-21 -106 -27 -201h-490v49zM238 696l-19 30l150 122q30 -26 66 -46l-4 -15z" />
    <glyph glyph-name="zacute" unicode="&#x17a;" horiz-adv-x="450" 
d="M98 322l-38 -7h-18q5 47 7 138l14 16h337v-46l-259 -372h189q26 64 39 122l48 -8q-16 -105 -18 -165h-360v44l258 373h-176q-16 -42 -23 -95zM209 534l-33 25l109 164q34 -15 90 -24v-21z" />
    <glyph glyph-name="Zdotaccent" unicode="&#x17b;" horiz-adv-x="566" 
d="M418 598h-283q-18 -50 -25 -132l-46 -7h-18q2 30 1.5 86t-3.5 87l15 15h470v-46l-386 -550h291q38 77 60 158l57 -8q-21 -106 -27 -201h-490v49zM238 758q0 22 16.5 39t38.5 17q23 0 39.5 -17t16.5 -39t-17 -38.5t-39 -16.5t-38.5 16.5t-16.5 38.5z" />
    <glyph glyph-name="zdotaccent" unicode="&#x17c;" horiz-adv-x="450" 
d="M98 322l-38 -7h-18q5 47 7 138l14 16h337v-46l-259 -372h189q26 64 39 122l48 -8q-16 -105 -18 -165h-360v44l258 373h-176q-16 -42 -23 -95zM175 615q0 22 16.5 39t38.5 17t39 -16.5t17 -39.5q0 -22 -17 -38.5t-39 -16.5t-38.5 16.5t-16.5 38.5z" />
    <glyph glyph-name="Zcaron" unicode="&#x17d;" horiz-adv-x="566" 
d="M418 598h-283q-18 -50 -25 -132l-46 -7h-18q2 30 1.5 86t-3.5 87l15 15h470v-46l-386 -550h291q38 77 60 158l57 -8q-21 -106 -27 -201h-490v49zM428 856l25 -27l-128 -122h-61l-124 122l25 27l131 -81z" />
    <glyph glyph-name="zcaron" unicode="&#x17e;" horiz-adv-x="450" 
d="M98 322l-38 -7h-18q5 47 7 138l14 16h337v-46l-259 -372h189q26 64 39 122l48 -8q-16 -105 -18 -165h-360v44l258 373h-176q-16 -42 -23 -95zM352 703l29 -23l-112 -146h-61l-112 146l29 23l114 -89z" />
    <glyph glyph-name="longs" unicode="&#x17f;" horiz-adv-x="333" 
d="M171 111q1 -25 10 -52q36 -18 98 -28v-34q-62 3 -127 3q-56 0 -115 -3v33q31 8 42 18q10 45 12 82v285h-58v40q36 4 64 13q2 70 16 106q21 52 68 81t105 29q46 0 101 -30l-42 -79h-19q-36 58 -85 58q-12 0 -21 -3t-19.5 -12.5t-17.5 -30.5t-10 -53q-2 -22 -2 -45v-378z
" />
    <glyph glyph-name="florin" unicode="&#x192;" horiz-adv-x="486" 
d="M267 351l-64 -300q-14 -64 -40 -107q-64 -104 -185 -104q-61 0 -109 30l59 79h19q22 -58 72 -58q17 0 29.5 5t29.5 28.5t30 65.5q8 29 15 61l64 300h-84l11 46q9 1 30 2.5t37.5 3t23.5 3.5q15 69 40 110q64 104 185 104q56 0 104 -30l-59 -79h-19q-22 58 -72 58
q-17 0 -29.5 -5t-29.5 -28.5t-30 -65.5q-7 -21 -16 -64q101 0 149 5q-10 -19 -23 -60h-138z" />
    <glyph glyph-name="Scommaaccent" unicode="&#x218;" horiz-adv-x="501" 
d="M439 625q-9 -82 -6 -153h-18l-43 6q-2 60 -18 99q-32 32 -90 32q-54 0 -82.5 -25t-28.5 -65q0 -49 31.5 -79t94.5 -55q29 -12 39.5 -16t36 -16.5t36.5 -21t29 -24t26 -31t14.5 -37t6.5 -46.5q0 -100 -65 -152.5t-178 -52.5q-111 0 -190 41q8 34 21 179l60 -8
q3 -75 16 -119q41 -39 118 -39q61 0 93.5 29t32.5 82q0 58 -37.5 89.5t-109.5 56.5q-77 27 -120.5 66t-43.5 114q0 88 61.5 134t147.5 46q98 0 166 -34zM194 -206q47 22 47 60q0 10 -14.5 25t-14.5 30q0 19 11.5 30t30.5 11q21 0 34.5 -15t13.5 -42q0 -39 -27 -71t-65 -53z
" />
    <glyph glyph-name="scommaaccent" unicode="&#x219;" horiz-adv-x="402" 
d="M349 450q-7 -39 -9 -115h-17l-39 8q3 43 -8 75q-24 22 -76 22q-37 0 -56.5 -18t-19.5 -46t20.5 -44t62.5 -34q78 -32 103 -51q50 -39 50 -104q0 -75 -48 -115t-131 -40q-85 0 -142 28q11 47 13 135l53 -8q2 -50 6 -84q35 -26 88 -26q41 0 63 20t22 57q0 9 -2 17.5t-4 15
t-8.5 13t-9.5 10.5t-13 10t-13.5 8.5t-16 8t-16 7t-17.5 7t-17 6.5q-27 11 -43.5 19.5t-35.5 23.5t-28 36.5t-9 49.5q0 69 51.5 103.5t117.5 34.5q28 0 66.5 -8.5t62.5 -21.5zM143 -206q47 22 47 60q0 10 -14.5 25t-14.5 30q0 19 11.5 30t30.5 11q21 0 34.5 -15t13.5 -42
q0 -39 -27 -71t-65 -53z" />
    <glyph glyph-name="uni021A" unicode="&#x21a;" horiz-adv-x="581" 
d="M234 595h-129q-7 -21 -15.5 -68.5t-9.5 -66.5l-43 -6h-18q5 115 -7 193h553q-12 -96 -8 -192h-19l-42 6q-1 21 -9 67.5t-15 66.5h-128q-6 -35 -10 -83v-367q2 -44 14 -83q41 -21 88 -29v-35q-82 2 -138 2q-62 0 -150 -2v38q57 10 82 25q10 34 14 108v342q-3 55 -10 84z
M268 -206q47 22 47 60q0 10 -14.5 25t-14.5 30q0 19 11.5 30t30.5 11q21 0 34.5 -15t13.5 -42q0 -39 -27 -71t-65 -53z" />
    <glyph glyph-name="uni021B" unicode="&#x21b;" horiz-adv-x="328" 
d="M311 79l17 -29q-46 -33 -86 -54q-23 -8 -54 -8q-53 0 -82 27t-29 79v323h-57v42q64 32 98 84l47 7q-6 -31 -8 -81q76 2 122 8q-4 -24 -7 -62h-115v-296q0 -71 73 -71q31 0 81 31zM142 -206q47 22 47 60q0 10 -14.5 25t-14.5 30q0 19 11.5 30t30.5 11q21 0 34.5 -15
t13.5 -42q0 -39 -27 -71t-65 -53z" />
    <glyph glyph-name="dotlessj" unicode="&#x237;" horiz-adv-x="235" 
d="M84 55v265q-2 48 -8 75q-19 13 -55 20l-5 28q85 15 141 37l20 -10q-13 -41 -13 -95v-297q0 -96 -5 -152q-13 -13 -62.5 -66t-59.5 -64l-25 22q72 109 72 237z" />
    <glyph glyph-name="apostrophe" unicode="&#x2bc;" horiz-adv-x="218" 
d="M29 508q47 22 47 60q0 10 -14.5 25t-14.5 30q0 19 11.5 30t30.5 11q21 0 34.5 -15t13.5 -42q0 -39 -27 -71t-65 -53z" />
    <glyph glyph-name="circumflex" unicode="&#x2c6;" horiz-adv-x="500" 
d="M147 534l-29 23l112 146h61l112 -146l-29 -23l-114 89z" />
    <glyph glyph-name="caron" unicode="&#x2c7;" horiz-adv-x="500" 
d="M377 703l29 -23l-112 -146h-61l-112 146l29 23l114 -89z" />
    <glyph glyph-name="uni02C9" unicode="&#x2c9;" horiz-adv-x="500" 
d="M93 590v53h293l17 -15v-52h-292z" />
    <glyph glyph-name="breve" unicode="&#x2d8;" horiz-adv-x="388" 
d="M49 680l34 20q21 -41 51.5 -68t63.5 -27q61 0 111 93l31 -18q-26 -81 -66.5 -113.5t-80.5 -32.5q-46 0 -81.5 33.5t-62.5 112.5z" />
    <glyph glyph-name="dotaccent" unicode="&#x2d9;" horiz-adv-x="500" 
d="M196 615q0 22 16.5 39t38.5 17q23 0 39.5 -16.5t16.5 -39.5q0 -22 -17 -38.5t-39 -16.5t-38.5 16.5t-16.5 38.5z" />
    <glyph glyph-name="ring" unicode="&#x2da;" horiz-adv-x="500" 
d="M200 649q0 -29 13.5 -47.5t41.5 -18.5q25 0 39 19.5t14 47.5q0 30 -14 48t-41 18q-25 0 -39 -19t-14 -48zM151 649q0 42 28 73t76 31q49 0 75.5 -28.5t26.5 -72.5q0 -45 -27.5 -76t-76.5 -31q-51 0 -76.5 30t-25.5 74z" />
    <glyph glyph-name="ogonek" unicode="&#x2db;" horiz-adv-x="833" 
d="M312 28l20 -23q-30 -22 -47 -37t-35.5 -44t-18.5 -58q0 -27 11.5 -48t36.5 -21q24 0 64 19l12 -29q-33 -20 -68 -38q-19 -10 -43 -10q-41 0 -66 30t-25 73q0 44 24 74q51 60 135 112z" />
    <glyph glyph-name="tilde" unicode="&#x2dc;" horiz-adv-x="444" 
d="M80 569l-25 12q25 42 47 68q19 23 54 23q26 0 83 -21t83 -21q31 0 50 39l26 -8q-11 -38 -30 -70q-15 -25 -52 -25q-31 0 -93 20t-85 20q-17 0 -29 -8t-29 -29z" />
    <glyph glyph-name="hungarumlaut" unicode="&#x2dd;" horiz-adv-x="500" 
d="M117 534l-29 23l110 157q39 -18 77 -27v-16zM267 534l-29 23l110 157q39 -18 77 -27v-16z" />
    <glyph glyph-name="uni0394" unicode="&#x394;" horiz-adv-x="592" 
d="M574 0h-566l255 637h89zM97 58h360l-166 500z" />
    <glyph glyph-name="uni03A9" unicode="&#x3a9;" horiz-adv-x="733" 
d="M696 0h-285v52q75 45 119.5 113t44.5 143q0 121 -52.5 198t-148.5 77t-145 -75.5t-49 -176.5q0 -169 157 -279v-52h-290q-1 59 -21 153l53 7q11 -52 42 -106h135q-67 37 -119.5 109t-52.5 172q0 54 17.5 105.5t51.5 95.5t93 71t134 27q138 0 212 -84t74 -202
q0 -100 -51 -174.5t-126 -121.5h131q34 59 44 108l53 -7q-20 -94 -21 -153z" />
    <glyph glyph-name="uni03BC" unicode="&#x3bc;" horiz-adv-x="528" 
d="M357 94v237q-4 112 -9 138l80 11l19 -11q-6 -23 -10 -79v-270q0 -38 10.5 -51.5t43.5 -13.5q13 0 30 3l7 -27q-90 -41 -107 -41t-30 10q-8 12 -24 53l-7 2l-73 -55q-29 -12 -66 -12q-60 0 -95 45q18 -192 103 -224v-32l-116 -28q-16 38 -26.5 178.5t-10.5 215.5v188
q0 92 -11 138l81 11l20 -11q-10 -38 -10 -85v-226q0 -55 21 -82t72 -27q23 0 50 11.5t43 22.5z" />
    <glyph glyph-name="pi" unicode="&#x3c0;" horiz-adv-x="549" 
d="M538 27l-73 -35q-19 -6 -39 -6q-78 0 -78 113q0 107 19 280h-140q-2 -88 -10 -212t-16 -167h-121l1 29q26 15 39.5 33.5t21.5 55.5q22 105 31 262h-45q-29 0 -42 -9.5t-26 -37.5l-28 5l30 116q22 3 82 3h269q90 0 112 15l13 -11l-35 -82h-86q-3 -54 -3 -154
q0 -45 2 -73.5t13 -59.5t32 -37q25 -8 69 -1z" />
    <glyph glyph-name="Omega" unicode="&#x3d6;" horiz-adv-x="733" 
d="M696 0h-285v52q75 45 119.5 113t44.5 143q0 121 -52.5 198t-148.5 77t-145 -75.5t-49 -176.5q0 -169 157 -279v-52h-290q-1 59 -21 153l53 7q11 -52 42 -106h135q-67 37 -119.5 109t-52.5 172q0 54 17.5 105.5t51.5 95.5t93 71t134 27q138 0 212 -84t74 -202
q0 -100 -51 -174.5t-126 -121.5h131q34 59 44 108l53 -7q-20 -94 -21 -153z" />
    <glyph glyph-name="Omega" unicode="&#x2126;" horiz-adv-x="733" 
d="M696 0h-285v52q75 45 119.5 113t44.5 143q0 121 -52.5 198t-148.5 77t-145 -75.5t-49 -176.5q0 -169 157 -279v-52h-290q-1 59 -21 153l53 7q11 -52 42 -106h135q-67 37 -119.5 109t-52.5 172q0 54 17.5 105.5t51.5 95.5t93 71t134 27q138 0 212 -84t74 -202
q0 -100 -51 -174.5t-126 -121.5h131q34 59 44 108l53 -7q-20 -94 -21 -153z" />
    <glyph glyph-name="Wgrave" unicode="&#x1e80;" horiz-adv-x="921" 
d="M510 583l146 -455h13l113 456l-3 8q-29 13 -68 22v36q62 -3 109 -3q48 0 96 3v-36q-41 -11 -65 -26l-163 -600h-79l-146 439l-151 -439h-67l-167 595q-31 18 -73 31v36q66 -3 121 -3q60 0 121 3v-36q-42 -7 -74 -22l-1 -9l121 -450h11l129 377l-30 86q-13 7 -58 16v37
q86 -2 126 -2q68 0 112 2v-40q-43 -2 -68 -13zM557 726l-19 -30l-193 91l-4 15q36 20 66 46z" />
    <glyph glyph-name="wgrave" unicode="&#x1e81;" horiz-adv-x="711" 
d="M595 414l-3 10q-14 6 -61 6v39h173v-34q-30 -10 -43 -23l-135 -424h-64l-106 303l-106 -303h-64l-140 431q-12 8 -39 11v39h194v-39q-37 0 -56 -8l-4 -11l93 -309h8l86 264l-20 53q-14 8 -39 11v39h189v-39q-33 0 -52 -8l-3 -11l103 -309h8zM450 559l-33 -25l-166 144v21
q56 9 90 24z" />
    <glyph glyph-name="Wacute" unicode="&#x1e82;" horiz-adv-x="921" 
d="M656 128l-146 455l5 13q25 11 68 13v40q-44 -2 -112 -2q-40 0 -126 2v-37q45 -9 58 -16l30 -86l-129 -377h-11l-121 450l1 9q32 15 74 22v36q-62 -3 -121 -3q-55 0 -121 3v-36q42 -13 73 -31l167 -595h67l151 439l146 -439h79l163 600q24 15 65 26v36q-48 -3 -96 -3
q-47 0 -109 3v-36q39 -9 68 -22l3 -8l-113 -456h-13zM387 696l-19 30l150 122q30 -26 66 -46l-4 -15z" />
    <glyph glyph-name="wacute" unicode="&#x1e83;" horiz-adv-x="711" 
d="M592 424l3 -10l-81 -312h-8l-103 309l3 11q19 8 52 8v39h-189v-39q25 -3 39 -11l20 -53l-86 -264h-8l-93 309l4 11q19 8 56 8v39h-194v-39q27 -3 39 -11l140 -431h64l106 303l106 -303h64l135 424q13 13 43 23v34h-173v-39q47 0 61 -6zM308 534l-33 25l109 164
q34 -15 90 -24v-21z" />
    <glyph glyph-name="Wdieresis" unicode="&#x1e84;" horiz-adv-x="921" 
d="M656 128l-146 455l5 13q25 11 68 13v40q-44 -2 -112 -2q-40 0 -126 2v-37q45 -9 58 -16l30 -86l-129 -377h-11l-121 450l1 9q32 15 74 22v36q-62 -3 -121 -3q-55 0 -121 3v-36q42 -13 73 -31l167 -595h67l151 439l146 -439h79l163 600q24 15 65 26v36q-48 -3 -96 -3
q-47 0 -109 3v-36q39 -9 68 -22l3 -8l-113 -456h-13zM504 758q0 22 15.5 37.5t36.5 15.5q22 0 37.5 -15.5t15.5 -37.5q0 -21 -15.5 -36.5t-37.5 -15.5q-21 0 -36.5 15.5t-15.5 36.5zM305 758q0 22 15.5 37.5t36.5 15.5q22 0 37.5 -15.5t15.5 -37.5q0 -21 -15.5 -36.5
t-37.5 -15.5q-21 0 -36.5 15.5t-15.5 36.5z" />
    <glyph glyph-name="wdieresis" unicode="&#x1e85;" horiz-adv-x="711" 
d="M592 424l3 -10l-81 -312h-8l-103 309l3 11q19 8 52 8v39h-189v-39q25 -3 39 -11l20 -53l-86 -264h-8l-93 309l4 11q19 8 56 8v39h-194v-39q27 -3 39 -11l140 -431h64l106 303l106 -303h64l135 424q13 13 43 23v34h-173v-39q47 0 61 -6zM399 615q0 22 15.5 37.5t36.5 15.5
q22 0 37.5 -15.5t15.5 -37.5q0 -21 -15.5 -36.5t-37.5 -15.5q-21 0 -36.5 15.5t-15.5 36.5zM200 615q0 22 15.5 37.5t36.5 15.5q22 0 37.5 -15.5t15.5 -37.5q0 -21 -15.5 -36.5t-37.5 -15.5q-21 0 -36.5 15.5t-15.5 36.5z" />
    <glyph glyph-name="Ygrave" unicode="&#x1ef2;" horiz-adv-x="575" 
d="M245 167v88l-167 328q-31 18 -73 31v36q66 -3 121 -3q62 0 124 3v-36q-40 -7 -73 -22l-2 -9l124 -259h6l132 259l-4 9q-25 12 -67 22v36q60 -3 108 -3t96 3v-36q-38 -11 -64 -26l-172 -323v-130q3 -39 14 -73q31 -20 73 -29v-35q-80 2 -123 2q-47 0 -135 -2v37
q46 10 67 23q11 39 15 109zM384 726l-19 -30l-193 91l-4 15q36 20 66 46z" />
    <glyph glyph-name="ygrave" unicode="&#x1ef3;" horiz-adv-x="479" 
d="M362 414l-3 10q-12 6 -61 6v39h173v-34q-27 -9 -43 -23l-163 -421q-35 -91 -78 -139t-114 -48q-13 0 -20 1l-15 79l10 8q24 -9 46 -9q82 0 112 105l-160 431q-12 8 -39 11v39h194v-39q-37 0 -56 -8l-4 -11l107 -312h7zM334 559l-33 -25l-166 144v21q56 9 90 24z" />
    <glyph glyph-name="endash" unicode="&#x2013;" horiz-adv-x="500" 
d="M0 265v66h500v-66h-500z" />
    <glyph glyph-name="emdash" unicode="&#x2014;" horiz-adv-x="1000" 
d="M0 265v66h1000v-66h-1000z" />
    <glyph glyph-name="quoteleft" unicode="&#x2018;" horiz-adv-x="228" 
d="M178 633q-59 -31 -59 -76q0 -12 18.5 -31t18.5 -39q0 -24 -15 -37.5t-39 -13.5q-26 0 -43 19t-17 53q0 49 34 89.5t82 65.5z" />
    <glyph glyph-name="quoteright" unicode="&#x2019;" horiz-adv-x="218" 
d="M41 467q59 31 59 76q0 12 -18.5 31t-18.5 39q0 24 15 37.5t39 13.5q26 0 43 -19t17 -53q0 -49 -34 -89.5t-82 -65.5z" />
    <glyph glyph-name="quotesinglbase" unicode="&#x201a;" horiz-adv-x="240" 
d="M50 -94q58 32 58 78q0 12 -19 31.5t-19 39.5q0 24 16.5 38t41.5 14q27 0 44.5 -19t17.5 -54q0 -50 -35 -91.5t-84 -66.5z" />
    <glyph glyph-name="quotedblleft" unicode="&#x201c;" horiz-adv-x="391" 
d="M178 633q-59 -31 -59 -76q0 -12 18.5 -31t18.5 -39q0 -24 -15 -37.5t-39 -13.5q-26 0 -43 19t-17 53q0 49 34 89.5t82 65.5zM341 633q-59 -31 -59 -76q0 -12 18.5 -31t18.5 -39q0 -24 -15 -37.5t-39 -13.5q-26 0 -43 19t-17 53q0 49 34 89.5t82 65.5z" />
    <glyph glyph-name="quotedblright" unicode="&#x201d;" horiz-adv-x="381" 
d="M41 467q59 31 59 76q0 12 -18.5 31t-18.5 39q0 24 15 37.5t39 13.5q26 0 43 -19t17 -53q0 -49 -34 -89.5t-82 -65.5zM204 467q59 31 59 76q0 12 -18.5 31t-18.5 39q0 24 15 37.5t39 13.5q26 0 43 -19t17 -53q0 -49 -34 -89.5t-82 -65.5z" />
    <glyph glyph-name="quotedblbase" unicode="&#x201e;" horiz-adv-x="403" 
d="M50 -94q58 32 58 78q0 12 -19 31.5t-19 39.5q0 24 16.5 38t41.5 14q27 0 44.5 -19t17.5 -54q0 -50 -35 -91.5t-84 -66.5zM213 -94q58 32 58 78q0 12 -19 31.5t-19 39.5q0 24 16.5 38t41.5 14q27 0 44.5 -19t17.5 -54q0 -50 -35 -91.5t-84 -66.5z" />
    <glyph glyph-name="dagger" unicode="&#x2020;" horiz-adv-x="446" 
d="M175 -153l19 560l-129 -25q-24 -5 -37 8.5t-13 36.5q0 25 12.5 37.5t36.5 8.5l134 -22l-26 163q-4 24 10.5 37t37.5 13q24 0 36.5 -13t9.5 -37l-22 -162l138 21q24 4 37 -8.5t13 -37.5q0 -23 -13 -36t-38 -9l-134 25l20 -560h-92z" />
    <glyph glyph-name="daggerdbl" unicode="&#x2021;" horiz-adv-x="476" 
d="M185 254l23 153l-128 -25q-24 -5 -37.5 8.5t-13.5 36.5q0 24 13 37t37 9l133 -22l-25 163q-4 24 10.5 37t37.5 13q24 0 37 -13t9 -37l-23 -162l138 21q24 4 37 -8.5t13 -37.5q0 -23 -12.5 -36t-37.5 -9l-135 25l25 -153l-25 -150l135 25q25 4 37.5 -9.5t12.5 -36.5
q0 -25 -13 -37t-37 -8l-138 21l23 -163q6 -49 -46 -49q-23 0 -37.5 12.5t-10.5 37.5l25 163l-133 -22q-24 -4 -37 8.5t-13 36.5q0 23 13.5 37t37.5 9l128 -25z" />
    <glyph glyph-name="bullet" unicode="&#x2022;" horiz-adv-x="349" 
d="M44 316q0 52 34.5 88t92.5 36q63 0 98.5 -34.5t35.5 -88.5t-34.5 -91.5t-94.5 -37.5q-64 0 -98 36.5t-34 91.5z" />
    <glyph glyph-name="ellipsis" unicode="&#x2026;" horiz-adv-x="658" 
d="M59 50q0 25 16.5 41.5t43.5 16.5q29 0 45.5 -16t16.5 -41t-15.5 -41.5t-44.5 -16.5q-30 0 -46 16t-16 41zM275 50q0 25 17 41.5t44 16.5q29 0 45.5 -16t16.5 -41t-15.5 -41.5t-44.5 -16.5q-30 0 -46.5 16t-16.5 41zM490 50q0 25 16.5 41.5t44.5 16.5q29 0 45.5 -16
t16.5 -41t-16 -41.5t-45 -16.5q-30 0 -46 16t-16 41z" />
    <glyph glyph-name="perthousand" unicode="&#x2030;" horiz-adv-x="1100" 
d="M1020 159q0 -77 -39 -126.5t-106 -49.5q-70 0 -104 47.5t-34 116.5q0 75 39 123t107 48t102.5 -43t34.5 -116zM942 155q0 26 -2 44.5t-7.5 38.5t-18.5 30.5t-33 10.5q-66 0 -66 -127q0 -128 64 -128q38 0 50.5 35t12.5 96zM696 159q0 -77 -39 -126.5t-106 -49.5
q-70 0 -104 47.5t-34 116.5q0 75 40 123t106 48q68 0 102.5 -43t34.5 -116zM618 155q0 26 -2 44.5t-7.5 38.5t-18.5 30.5t-33 10.5q-66 0 -66 -127q0 -128 64 -128q38 0 50.5 35t12.5 96zM152 -17l377 638h75l-376 -638h-76zM350 463q0 -77 -39 -126.5t-106 -49.5
q-70 0 -104 47.5t-34 116.5q0 75 39 123t107 48t102.5 -43t34.5 -116zM272 459q0 26 -2 44.5t-7.5 38.5t-18.5 30.5t-33 10.5q-66 0 -66 -127q0 -128 64 -128q38 0 50.5 35t12.5 96z" />
    <glyph glyph-name="guilsinglleft" unicode="&#x2039;" horiz-adv-x="278" 
d="M39 259l161 161l29 -24l-93 -153l85 -162l-32 -21l-150 174v25z" />
    <glyph glyph-name="guilsinglright" unicode="&#x203a;" horiz-adv-x="278" 
d="M68 420l161 -161v-25l-150 -174l-32 21l85 162l-93 153z" />
    <glyph glyph-name="fraction" unicode="&#x2044;" horiz-adv-x="454" 
d="M6 -17l313 648h63l-312 -648h-64z" />
    <glyph glyph-name="zerosuperior" unicode="&#x2070;" horiz-adv-x="375" 
d="M186 697q-81 0 -81 -159q0 -36 2.5 -62.5t10.5 -53.5t25 -41t43 -14q85 0 85 161q0 87 -18 128t-67 41zM23 531q0 93 48 149.5t120 56.5q77 0 119 -57t42 -145q0 -101 -49 -153.5t-117 -52.5q-69 0 -116 51.5t-47 150.5z" />
    <glyph glyph-name="foursuperior" unicode="&#x2074;" horiz-adv-x="375" 
d="M279 738l4 -9v-244h65v-48h-65q1 -25 9 -47q18 -12 46 -19v-31q-56 2 -100 2q-18 0 -60.5 -2t-46.5 -2v32q59 11 72 21q4 15 7 46h-167l-16 47l181 240zM210 486v82q0 59 7 91l-3 3l-131 -176h127z" />
    <glyph glyph-name="fivesuperior" unicode="&#x2075;" horiz-adv-x="375" 
d="M241 463q0 35 -19 53.5t-65 18.5q-35 0 -85 -21l-7 6l14 203h236l-2 -41l-16 -13h-162l-13 -97l4 -4q39 12 75 12q56 0 91 -28.5t35 -80.5q0 -63 -47.5 -102.5t-125.5 -39.5q-50 0 -106 14q7 34 10 101l46 -6q-2 -40 8 -65q19 -6 43 -6q86 0 86 96z" />
    <glyph glyph-name="sixsuperior" unicode="&#x2076;" horiz-adv-x="375" 
d="M282 751l12 -28q-80 -27 -116.5 -66t-53.5 -101l2 -3q43 35 92 35q55 0 85 -33t30 -83q0 -64 -42.5 -103.5t-108.5 -39.5q-68 0 -104.5 41t-36.5 113q0 88 59 162.5t182 105.5zM190 366q67 0 67 101q0 34 -16 57t-49 23q-42 0 -70 -26q-1 -12 -1 -28q0 -127 69 -127z" />
    <glyph glyph-name="sevensuperior" unicode="&#x2077;" horiz-adv-x="375" 
d="M214 669h-112q-5 -15 -10 -61l-33 -3h-8q-6 80 -14 118h301v-29q-123 -157 -147 -302q0 -33 10 -49l-96 -11l-9 10q12 71 59.5 159.5t116.5 167.5l-3 3q-13 -3 -55 -3z" />
    <glyph glyph-name="eightsuperior" unicode="&#x2078;" horiz-adv-x="375" 
d="M192 737q55 0 91.5 -27t36.5 -70q0 -54 -69 -93v-1q47 -23 65.5 -44.5t18.5 -57.5q0 -45 -41 -80t-111 -35q-68 0 -106 28.5t-38 76.5q0 61 80 98v1q-34 19 -48 41t-14 56q0 47 40.5 77t94.5 30zM255 637q0 25 -16 44t-52 19q-29 0 -47 -16.5t-18 -39.5t16 -39.5
t75 -40.5q42 27 42 73zM192 369q36 0 54 18t18 40q0 24 -21 43.5t-88 45.5q-46 -30 -46 -75q0 -72 83 -72z" />
    <glyph glyph-name="ninesuperior" unicode="&#x2079;" horiz-adv-x="375" 
d="M98 314l-13 29q84 28 121 65.5t48 92.5l-2 3q-38 -30 -96 -30q-55 0 -87.5 35t-32.5 85q0 63 45 103t111 40q68 0 107 -41.5t39 -112.5q0 -210 -240 -269zM184 700q-72 0 -72 -101q0 -33 18.5 -57t51.5 -24q47 0 75 26q1 12 1 29q0 127 -74 127z" />
    <glyph glyph-name="zeroinferior" unicode="&#x2080;" horiz-adv-x="375" 
d="M186 255q-81 0 -81 -159q0 -36 2.5 -62.5t10.5 -53.5t25 -41t43 -14q85 0 85 161q0 87 -18 128t-67 41zM23 89q0 93 48 149.5t120 56.5q77 0 119 -57t42 -145q0 -101 -49 -153.5t-117 -52.5q-69 0 -116 51.5t-47 150.5z" />
    <glyph glyph-name="oneinferior" unicode="&#x2081;" horiz-adv-x="375" 
d="M151 24v127q0 40 -8 56l-74 -3v35q94 23 141 54l23 -10q-9 -36 -9 -68v-210q4 -32 10 -55q23 -12 72 -20v-32q-56 2 -117 2q-57 0 -119 -4v32q58 11 72 21q6 24 9 75z" />
    <glyph glyph-name="twoinferior" unicode="&#x2082;" horiz-adv-x="375" 
d="M35 -100v50q111 74 151.5 121t40.5 99q0 36 -16 56t-61 20q-19 0 -50 -9q-10 -25 -8 -63l-28 -8h-18q-1 36 -10 93q72 36 149 36q57 0 91 -29t34 -83q0 -38 -11 -66t-56 -69.5t-130 -91.5l2 -5q42 8 76 8h69q31 46 38 72l42 -6q-17 -54 -23 -125h-282z" />
    <glyph glyph-name="threeinferior" unicode="&#x2083;" horiz-adv-x="375" 
d="M239 2q0 75 -76 75q-21 0 -44 -6l-17 12l18 34q44 1 77 23.5t33 58.5q0 56 -65 56q-22 0 -48 -8q-6 -23 -3 -54l-31 -9h-17q-1 33 -9 80q64 31 129 31q121 0 121 -92q0 -68 -94 -95v-2q111 -10 111 -101q0 -54 -46.5 -86t-116.5 -32q-56 0 -111 16q8 39 10 99l46 -6
q-2 -38 7 -64q20 -8 44 -8q35 0 58.5 18t23.5 60z" />
    <glyph glyph-name="fourinferior" unicode="&#x2084;" horiz-adv-x="375" 
d="M279 296l4 -9v-244h65v-48h-65q1 -25 9 -47q18 -12 46 -19v-31q-56 2 -100 2q-18 0 -60.5 -2t-46.5 -2v32q59 11 72 21q4 15 7 46h-167l-16 47l181 240zM210 44v82q0 59 7 91l-3 3l-131 -176h127z" />
    <glyph glyph-name="fiveinferior" unicode="&#x2085;" horiz-adv-x="375" 
d="M241 21q0 35 -19 53.5t-65 18.5q-35 0 -85 -21l-7 6l14 203h236l-2 -41l-16 -13h-162l-13 -97l4 -4q39 12 75 12q56 0 91 -28.5t35 -80.5q0 -63 -47.5 -102.5t-125.5 -39.5q-50 0 -106 14q7 34 10 101l46 -6q-2 -40 8 -65q20 -6 43 -6q86 0 86 96z" />
    <glyph glyph-name="sixinferior" unicode="&#x2086;" horiz-adv-x="375" 
d="M282 309l12 -28q-80 -27 -116.5 -66t-53.5 -101l2 -3q43 35 92 35q55 0 85 -33t30 -83q0 -64 -42.5 -103.5t-108.5 -39.5q-68 0 -104.5 41t-36.5 113q0 88 59 162.5t182 105.5zM190 -76q67 0 67 101q0 34 -16 57t-49 23q-42 0 -70 -26q-1 -12 -1 -28q0 -127 69 -127z" />
    <glyph glyph-name="seveninferior" unicode="&#x2087;" horiz-adv-x="375" 
d="M214 227h-112q-5 -15 -10 -61l-33 -3h-8q-6 80 -14 118h301v-29q-123 -157 -147 -302q0 -33 10 -49l-96 -11l-9 10q12 71 59.5 159.5t116.5 167.5l-3 3q-14 -3 -55 -3z" />
    <glyph glyph-name="eightinferior" unicode="&#x2088;" horiz-adv-x="375" 
d="M192 295q55 0 91.5 -27t36.5 -70q0 -54 -69 -93v-1q47 -23 65.5 -44.5t18.5 -57.5q0 -45 -41 -80t-111 -35q-68 0 -106 28.5t-38 76.5q0 61 80 98v1q-34 19 -48 41t-14 56q0 47 40.5 77t94.5 30zM255 195q0 25 -16 44t-52 19q-29 0 -47 -16.5t-18 -39.5t16 -39.5
t75 -40.5q42 27 42 73zM192 -73q36 0 54 18t18 40q0 24 -21 43.5t-88 45.5q-46 -30 -46 -75q0 -72 83 -72z" />
    <glyph glyph-name="nineinferior" unicode="&#x2089;" horiz-adv-x="375" 
d="M98 -128l-13 29q84 28 121 65.5t48 92.5l-2 3q-38 -30 -96 -30q-55 0 -87.5 35t-32.5 85q0 63 45 103t111 40q68 0 107 -41.5t39 -112.5q0 -210 -240 -269zM184 258q-72 0 -72 -101q0 -33 18.5 -57t51.5 -24q47 0 75 26q1 12 1 29q0 127 -74 127z" />
    <glyph glyph-name="Euro" unicode="&#x20ac;" horiz-adv-x="599" 
d="M127 217h-86l6 44h75q-2 25 -2 72h-66l7 44h63q18 114 92 179t179 65q79 0 170 -25q-10 -56 -12 -141h-19l-40 8q3 46 -10 86q-47 19 -88 19q-157 0 -176 -191h248l-6 -44h-245v-12q0 -30 3 -60h230l-7 -44h-217q33 -177 175 -177q50 0 82 15q17 50 13 98l40 9h19
q-3 -56 7 -148q-61 -31 -166 -31q-116 0 -182.5 63t-86.5 171z" />
    <glyph glyph-name="trademark" unicode="&#x2122;" horiz-adv-x="925" 
d="M157 614h-59q-11 -33 -14 -75l-28 -4h-15q2 62 -5 113h313q-6 -40 -6 -93q0 -15 1 -20h-16l-28 4q-3 41 -13 75h-60q-3 -14 -5 -44v-207q0 -25 6 -45q19 -10 51 -15v-25q-23 1 -83 1q-58 0 -82 -1v24q28 7 40 14q5 16 8 59v194q-1 20 -5 45zM816 565v-205q2 -28 7 -42
q19 -12 40 -16v-25q-23 1 -77 1q-48 0 -74 -1v24q26 7 36 13q5 19 8 63v202l-106 -286h-45l-107 294v-224q2 -30 6 -45q18 -11 43 -16v-25q-23 1 -59 1q-50 0 -75 -1v25q20 5 33 13q5 24 8 63v187q-2 32 -5 46q-18 12 -38 15v22q20 -1 67 -1q45 0 64 1l91 -270h4l99 270
q14 -1 68 -1q14 0 33 0.5t22 0.5v-22q-19 -3 -39 -15q-2 -14 -4 -46z" />
    <glyph glyph-name="onethird" unicode="&#x2153;" horiz-adv-x="889" 
d="M141 483v-127q-3 -51 -9 -75q-14 -10 -72 -21v-32q62 4 119 4q61 0 117 -2v32q-49 8 -72 20q-6 23 -10 55v210q0 32 9 68l-23 10q-47 -31 -141 -54v-35l74 3q8 -16 8 -56zM239 -17l313 648h63l-312 -648h-64zM737 102q0 75 -76 75q-21 0 -44 -6l-17 12l18 34
q44 1 77 23.5t33 58.5q0 56 -65 56q-22 0 -48 -8q-6 -23 -3 -54l-31 -9h-17q-1 33 -9 80q64 31 129 31q121 0 121 -92q0 -68 -94 -95v-2q111 -10 111 -101q0 -54 -46.5 -86t-116.5 -32q-56 0 -111 16q8 39 10 99l46 -6q-2 -38 7 -64q20 -8 44 -8q35 0 58.5 18t23.5 60z" />
    <glyph glyph-name="twothirds" unicode="&#x2154;" horiz-adv-x="889" 
d="M51 282v-50h282q6 71 23 125l-42 6q-7 -26 -38 -72h-69q-34 0 -76 -8l-2 5q85 50 130 91.5t56 69.5t11 66q0 54 -34 83t-91 29q-77 0 -149 -36q9 -57 10 -93h18l28 8q-2 38 8 63q31 9 50 9q45 0 61 -20t16 -56q0 -52 -40.5 -99t-151.5 -121zM273 -17l313 648h63
l-312 -648h-64zM755 102q0 75 -76 75q-21 0 -44 -6l-17 12l18 34q44 1 77 23.5t33 58.5q0 56 -65 56q-22 0 -48 -8q-6 -23 -3 -54l-31 -9h-17q-1 33 -9 80q64 31 129 31q121 0 121 -92q0 -68 -94 -95v-2q111 -10 111 -101q0 -54 -46.5 -86t-116.5 -32q-56 0 -111 16
q8 39 10 99l46 -6q-2 -38 7 -64q20 -8 44 -8q35 0 58.5 18t23.5 60z" />
    <glyph glyph-name="onefifth" unicode="&#x2155;" horiz-adv-x="889" 
d="M149 483v-127q-3 -51 -9 -75q-14 -10 -72 -21v-32q62 4 119 4q61 0 117 -2v32q-49 8 -72 20q-6 23 -10 55v210q0 32 9 68l-23 10q-47 -31 -141 -54v-35l74 3q8 -16 8 -56zM253 -17l313 648h63l-312 -648h-64zM742 121q0 35 -19 53.5t-65 18.5q-35 0 -85 -21l-7 6l14 203
h236l-2 -41l-16 -13h-162l-13 -97l4 -4q39 12 75 12q56 0 91 -28.5t35 -80.5q0 -63 -47.5 -102.5t-125.5 -39.5q-50 0 -106 14q7 34 10 101l46 -6q-2 -40 8 -65q19 -6 43 -6q86 0 86 96z" />
    <glyph glyph-name="twofifths" unicode="&#x2156;" horiz-adv-x="889" 
d="M61 282v-50h282q6 71 23 125l-42 6q-7 -26 -38 -72h-69q-34 0 -76 -8l-2 5q85 50 130 91.5t56 69.5t11 66q0 54 -34 83t-91 29q-77 0 -149 -36q9 -57 10 -93h18l28 8q-2 38 8 63q31 9 50 9q45 0 61 -20t16 -56q0 -52 -40.5 -99t-151.5 -121zM283 -17l313 648h63
l-312 -648h-64zM758 121q0 35 -19 53.5t-65 18.5q-35 0 -85 -21l-7 6l14 203h236l-2 -41l-16 -13h-162l-13 -97l4 -4q39 12 75 12q56 0 91 -28.5t35 -80.5q0 -63 -47.5 -102.5t-125.5 -39.5q-50 0 -106 14q7 34 10 101l46 -6q-2 -40 8 -65q19 -6 43 -6q86 0 86 96z" />
    <glyph glyph-name="threefifths" unicode="&#x2157;" horiz-adv-x="889" 
d="M253 334q0 75 -76 75q-21 0 -44 -6l-17 12l18 34q44 1 77 23.5t33 58.5q0 56 -65 56q-22 0 -48 -8q-6 -23 -3 -54l-31 -9h-17q-1 33 -9 80q64 31 129 31q121 0 121 -92q0 -68 -94 -95v-2q111 -10 111 -101q0 -54 -46.5 -86t-116.5 -32q-56 0 -111 16q8 39 10 99l46 -6
q-2 -38 7 -64q20 -8 44 -8q35 0 58.5 18t23.5 60zM270 -17l313 648h63l-312 -648h-64zM752 121q0 35 -19 53.5t-65 18.5q-35 0 -85 -21l-7 6l14 203h236l-2 -41l-16 -13h-162l-13 -97l4 -4q39 12 75 12q56 0 91 -28.5t35 -80.5q0 -63 -47.5 -102.5t-125.5 -39.5
q-50 0 -106 14q7 34 10 101l46 -6q-2 -40 8 -65q19 -6 43 -6q86 0 86 96z" />
    <glyph glyph-name="fourfifths" unicode="&#x2158;" horiz-adv-x="889" 
d="M307 619l-4 9l-71 -14l-181 -240l16 -47h167q-3 -31 -7 -46q-13 -10 -72 -21v-32q4 0 46.5 2t60.5 2q44 0 100 -2v31q-28 7 -46 19q-8 22 -9 47h65v48h-65v244zM234 458v-82h-127l131 176l3 -3q-7 -32 -7 -91zM292 -17l313 648h63l-312 -648h-64zM758 121q0 35 -19 53.5
t-65 18.5q-35 0 -85 -21l-7 6l14 203h236l-2 -41l-16 -13h-162l-13 -97l4 -4q39 12 75 12q56 0 91 -28.5t35 -80.5q0 -63 -47.5 -102.5t-125.5 -39.5q-50 0 -106 14q7 34 10 101l46 -6q-2 -40 8 -65q19 -6 43 -6q86 0 86 96z" />
    <glyph glyph-name="onesixth" unicode="&#x2159;" horiz-adv-x="889" 
d="M149 483v-127q-3 -51 -9 -75q-14 -10 -72 -21v-32q62 4 119 4q61 0 117 -2v32q-49 8 -72 20q-6 23 -10 55v210q0 32 9 68l-23 10q-47 -31 -141 -54v-35l74 3q8 -16 8 -56zM263 -17l313 648h63l-312 -648h-64zM777 409l12 -28q-80 -27 -116.5 -66t-53.5 -101l2 -3
q43 35 92 35q55 0 85 -33t30 -83q0 -64 -42.5 -103.5t-108.5 -39.5q-68 0 -104.5 41t-36.5 113q0 88 59 162.5t182 105.5zM685 24q67 0 67 101q0 34 -16 57t-49 23q-42 0 -70 -26q-1 -12 -1 -28q0 -127 69 -127z" />
    <glyph glyph-name="fivesixths" unicode="&#x215a;" horiz-adv-x="889" 
d="M273 -17l313 648h63l-312 -648h-64zM783 409l12 -28q-80 -27 -116.5 -66t-53.5 -101l2 -3q43 35 92 35q55 0 85 -33t30 -83q0 -64 -42.5 -103.5t-108.5 -39.5q-68 0 -104.5 41t-36.5 113q0 88 59 162.5t182 105.5zM691 24q67 0 67 101q0 34 -16 57t-49 23q-42 0 -70 -26
q-1 -12 -1 -28q0 -127 69 -127zM265 353q0 35 -19 53.5t-65 18.5q-35 0 -85 -21l-7 6l14 203h236l-2 -41l-16 -13h-162l-13 -97l4 -4q39 12 75 12q56 0 91 -28.5t35 -80.5q0 -63 -47.5 -102.5t-125.5 -39.5q-50 0 -106 14q7 34 10 101l46 -6q-2 -40 8 -65q20 -6 43 -6
q86 0 86 96z" />
    <glyph glyph-name="oneeighth" unicode="&#x215b;" horiz-adv-x="889" 
d="M159 483v-127q-3 -51 -9 -75q-14 -10 -72 -21v-32q62 4 119 4q61 0 117 -2v32q-49 8 -72 20q-6 23 -10 55v210q0 32 9 68l-23 10q-47 -31 -141 -54v-35l74 3q8 -16 8 -56zM253 -17l313 648h63l-312 -648h-64zM696 395q55 0 91.5 -27t36.5 -70q0 -54 -69 -93v-1
q47 -23 65.5 -44.5t18.5 -57.5q0 -45 -41 -80t-111 -35q-68 0 -106 28.5t-38 76.5q0 61 80 98v1q-34 19 -48 41t-14 56q0 47 40.5 77t94.5 30zM759 295q0 25 -16 44t-52 19q-29 0 -47 -16.5t-18 -39.5t16 -39.5t75 -40.5q42 27 42 73zM696 27q36 0 54 18t18 40
q0 24 -21 43.5t-88 45.5q-46 -30 -46 -75q0 -72 83 -72z" />
    <glyph glyph-name="threeeighths" unicode="&#x215c;" horiz-adv-x="889" 
d="M243 334q0 75 -76 75q-21 0 -44 -6l-17 12l18 34q44 1 77 23.5t33 58.5q0 56 -65 56q-22 0 -48 -8q-6 -23 -3 -54l-31 -9h-17q-1 33 -9 80q64 31 129 31q121 0 121 -92q0 -68 -94 -95v-2q111 -10 111 -101q0 -54 -46.5 -86t-116.5 -32q-56 0 -111 16q8 39 10 99l46 -6
q-2 -38 7 -64q20 -8 44 -8q35 0 58.5 18t23.5 60zM256 -17l313 648h63l-312 -648h-64zM686 395q55 0 91.5 -27t36.5 -70q0 -54 -69 -93v-1q47 -23 65.5 -44.5t18.5 -57.5q0 -45 -41 -80t-111 -35q-68 0 -106 28.5t-38 76.5q0 61 80 98v1q-34 19 -48 41t-14 56q0 47 40.5 77
t94.5 30zM749 295q0 25 -16 44t-52 19q-29 0 -47 -16.5t-18 -39.5t16 -39.5t75 -40.5q42 27 42 73zM686 27q36 0 54 18t18 40q0 24 -21 43.5t-88 45.5q-46 -30 -46 -75q0 -72 83 -72z" />
    <glyph glyph-name="fiveeighths" unicode="&#x215d;" horiz-adv-x="889" 
d="M253 353q0 35 -19 53.5t-65 18.5q-35 0 -85 -21l-7 6l14 203h236l-2 -41l-16 -13h-162l-13 -97l4 -4q39 12 75 12q56 0 91 -28.5t35 -80.5q0 -63 -47.5 -102.5t-125.5 -39.5q-50 0 -106 14q7 34 10 101l46 -6q-2 -40 8 -65q19 -6 43 -6q86 0 86 96zM260 -17l313 648h63
l-312 -648h-64zM686 395q55 0 91.5 -27t36.5 -70q0 -54 -69 -93v-1q47 -23 65.5 -44.5t18.5 -57.5q0 -45 -41 -80t-111 -35q-68 0 -106 28.5t-38 76.5q0 61 80 98v1q-34 19 -48 41t-14 56q0 47 40.5 77t94.5 30zM749 295q0 25 -16 44t-52 19q-29 0 -47 -16.5t-18 -39.5
t16 -39.5t75 -40.5q42 27 42 73zM686 27q36 0 54 18t18 40q0 24 -21 43.5t-88 45.5q-46 -30 -46 -75q0 -72 83 -72z" />
    <glyph glyph-name="seveneighths" unicode="&#x215e;" horiz-adv-x="889" 
d="M129 559h112q41 0 55 3l3 -3q-69 -79 -116.5 -167.5t-59.5 -159.5l9 -10l96 11q-10 16 -10 49q24 145 147 302v29h-301q8 -38 14 -118h8l33 3q5 46 10 61zM214 -17l313 648h63l-312 -648h-64zM667 395q55 0 91.5 -27t36.5 -70q0 -54 -69 -93v-1q47 -23 65.5 -44.5
t18.5 -57.5q0 -45 -41 -80t-111 -35q-68 0 -106 28.5t-38 76.5q0 61 80 98v1q-34 19 -48 41t-14 56q0 47 40.5 77t94.5 30zM730 295q0 25 -16 44t-52 19q-29 0 -47 -16.5t-18 -39.5t16 -39.5t75 -40.5q42 27 42 73zM667 27q36 0 54 18t18 40q0 24 -21 43.5t-88 45.5
q-46 -30 -46 -75q0 -72 83 -72z" />
    <glyph glyph-name="partialdiff" unicode="&#x2202;" horiz-adv-x="506" 
d="M129 645q72 26 132 26q102 0 151.5 -78.5t49.5 -204.5q0 -51 -8 -103.5t-28 -107.5t-50 -97.5t-79 -69.5t-110 -27q-81 0 -125 51t-44 136q0 96 60 170.5t159 74.5q39 0 65 -13t53 -38l6 4q2 36 2 54q0 202 -117 202q-23 0 -43 -5q-21 -45 -27 -94l-42 -9h-17
q12 96 12 129zM246 359q-67 0 -98.5 -57.5t-31.5 -136.5q0 -136 95 -136q38 0 66.5 24.5t44 63.5t22.5 81t7 84q0 4 -0.5 13t-0.5 14q-45 50 -104 50z" />
    <glyph glyph-name="Delta" unicode="&#x2206;" horiz-adv-x="592" 
d="M574 0h-566l255 637h89zM97 58h360l-166 500z" />
    <glyph glyph-name="product" unicode="&#x220f;" horiz-adv-x="702" 
d="M148 647h400q56 0 120 3v-36q-30 -8 -62 -26q-9 -41 -13 -110v-476q1 -37 13 -73q31 -20 74 -29v-35q-82 2 -124 2q-36 0 -124 -2v36q34 7 57 22q9 34 14 111v548h-302v-580q3 -39 14 -73q32 -20 73 -29v-35q-80 2 -124 2q-36 0 -124 -2v36q35 8 58 22q8 34 13 111v478
q-1 35 -9 72q-33 21 -70 29v36q41 -2 116 -2z" />
    <glyph glyph-name="summation" unicode="&#x2211;" horiz-adv-x="585" 
d="M37 647h440q-5 -60 0 -176h-19l-41 6q-2 59 -19 115h-252l209 -323l-231 -343h312q13 51 16 110l41 6h19q-4 -99 0 -176h-463l-12 35l225 341l-237 367z" />
    <glyph glyph-name="minus" unicode="&#x2212;" 
d="M492 276h-454v58h454v-58z" />
    <glyph glyph-name="uni2215" unicode="&#x2215;" horiz-adv-x="454" 
d="M6 -17l313 648h63l-312 -648h-64z" />
    <glyph glyph-name="uni2219" unicode="&#x2219;" horiz-adv-x="224" 
d="M49 312q0 27 18 45t47 18q32 0 50 -17t18 -45q0 -27 -17 -45.5t-48 -18.5q-33 0 -50.5 17.5t-17.5 45.5z" />
    <glyph glyph-name="radical" unicode="&#x221a;" horiz-adv-x="547" 
d="M533 744l-168 -744h-70l-174 367l-71 -33l-16 40l142 69l152 -334l148 645z" />
    <glyph glyph-name="infinity" unicode="&#x221e;" horiz-adv-x="644" 
d="M594 241q0 -55 -38 -89t-90 -34q-39 0 -71.5 16.5t-79.5 61.5q-80 -78 -148 -78q-55 0 -86 33t-31 86q0 63 40 97t91 34q35 0 67.5 -16.5t81.5 -62.5q80 73 147 73q55 0 86 -30.5t31 -90.5zM534 242q0 32 -17.5 50.5t-46.5 18.5q-46 0 -107 -58q36 -40 59 -55t51 -15
t44.5 17t16.5 42zM177 171q42 0 103 60q-77 72 -110 72q-26 0 -42.5 -17.5t-16.5 -43.5q0 -32 17.5 -51.5t48.5 -19.5z" />
    <glyph glyph-name="integral" unicode="&#x222b;" horiz-adv-x="427" 
d="M235 572q1 -32 14.5 -122.5t18.5 -133.5q21 -216 21 -266q0 -86 -19 -132q-52 -123 -168 -123q-52 0 -107 30l42 79h19q36 -58 85 -58q30 0 52.5 28t22.5 92q0 19 -3 43q-5 37 -18.5 117t-20.5 131q-20 135 -20 230q0 74 21 125q52 123 170 123q46 0 101 -30l-42 -79h-19
q-36 58 -85 58q-26 0 -46.5 -26t-18.5 -86z" />
    <glyph glyph-name="approxequal" unicode="&#x2248;" horiz-adv-x="479" 
d="M61 114l-36 16q5 32 40 65t89 33q38 0 110.5 -21t103.5 -21q23 0 33 9t16 29l37 -13q0 -36 -25.5 -67.5t-76.5 -31.5q-45 0 -120.5 20t-104.5 20q-48 0 -66 -38zM61 290l-36 16q5 32 40 65t89 33q38 0 110.5 -21t103.5 -21q23 0 33 9t16 29l37 -13q0 -36 -25.5 -67.5
t-76.5 -31.5q-45 0 -120.5 20t-104.5 20q-48 0 -66 -38z" />
    <glyph glyph-name="notequal" unicode="&#x2260;" 
d="M492 165h-290l-103 -123l-39 37l72 86h-94v58h143l83 98h-226v58h274l88 104l39 -38l-56 -66h109v-58h-158l-83 -98h241v-58z" />
    <glyph glyph-name="lessequal" unicode="&#x2264;" 
d="M492 0h-454v58h454v-58zM491 60l-452 194v77l452 191v-65l-388 -163l388 -165v-69z" />
    <glyph glyph-name="greaterequal" unicode="&#x2265;" 
d="M492 0h-454v58h454v-58zM491 254l-452 -194v69l388 165l-388 163v65l452 -191v-77z" />
    <glyph glyph-name="lozenge" unicode="&#x25ca;" horiz-adv-x="475" 
d="M440 310l-202 -322l-203 322l203 322zM357 309l-121 194l-119 -192l124 -198z" />
    <glyph glyph-name="oneseventh" unicode="&#xf500;" horiz-adv-x="889" 
d="M159 483v-127q-3 -51 -9 -75q-14 -10 -72 -21v-32q62 4 119 4q61 0 117 -2v32q-49 8 -72 20q-6 23 -10 55v210q0 32 9 68l-23 10q-47 -31 -141 -54v-35l74 3q8 -16 8 -56zM243 -17l313 648h63l-312 -648h-64zM623 327h112q41 0 55 3l3 -3q-69 -79 -116.5 -167.5
t-59.5 -159.5l9 -10l96 11q-10 16 -10 49q24 145 147 302v29h-301q8 -38 14 -118h8l33 3q5 46 10 61z" />
    <glyph glyph-name="twosevenths" unicode="&#xf501;" horiz-adv-x="889" 
d="M627 327h112q41 0 55 3l3 -3q-69 -79 -116.5 -167.5t-59.5 -159.5l9 -10l96 11q-10 16 -10 49q24 145 147 302v29h-301q8 -38 14 -118h8l33 3q5 46 10 61zM274 -17l313 648h63l-312 -648h-64zM66 282v-50h282q6 71 23 125l-42 6q-7 -26 -38 -72h-69q-34 0 -76 -8l-2 5
q85 50 130 91.5t56 69.5t11 66q0 54 -34 83t-91 29q-77 0 -149 -36q9 -57 10 -93h18l28 8q-2 38 8 63q31 9 50 9q45 0 61 -20t16 -56q0 -52 -40.5 -99t-151.5 -121z" />
    <glyph glyph-name="threesevenths" unicode="&#xf502;" horiz-adv-x="889" 
d="M253 334q0 75 -76 75q-21 0 -44 -6l-17 12l18 34q44 1 77 23.5t33 58.5q0 56 -65 56q-22 0 -48 -8q-6 -23 -3 -54l-31 -9h-17q-1 33 -9 80q64 31 129 31q121 0 121 -92q0 -68 -94 -95v-2q111 -10 111 -101q0 -54 -46.5 -86t-116.5 -32q-56 0 -111 16q8 39 10 99l46 -6
q-2 -38 7 -64q20 -8 44 -8q35 0 58.5 18t23.5 60zM252 -17l313 648h63l-312 -648h-64zM623 327h112q41 0 55 3l3 -3q-69 -79 -116.5 -167.5t-59.5 -159.5l9 -10l96 11q-10 16 -10 49q24 145 147 302v29h-301q8 -38 14 -118h8l33 3q5 46 10 61z" />
    <glyph glyph-name="foursevenths" unicode="&#xf503;" horiz-adv-x="889" 
d="M297 619l-4 9l-71 -14l-181 -240l16 -47h167q-3 -31 -7 -46q-13 -10 -72 -21v-32q4 0 46.5 2t60.5 2q44 0 100 -2v31q-28 7 -46 19q-8 22 -9 47h65v48h-65v244zM224 458v-82h-127l131 176l3 -3q-7 -32 -7 -91zM267 -17l313 648h63l-312 -648h-64zM623 327h112q41 0 55 3
l3 -3q-69 -79 -116.5 -167.5t-59.5 -159.5l9 -10l96 11q-10 16 -10 49q24 145 147 302v29h-301q8 -38 14 -118h8l33 3q5 46 10 61z" />
    <glyph glyph-name="fivesevenths" unicode="&#xf504;" horiz-adv-x="889" 
d="M245 353q0 35 -19 53.5t-65 18.5q-35 0 -85 -21l-7 6l14 203h236l-2 -41l-16 -13h-162l-13 -97l4 -4q39 12 75 12q56 0 91 -28.5t35 -80.5q0 -63 -47.5 -102.5t-125.5 -39.5q-50 0 -106 14q7 34 10 101l46 -6q-2 -40 8 -65q19 -6 43 -6q86 0 86 96zM248 -17l313 648h63
l-312 -648h-64zM623 327h112q41 0 55 3l3 -3q-69 -79 -116.5 -167.5t-59.5 -159.5l9 -10l96 11q-10 16 -10 49q24 145 147 302v29h-301q8 -38 14 -118h8l33 3q5 46 10 61z" />
    <glyph glyph-name="sixsevenths" unicode="&#xf505;" horiz-adv-x="889" 
d="M301 641l12 -28q-80 -27 -116.5 -66t-53.5 -101l2 -3q43 35 92 35q55 0 85 -33t30 -83q0 -64 -42.5 -103.5t-108.5 -39.5q-68 0 -104.5 41t-36.5 113q0 88 59 162.5t182 105.5zM209 256q67 0 67 101q0 34 -16 57t-49 23q-42 0 -70 -26q-1 -12 -1 -28q0 -127 69 -127z
M248 -17l313 648h63l-312 -648h-64zM623 327h112q41 0 55 3l3 -3q-69 -79 -116.5 -167.5t-59.5 -159.5l9 -10l96 11q-10 16 -10 49q24 145 147 302v29h-301q8 -38 14 -118h8l33 3q5 46 10 61z" />
    <glyph glyph-name="oneninth" unicode="&#xf506;" horiz-adv-x="889" 
d="M147 483v-127q-3 -51 -9 -75q-14 -10 -72 -21v-32q62 4 119 4q61 0 117 -2v32q-49 8 -72 20q-6 23 -10 55v210q0 32 9 68l-23 10q-47 -31 -141 -54v-35l74 3q8 -16 8 -56zM239 -17l313 648h63l-312 -648h-64zM588 -28l-13 29q84 28 121 65.5t48 92.5l-2 3
q-38 -30 -96 -30q-55 0 -87.5 35t-32.5 85q0 63 45 103t111 40q68 0 107 -41.5t39 -112.5q0 -210 -240 -269zM674 358q-72 0 -72 -101q0 -33 18.5 -57t51.5 -24q47 0 75 26q1 12 1 29q0 127 -74 127z" />
    <glyph glyph-name="twoninths" unicode="&#xf507;" horiz-adv-x="889" 
d="M51 282v-50h282q6 71 23 125l-42 6q-7 -26 -38 -72h-69q-34 0 -76 -8l-2 5q85 50 130 91.5t56 69.5t11 66q0 54 -34 83t-91 29q-77 0 -149 -36q9 -57 10 -93h18l28 8q-2 38 8 63q31 9 50 9q45 0 61 -20t16 -56q0 -52 -40.5 -99t-151.5 -121zM263 -17l313 648h63
l-312 -648h-64zM599 -28l-13 29q84 28 121 65.5t48 92.5l-2 3q-38 -30 -96 -30q-55 0 -87.5 35t-32.5 85q0 63 45 103t111 40q68 0 107 -41.5t39 -112.5q0 -210 -240 -269zM685 358q-72 0 -72 -101q0 -33 18.5 -57t51.5 -24q47 0 75 26q1 12 1 29q0 127 -74 127z" />
    <glyph glyph-name="fourninths" unicode="&#xf508;" horiz-adv-x="889" 
d="M277 619l-4 9l-71 -14l-181 -240l16 -47h167q-3 -31 -7 -46q-13 -10 -72 -21v-32q4 0 46.5 2t60.5 2q44 0 100 -2v31q-28 7 -46 19q-8 22 -9 47h65v48h-65v244zM204 458v-82h-127l131 176l3 -3q-7 -32 -7 -91zM265 -17l313 648h63l-312 -648h-64zM604 -28l-13 29
q84 28 121 65.5t48 92.5l-2 3q-38 -30 -96 -30q-55 0 -87.5 35t-32.5 85q0 63 45 103t111 40q68 0 107 -41.5t39 -112.5q0 -210 -240 -269zM690 358q-72 0 -72 -101q0 -33 18.5 -57t51.5 -24q47 0 75 26q1 12 1 29q0 127 -74 127z" />
    <glyph glyph-name="fiveninths" unicode="&#xf509;" horiz-adv-x="889" 
d="M251 353q0 35 -19 53.5t-65 18.5q-35 0 -85 -21l-7 6l14 203h236l-2 -41l-16 -13h-162l-13 -97l4 -4q39 12 75 12q56 0 91 -28.5t35 -80.5q0 -63 -47.5 -102.5t-125.5 -39.5q-50 0 -106 14q7 34 10 101l46 -6q-2 -40 8 -65q20 -6 43 -6q86 0 86 96zM243 -17l313 648h63
l-312 -648h-64zM589 -28l-13 29q84 28 121 65.5t48 92.5l-2 3q-38 -30 -96 -30q-55 0 -87.5 35t-32.5 85q0 63 45 103t111 40q68 0 107 -41.5t39 -112.5q0 -210 -240 -269zM675 358q-72 0 -72 -101q0 -33 18.5 -57t51.5 -24q47 0 75 26q1 12 1 29q0 127 -74 127z" />
    <glyph glyph-name="sevenninths" unicode="&#xf50a;" horiz-adv-x="889" 
d="M119 559h112q41 0 55 3l3 -3q-69 -79 -116.5 -167.5t-59.5 -159.5l9 -10l96 11q-10 16 -10 49q24 145 147 302v29h-301q8 -38 14 -118h8l33 3q5 46 10 61zM213 -17l313 648h63l-312 -648h-64zM579 -28l-13 29q84 28 121 65.5t48 92.5l-2 3q-38 -30 -96 -30
q-55 0 -87.5 35t-32.5 85q0 63 45 103t111 40q68 0 107 -41.5t39 -112.5q0 -210 -240 -269zM665 358q-72 0 -72 -101q0 -33 18.5 -57t51.5 -24q47 0 75 26q1 12 1 29q0 127 -74 127z" />
    <glyph glyph-name="eightninths" unicode="&#xf50b;" horiz-adv-x="889" 
d="M223 627q55 0 91.5 -27t36.5 -70q0 -54 -69 -93v-1q47 -23 65.5 -44.5t18.5 -57.5q0 -45 -41 -80t-111 -35q-68 0 -106 28.5t-38 76.5q0 61 80 98v1q-34 19 -48 41t-14 56q0 47 40.5 77t94.5 30zM286 527q0 25 -16 44t-52 19q-29 0 -47 -16.5t-18 -39.5t16 -39.5
t75 -40.5q42 27 42 73zM223 259q36 0 54 18t18 40q0 24 -21 43.5t-88 45.5q-46 -30 -46 -75q0 -72 83 -72zM261 -17l313 648h63l-312 -648h-64zM599 -28l-13 29q84 28 121 65.5t48 92.5l-2 3q-38 -30 -96 -30q-55 0 -87.5 35t-32.5 85q0 63 45 103t111 40q68 0 107 -41.5
t39 -112.5q0 -210 -240 -269zM685 358q-72 0 -72 -101q0 -33 18.5 -57t51.5 -24q47 0 75 26q1 12 1 29q0 127 -74 127z" />
    <glyph glyph-name="commaaccent" unicode="&#xf6c3;" horiz-adv-x="500" 
d="M228 -206q47 22 47 60q0 10 -14.5 25t-14.5 30q0 19 11.5 30t30.5 11q21 0 34.5 -15t13.5 -42q0 -39 -27 -71t-65 -53z" />
    <glyph glyph-name="breve.smcp" unicode="&#xf6f4;" horiz-adv-x="388" 
d="M49 690l34 20q21 -41 51.5 -68t63.5 -27q61 0 111 93l31 -18q-26 -81 -66.5 -113.5t-80.5 -32.5q-46 0 -81.5 33.5t-62.5 112.5z" />
    <glyph glyph-name="caron.smcp" unicode="&#xf6f5;" horiz-adv-x="500" 
d="M377 713l29 -23l-112 -146h-61l-112 146l29 23l114 -89z" />
    <glyph glyph-name="circumflex.smcp" unicode="&#xf6f6;" horiz-adv-x="500" 
d="M147 544l-29 23l112 146h61l112 -146l-29 -23l-114 89z" />
    <glyph glyph-name="dotaccent.smcp" unicode="&#xf6f7;" horiz-adv-x="500" 
d="M196 625q0 22 16.5 39t38.5 17q23 0 39.5 -16.5t16.5 -39.5q0 -22 -17 -38.5t-39 -16.5t-38.5 16.5t-16.5 38.5z" />
    <glyph glyph-name="hungarumlaut.smcp" unicode="&#xf6f8;" horiz-adv-x="500" 
d="M117 544l-29 23l110 157q39 -18 77 -27v-16zM267 544l-29 23l110 157q39 -18 77 -27v-16z" />
    <glyph glyph-name="lslash.smcp" unicode="&#xf6f9;" horiz-adv-x="439" 
d="M185 375v-93l173 69v-56l-173 -69v-108q2 -50 6 -73h136q12 21 39 114l53 -6q-15 -81 -15 -153h-260q-50 0 -98 -2v32q30 8 44 15q7 28 10 81v72l-69 -26v56l69 26v129q-2 29 -7 52q-20 13 -53 20v32q60 -2 104 -2q52 0 120 2v-31q-40 -7 -69 -21q-8 -23 -10 -60z" />
    <glyph glyph-name="oe.smcp" unicode="&#xf6fa;" horiz-adv-x="739" 
d="M616 440h-140q-4 -23 -4 -56v-115h89q21 0 33 5q12 20 21 53h33q-3 -38 -3 -80q0 -43 3 -80h-34q-6 30 -17 52q-16 4 -42 4h-83v-106q0 -34 5 -72h154q22 36 35 92l53 -7q-18 -78 -20 -130h-304q-56 -13 -112 -13q-121 0 -184.5 70.5t-63.5 186.5q0 111 70 182.5
t182 71.5q46 0 102 -13h297q-7 -62 -4 -116h-23l-33 6q-2 43 -10 65zM293 34q51 0 94 24v370q-58 23 -106 23q-77 0 -114 -46.5t-37 -126.5q0 -47 7.5 -87t24.5 -77.5t50.5 -58.5t80.5 -21z" />
    <glyph glyph-name="ring.smcp" unicode="&#xf6fc;" horiz-adv-x="500" 
d="M200 659q0 -29 13.5 -47.5t41.5 -18.5q25 0 39 19.5t14 47.5q0 30 -14 48t-41 18q-25 0 -39 -19t-14 -48zM151 659q0 42 28 73t76 31q49 0 75.5 -28.5t26.5 -72.5q0 -45 -27.5 -76t-76.5 -31q-51 0 -76.5 30t-25.5 74z" />
    <glyph glyph-name="scaron.smcp" unicode="&#xf6fd;" horiz-adv-x="426" 
d="M365 471q-57 27 -135 27q-69 0 -119.5 -36.5t-50.5 -104.5q0 -53 36 -84t96 -52q52 -18 80.5 -41t28.5 -63q0 -38 -23.5 -60.5t-66.5 -22.5q-60 0 -89 27q-10 35 -13 89l-57 8q-10 -111 -17 -137q67 -33 156 -33q91 0 143.5 41t52.5 117q0 26 -10 47.5t-21.5 34.5
t-36.5 26.5t-38 19t-44 17.5q-46 17 -69.5 39t-23.5 57q0 29 20 48.5t58 19.5q42 0 67 -21q12 -25 14 -76l35 -4h23q-3 53 4 117zM340 713l29 -23l-112 -146h-61l-112 146l29 23l114 -89z" />
    <glyph glyph-name="tilde.smcp" unicode="&#xf6fe;" horiz-adv-x="444" 
d="M80 579l-25 12q25 42 47 68q19 23 54 23q26 0 83 -21t83 -21q31 0 50 39l26 -8q-11 -38 -30 -70q-15 -25 -52 -25q-31 0 -93 20t-85 20q-17 0 -29 -8t-29 -29z" />
    <glyph glyph-name="zcaron.smcp" unicode="&#xf6ff;" horiz-adv-x="476" 
d="M332 442h-208q-11 -31 -19 -96l-37 -6h-23q1 13 1 59q0 54 -2 72l15 14h376v-38l-298 -404h210q26 48 47 119l59 -8q-18 -93 -22 -154h-396v40zM357 713l29 -23l-112 -146h-61l-112 146l29 23l114 -89z" />
    <glyph glyph-name="exclam.smcp" unicode="&#xf721;" horiz-adv-x="247" 
d="M102 122l-21 339q-1 17 11 27.5t31 10.5q18 0 31 -10t12 -28l-21 -339h-43zM82 25q0 17 11 29t31 12q19 0 30.5 -11.5t11.5 -29.5q0 -17 -11.5 -29.5t-30.5 -12.5q-21 0 -31.5 12t-10.5 30z" />
    <glyph glyph-name="ampersand.smcp" unicode="&#xf726;" horiz-adv-x="584" 
d="M547 295q-28 -2 -52 -9q-23 -105 -65 -161l92 -87l33 -17v-30h-102q-10 12 -44 46l-26 25q-74 -71 -182 -71q-72 0 -118.5 35.5t-46.5 103.5q0 97 118 152q-54 49 -54 106q0 48 38.5 79.5t104.5 31.5q59 0 92.5 -25t33.5 -69q0 -22 -10.5 -41t-30.5 -34t-34 -23.5
t-35 -18.5l132 -127q32 52 32 125l-2 6q-9 3 -34 4v33h156zM342 101l-155 149q-31 -20 -46.5 -42.5t-15.5 -57.5q0 -44 27 -71.5t72 -27.5q69 0 118 50zM186 401q0 -25 9.5 -42t32.5 -40q63 37 63 83q0 25 -14 39t-37 14q-25 0 -39.5 -15t-14.5 -39z" />
    <glyph glyph-name="question.smcp" unicode="&#xf73f;" horiz-adv-x="333" 
d="M95 25q0 17 10.5 29t29.5 12q20 0 32 -11.5t12 -29.5q0 -17 -11.5 -29.5t-30.5 -12.5q-21 0 -31.5 12t-10.5 30zM308 387q0 -41 -22 -68t-64 -55q-38 -25 -47.5 -42.5t-9.5 -60.5v-39h-54v48q0 43 6 66t29 43l21 18q17 14 25.5 22.5t17 26t8.5 38.5q0 33 -16 50t-54 17
l-48 -5q-8 -19 -8 -68l-29 -11h-22q-4 59 -10 97q29 13 72 24t67 11q67 0 102.5 -30.5t35.5 -81.5z" />
    <glyph glyph-name="grave.smcp" unicode="&#xf760;" horiz-adv-x="500" 
d="M345 569l-33 -25l-166 144v21q56 9 90 24z" />
    <glyph glyph-name="a.smcp" unicode="&#xf761;" horiz-adv-x="529" 
d="M371 51l-38 108h-162l-41 -107l2 -6q23 -10 52 -16v-32q-44 2 -89 2q-31 0 -81 -2v31q27 7 50 19l176 439h64l158 -435q22 -13 57 -23v-31q-48 2 -102 2q-40 0 -104 -2v32q31 5 56 15zM318 207l-58 182h-3l-69 -182h130z" />
    <glyph glyph-name="b.smcp" unicode="&#xf762;" horiz-adv-x="440" 
d="M238 0h-100q-56 0 -102 -2v32q30 8 44 15q7 28 10 81v257q-2 29 -7 52q-20 13 -53 20v32q60 -2 101 -2h106q156 0 156 -117q0 -91 -112 -112v-2q56 -4 95 -36t39 -83q0 -66 -47 -100.5t-130 -34.5zM184 42h46q46 0 70.5 24t24.5 61q0 50 -29.5 76t-83.5 26h-37v-127
q0 -38 9 -60zM175 273h32q50 0 72.5 19.5t22.5 65.5q0 84 -86 84h-41v-169z" />
    <glyph glyph-name="c.smcp" unicode="&#xf763;" horiz-adv-x="487" 
d="M449 478q-9 -68 -6 -125h-23l-34 6q-6 67 -15 80q-39 13 -91 13q-67 0 -109 -53t-42 -142q0 -57 14.5 -104t54.5 -82t100 -35q47 0 71 11q19 25 37 97l51 -8q-11 -74 -11 -123q-62 -26 -153 -26q-133 0 -195.5 69.5t-62.5 187.5q0 110 74 182t183 72q62 0 157 -20z" />
    <glyph glyph-name="d.smcp" unicode="&#xf764;" horiz-adv-x="526" 
d="M398 238q0 110 -45.5 157t-128.5 47h-48v-340q0 -39 7 -59h57q86 0 122 48.5t36 146.5zM255 0h-117q-69 0 -102 -2v32q28 6 45 15q7 26 10 81v257q-1 27 -7 51q-24 13 -54 21v32q30 -2 101 -2h116q50 0 91.5 -11t77 -35.5t55.5 -69.5t20 -108q0 -137 -66.5 -199
t-169.5 -62z" />
    <glyph glyph-name="e.smcp" unicode="&#xf765;" horiz-adv-x="442" 
d="M322 440h-142q-5 -21 -5 -56v-113h86q21 1 30 5q15 27 21 51h34q-3 -37 -3 -80t3 -80h-35q-5 23 -18 50q-16 4 -43 4h-75v-104q0 -37 6 -72h154q23 41 35 92l52 -7q-18 -85 -19 -130h-272q-61 0 -95 -2v32q30 8 44 15q7 28 10 81v255q-2 32 -7 53q-20 12 -53 20v31h361
q-8 -56 -5 -116h-23l-32 6q0 39 -9 65z" />
    <glyph glyph-name="f.smcp" unicode="&#xf766;" horiz-adv-x="413" 
d="M322 440h-142q-5 -21 -5 -53v-116h93q21 1 29 6q13 21 20 48h35q-4 -31 -4 -72q0 -33 4 -89h-33q-11 37 -18 52q-17 4 -40 5h-86v-110q0 -27 11 -62q39 -15 68 -19v-32q-62 2 -116 2q-58 0 -102 -2v32q30 8 44 15q7 28 10 81v257q-2 29 -7 52q-20 13 -53 20v32
q30 -2 101 -2h257q-5 -71 -4 -116h-23l-30 5q0 39 -9 66z" />
    <glyph glyph-name="g.smcp" unicode="&#xf767;" horiz-adv-x="521" 
d="M301 37q37 0 74 10v70q-2 37 -8 58q-33 17 -68 22v31q96 -3 109 -3q53 0 103 3v-32q-27 -5 -46 -15q-2 -18 -6 -75v-84q-91 -35 -172 -35q-124 0 -188 67.5t-64 189.5q0 111 75 182.5t187 71.5q76 0 162 -18q-7 -67 -4 -127h-23l-35 6q-3 49 -15 79q-38 13 -89 13
q-76 0 -120 -51t-44 -145q0 -42 8.5 -79t27.5 -69t54 -51t82 -19z" />
    <glyph glyph-name="h.smcp" unicode="&#xf768;" horiz-adv-x="584" 
d="M402 278v105q-2 29 -8 51q-22 12 -52 21v32q56 -2 102 -2q52 0 101 2v-32q-25 -5 -49 -18q-6 -30 -9 -81v-253q0 -25 9 -54q23 -13 58 -19v-32q-31 2 -104 2q-55 0 -103 -2v32q31 9 44 15q8 26 11 81v99h-220v-122q1 -22 11 -53q24 -14 57 -20v-32q-64 2 -104 2
q-61 0 -104 -2v32q29 8 45 15q7 28 10 81v256q-2 28 -10 52q-23 13 -57 21v32q48 -3 103 -3q53 0 104 3v-32q-27 -7 -44 -17q-8 -30 -11 -81v-79h220z" />
    <glyph glyph-name="i.smcp" unicode="&#xf769;" horiz-adv-x="279" 
d="M97 126v252q-2 35 -7 57q-21 12 -53 20v32q29 -2 103 -2q53 0 101 2v-32q-36 -8 -48 -18q-9 -41 -11 -81v-243q2 -34 11 -63q24 -14 57 -20v-32q-64 2 -103 2q-60 0 -105 -2v32q24 5 48 17q4 32 7 79z" />
    <glyph glyph-name="j.smcp" unicode="&#xf76a;" horiz-adv-x="278" 
d="M97 70v310q-2 27 -8 55q-22 13 -60 20v32q58 -2 109 -2q59 0 102 2v-32q-34 -8 -47 -18q-9 -31 -12 -81v-267q0 -58 -7 -123l-21 -23q-8 -8 -88 -98l-31 26q63 93 63 199z" />
    <glyph glyph-name="k.smcp" unicode="&#xf76b;" horiz-adv-x="487" 
d="M261 274l161 -213l50 -33v-28h-114q-11 18 -37 54l-139 191v-142q1 -22 11 -53q25 -14 58 -20v-32q-64 2 -104 2q-58 0 -104 -2v32q29 8 45 15q6 23 9 81v256q0 26 -9 52q-24 13 -58 21v32q49 -3 104 -3q53 0 104 3v-32q-26 -7 -45 -17q-8 -30 -11 -81v-97l166 178l-2 7
q-18 8 -41 10v32q30 -2 95 -2q36 0 67 3v-33q-30 -7 -42 -17z" />
    <glyph glyph-name="l.smcp" unicode="&#xf76c;" horiz-adv-x="429" 
d="M181 45h136q12 21 39 114l53 -6q-15 -81 -15 -153h-260q-50 0 -98 -2v32q30 8 44 15q7 28 10 81v257q-2 29 -7 52q-20 13 -53 20v32q60 -2 104 -2q52 0 120 2v-31q-40 -7 -69 -21q-8 -23 -10 -60v-257q2 -50 6 -73z" />
    <glyph glyph-name="m.smcp" unicode="&#xf76d;" horiz-adv-x="684" 
d="M587 375v-271q2 -32 9 -55q15 -9 55 -18v-33q-62 2 -100 2q-59 0 -104 -2v31q27 5 49 16q8 29 12 81v264l-140 -370h-63l-146 376v-288q2 -37 9 -59q18 -9 60 -19v-32q-31 2 -86 2q-52 0 -99 -2v32q22 5 44 15q7 26 10 81v249q-2 35 -6 59q-20 12 -51 19v34q54 -2 92 -2
t77 3l136 -367h3l134 366q40 -2 80 -2q56 0 82 2v-34q-34 -9 -52 -19q-5 -30 -5 -59z" />
    <glyph glyph-name="n.smcp" unicode="&#xf76e;" horiz-adv-x="592" 
d="M499 380l-1 -372l-65 -19l-272 418v-299q0 -30 9 -59q22 -12 59 -19v-32q-32 2 -89 2q-66 0 -98 -2v32q29 8 45 15q7 28 10 81v247q0 33 -4 61q-13 7 -53 19v34q54 -2 92 -2q40 0 77 2l229 -361v250q0 36 -9 59q-30 14 -65 21v31q45 -2 101 -2q68 0 97 2v-32
q-35 -10 -56 -21q-7 -30 -7 -54z" />
    <glyph glyph-name="o.smcp" unicode="&#xf76f;" horiz-adv-x="552" 
d="M262 -13q-106 0 -166.5 71.5t-60.5 185.5q0 112 69 183t183 71q103 0 166.5 -64.5t63.5 -172.5q0 -124 -69 -199t-186 -75zM262 452q-67 0 -100 -49t-33 -125q0 -44 7 -83t23 -77.5t49 -61t80 -22.5q67 0 101.5 52.5t34.5 129.5q0 107 -40.5 171.5t-121.5 64.5z" />
    <glyph glyph-name="p.smcp" unicode="&#xf770;" horiz-adv-x="440" 
d="M141 485h107q167 0 167 -137q0 -158 -209 -158h-24v-79q0 -32 9 -61q29 -14 74 -20v-32q-62 2 -118 2q-57 0 -104 -2v32q30 8 44 15q7 28 10 81v257q-2 29 -7 52q-20 13 -53 20v32q60 -2 104 -2zM182 232h26q63 0 90 26t27 84q0 49 -25.5 74.5t-69.5 25.5h-43
q-5 -21 -5 -53v-157z" />
    <glyph glyph-name="q.smcp" unicode="&#xf771;" horiz-adv-x="553" 
d="M258 -13q-106 0 -166.5 71.5t-60.5 185.5q0 112 69 183t183 71q103 0 167 -64.5t64 -172.5q0 -126 -77 -206q50 -50 93 -80l-9 -21q-43 3 -80 10q-14 9 -63 49q-50 -26 -120 -26zM258 452q-67 0 -100 -49t-33 -125q0 -44 7 -83t23 -77.5t49 -61t80 -22.5q33 0 56 12
q-34 23 -63 58l54 47l21 -2q20 -29 42 -49q26 50 26 116q0 107 -40.5 171.5t-121.5 64.5z" />
    <glyph glyph-name="r.smcp" unicode="&#xf772;" horiz-adv-x="479" 
d="M183 216v-113q1 -23 11 -54q23 -13 58 -19v-32q-32 2 -103 2q-72 0 -106 -2v32q23 5 45 15q6 23 9 81v257q-1 26 -6 52q-21 13 -54 20v32q60 -2 106 -2h116q163 0 163 -129q0 -49 -29.5 -80.5t-76.5 -46.5l105 -168l43 -33v-28h-106q-20 40 -31 57l-97 159h-47zM183 262
h58q86 0 86 90q0 44 -23.5 67t-66.5 23h-49q-3 -12 -5 -56v-124z" />
    <glyph glyph-name="s.smcp" unicode="&#xf773;" horiz-adv-x="426" 
d="M365 471q-7 -64 -4 -117h-23l-35 4q-2 51 -14 76q-25 21 -67 21q-38 0 -58 -19.5t-20 -48.5q0 -35 23.5 -57t69.5 -39q31 -12 44 -17.5t38 -19t36.5 -26.5t21.5 -34.5t10 -47.5q0 -76 -52.5 -117t-143.5 -41q-89 0 -156 33q7 26 17 137l57 -8q3 -54 13 -89q29 -27 89 -27
q43 0 66.5 22.5t23.5 60.5q0 40 -28.5 63t-80.5 41q-60 21 -96 52t-36 84q0 68 50.5 104.5t119.5 36.5q78 0 135 -27z" />
    <glyph glyph-name="t.smcp" unicode="&#xf774;" horiz-adv-x="486" 
d="M191 440h-90q-14 -41 -18 -103l-36 -6h-23q0 4 0.5 14.5t0.5 16.5q0 77 -6 123h445q-11 -88 -6 -153h-25l-33 6q-1 15 -7 51t-11 51h-92q-5 -18 -7 -53v-273q2 -40 11 -65q36 -15 69 -19v-32q-62 2 -114 2q-56 0 -124 -2v34q42 8 63 18q8 28 11 78v253q-3 40 -8 59z" />
    <glyph glyph-name="u.smcp" unicode="&#xf775;" horiz-adv-x="569" 
d="M419 209v174q-1 28 -6 52q-19 10 -55 20v32q30 -2 85 -2q53 0 101 2v-32q-31 -7 -52 -18q-7 -31 -7 -61v-133q0 -55 -7 -103q-13 -78 -59 -113.5t-133 -35.5q-78 0 -123.5 30t-64.5 95q-10 33 -10 102v164q-2 31 -8 52q-23 12 -60 21v32q47 -3 95 -3q63 0 115 3v-32
q-32 -8 -46 -17q-9 -31 -9 -64v-141q0 -57 7 -95q8 -51 35.5 -73.5t79.5 -22.5q99 0 115 86q7 35 7 81z" />
    <glyph glyph-name="v.smcp" unicode="&#xf776;" horiz-adv-x="516" 
d="M159 435l112 -336h4l113 335l-2 6q-21 9 -52 15v32q44 -2 90 -2q58 0 82 2v-32q-34 -10 -49 -18l-163 -442h-70l-157 438q-13 9 -57 22v32q48 -2 103 -2q42 0 104 2v-32q-31 -3 -56 -15z" />
    <glyph glyph-name="w.smcp" unicode="&#xf777;" horiz-adv-x="743" 
d="M416 434l110 -327h4l84 328l-2 6q-17 7 -52 14v32q32 -2 91 -2q34 0 82 2v-32q-37 -10 -51 -18l-127 -446h-74l-107 305l-112 -305h-64l-131 442q-23 13 -57 23v31q36 -2 101 -2q59 0 102 2v-32q-30 -2 -57 -14l-2 -6l88 -329h4l97 274l-24 63q-14 5 -44 11v33
q68 -2 105 -2q59 0 94 2v-36q-35 -2 -55 -9z" />
    <glyph glyph-name="x.smcp" unicode="&#xf778;" horiz-adv-x="528" 
d="M269 303l103 137l-2 7q-17 4 -59 6v34q62 -2 101 -2q60 0 89 2v-33q-32 -5 -50 -15l-145 -180l156 -209q13 -11 46 -23v-29q-34 2 -101 2q-72 0 -108 -2v28q38 7 54 17l2 8l-105 140l-106 -141l3 -8q22 -8 63 -15v-29q-34 2 -99 2q-47 0 -91 -3v29q33 14 46 25l149 188
l-143 199q-19 10 -48 17v32q70 -2 110 -2q37 0 103 2v-32q-30 -5 -54 -14l-1 -8z" />
    <glyph glyph-name="y.smcp" unicode="&#xf779;" horiz-adv-x="475" 
d="M198 126v62l-130 245q-30 14 -58 23v31q50 -2 102 -2q44 0 106 2v-32q-31 -3 -56 -15l-2 -6l89 -182h4l94 182l-2 7q-14 7 -53 14v32q44 -2 91 -2q32 0 82 2v-32q-33 -8 -51 -18l-133 -242v-92q3 -31 12 -54q23 -13 56 -19v-32q-60 2 -102 2q-45 0 -113 -2v33q32 5 52 15
q7 26 12 80z" />
    <glyph glyph-name="z.smcp" unicode="&#xf77a;" horiz-adv-x="476" 
d="M332 442h-208q-11 -31 -19 -96l-37 -6h-23q1 13 1 59q0 54 -2 72l15 14h376v-38l-298 -404h210q26 48 47 119l59 -8q-18 -93 -22 -154h-396v40z" />
    <glyph glyph-name="exclamdown.smcp" unicode="&#xf7a1;" horiz-adv-x="247" 
d="M145 360l21 -339q1 -17 -11 -27.5t-31 -10.5q-18 0 -31 10t-12 28l21 339h43zM165 457q0 -17 -11 -29t-31 -12q-19 0 -30.5 11.5t-11.5 29.5q0 17 11.5 29.5t30.5 12.5q21 0 31.5 -12t10.5 -30z" />
    <glyph glyph-name="dieresis.smcp" unicode="&#xf7a8;" horiz-adv-x="500" 
d="M294 625q0 22 15.5 37.5t36.5 15.5q22 0 37.5 -15.5t15.5 -37.5q0 -21 -15.5 -36.5t-37.5 -15.5q-21 0 -36.5 15.5t-15.5 36.5zM95 625q0 22 15.5 37.5t36.5 15.5q22 0 37.5 -15.5t15.5 -37.5q0 -21 -15.5 -36.5t-37.5 -15.5q-21 0 -36.5 15.5t-15.5 36.5z" />
    <glyph glyph-name="macron.smcp" unicode="&#xf7af;" horiz-adv-x="500" 
d="M93 607v46h293l17 -15v-45h-292z" />
    <glyph glyph-name="acute.smcp" unicode="&#xf7b4;" horiz-adv-x="500" 
d="M203 544l-33 25l109 164q34 -15 90 -24v-21z" />
    <glyph glyph-name="questiondown.smcp" unicode="&#xf7bf;" horiz-adv-x="333" 
d="M244 457q0 -17 -10.5 -29t-29.5 -12q-20 0 -32 11.5t-12 29.5q0 17 11.5 29.5t30.5 12.5q21 0 31.5 -12t10.5 -30zM31 95q0 -51 35.5 -81.5t102.5 -30.5q24 0 67 11t72 24q-6 38 -10 97h-22l-29 -11q0 -49 -8 -68q-25 -5 -48 -5q-38 0 -54 17t-16 50q0 21 8.5 38.5t17 26
t25.5 22.5l21 18q23 20 29 43t6 66v48h-54v-39q0 -43 -9.5 -60.5t-47.5 -42.5q-42 -28 -64 -55t-22 -68z" />
    <glyph glyph-name="agrave.smcp" unicode="&#xf7e0;" horiz-adv-x="529" 
d="M371 51l-38 108h-162l-41 -107l2 -6q23 -10 52 -16v-32q-44 2 -89 2q-31 0 -81 -2v31q27 7 50 19l176 439h64l158 -435q22 -13 57 -23v-31q-48 2 -102 2q-40 0 -104 -2v32q31 5 56 15zM318 207l-58 182h-3l-69 -182h130zM329 544l33 25l-109 164q-34 -15 -90 -24v-21z
" />
    <glyph glyph-name="aacute.smcp" unicode="&#xf7e1;" horiz-adv-x="529" 
d="M371 51l-38 108h-162l-41 -107l2 -6q23 -10 52 -16v-32q-44 2 -89 2q-31 0 -81 -2v31q27 7 50 19l176 439h64l158 -435q22 -13 57 -23v-31q-48 2 -102 2q-40 0 -104 -2v32q31 5 56 15zM318 207l-58 182h-3l-69 -182h130zM235 544l-33 25l109 164q34 -15 90 -24v-21z" />
    <glyph glyph-name="acircumflex.smcp" unicode="&#xf7e2;" horiz-adv-x="529" 
d="M371 51l-38 108h-162l-41 -107l2 -6q23 -10 52 -16v-32q-44 2 -89 2q-31 0 -81 -2v31q27 7 50 19l176 439h64l158 -435q22 -13 57 -23v-31q-48 2 -102 2q-40 0 -104 -2v32q31 5 56 15zM318 207l-58 182h-3l-69 -182h130zM164 544l-29 23l112 146h61l112 -146l-29 -23
l-114 89z" />
    <glyph glyph-name="atilde.smcp" unicode="&#xf7e3;" horiz-adv-x="529" 
d="M371 51l-38 108h-162l-41 -107l2 -6q23 -10 52 -16v-32q-44 2 -89 2q-31 0 -81 -2v31q27 7 50 19l176 439h64l158 -435q22 -13 57 -23v-31q-48 2 -102 2q-40 0 -104 -2v32q31 5 56 15zM318 207l-58 182h-3l-69 -182h130zM125 579l-25 12q25 42 47 68q19 23 54 23
q25 0 83 -21t83 -21q31 0 50 39l26 -8q-11 -38 -30 -70q-15 -25 -52 -25q-31 0 -93 20t-85 20q-17 0 -29 -8t-29 -29z" />
    <glyph glyph-name="adieresis.smcp" unicode="&#xf7e4;" horiz-adv-x="529" 
d="M371 51l-38 108h-162l-41 -107l2 -6q23 -10 52 -16v-32q-44 2 -89 2q-31 0 -81 -2v31q27 7 50 19l176 439h64l158 -435q22 -13 57 -23v-31q-48 2 -102 2q-40 0 -104 -2v32q31 5 56 15zM318 207l-58 182h-3l-69 -182h130zM315 625q0 22 15.5 37.5t36.5 15.5
q22 0 37.5 -15.5t15.5 -37.5q0 -21 -15.5 -36.5t-37.5 -15.5q-21 0 -36.5 15.5t-15.5 36.5zM116 625q0 22 15.5 37.5t36.5 15.5q22 0 37.5 -15.5t15.5 -37.5q0 -21 -15.5 -36.5t-37.5 -15.5q-21 0 -36.5 15.5t-15.5 36.5z" />
    <glyph glyph-name="aring.smcp" unicode="&#xf7e5;" horiz-adv-x="533" 
d="M171 582q0 42 28 73t76 31q49 0 75.5 -28.5t26.5 -72.5q0 -37 -18.5 -65t-53.5 -38l157 -430q22 -13 57 -23v-31q-48 2 -102 2q-40 0 -104 -2v32q31 5 56 15l2 6l-38 108h-162l-41 -107l2 -6q23 -10 52 -16v-32q-44 2 -89 2q-31 0 -81 -2v31q27 7 50 19l174 434
q-67 20 -67 100zM318 207l-58 182h-3l-69 -182h130zM220 582q0 -29 13.5 -47.5t41.5 -18.5q25 0 39 19.5t14 47.5q0 30 -14 48t-41 18q-25 0 -39 -19t-14 -48z" />
    <glyph glyph-name="ae.smcp" unicode="&#xf7e6;" horiz-adv-x="684" 
d="M562 440h-141q-1 -9 -4 -56v-115h93q19 0 31 6q14 25 19 52h36q-4 -31 -4 -72q0 -51 4 -88h-35q-8 29 -17 51q-22 5 -44 5h-83v-106q2 -50 6 -72h155q26 52 33 92l53 -7q-19 -81 -19 -130h-271q-62 0 -97 -2v32q26 6 46 15q6 29 9 81v47h-138l-65 -122l1 -5q20 -9 54 -16
v-32q-32 2 -98 2q-31 0 -81 -2v31q31 10 50 20l209 385q-33 16 -60 21v32q54 -2 101 -2h326q-4 -96 -3 -116h-23l-33 6q-2 43 -10 65zM215 217h117v208h-4z" />
    <glyph glyph-name="ccedilla.smcp" unicode="&#xf7e7;" horiz-adv-x="487" 
d="M307 -13l-7 -35q8 -1 22 -6q64 -21 64 -72q0 -41 -28.5 -68t-72.5 -34q-29 0 -68 3l4 29q30 3 62 11q42 12 42 47q0 32 -39 43q-19 6 -31 7l-9 15l13 62q-115 9 -169.5 76.5t-54.5 178.5q0 110 74 182t183 72q62 0 157 -20q-9 -68 -6 -125h-23l-34 6q-6 67 -15 80
q-39 13 -91 13q-67 0 -109 -53t-42 -142q0 -57 14.5 -104t54.5 -82t100 -35q47 0 71 11q19 25 37 97l51 -8q-11 -74 -11 -123q-59 -24 -139 -26z" />
    <glyph glyph-name="egrave.smcp" unicode="&#xf7e8;" horiz-adv-x="442" 
d="M322 440h-142q-5 -21 -5 -56v-113h86q21 1 30 5q15 27 21 51h34q-3 -37 -3 -80t3 -80h-35q-5 23 -18 50q-16 4 -43 4h-75v-104q0 -37 6 -72h154q23 41 35 92l52 -7q-18 -85 -19 -130h-272q-61 0 -95 -2v32q30 8 44 15q7 28 10 81v255q-2 32 -7 53q-20 12 -53 20v31h361
q-8 -56 -5 -116h-23l-32 6q0 39 -9 65zM286 569l-33 -25l-166 144v21q56 9 90 24z" />
    <glyph glyph-name="eacute.smcp" unicode="&#xf7e9;" horiz-adv-x="442" 
d="M322 440h-142q-5 -21 -5 -56v-113h86q21 1 30 5q15 27 21 51h34q-3 -37 -3 -80t3 -80h-35q-5 23 -18 50q-16 4 -43 4h-75v-104q0 -37 6 -72h154q23 41 35 92l52 -7q-18 -85 -19 -130h-272q-61 0 -95 -2v32q30 8 44 15q7 28 10 81v255q-2 32 -7 53q-20 12 -53 20v31h361
q-8 -56 -5 -116h-23l-32 6q0 39 -9 65zM182 543l-33 25l109 164q34 -15 90 -24v-21z" />
    <glyph glyph-name="ecircumflex.smcp" unicode="&#xf7ea;" horiz-adv-x="442" 
d="M322 440h-142q-5 -21 -5 -56v-113h86q21 1 30 5q15 27 21 51h34q-3 -37 -3 -80t3 -80h-35q-5 23 -18 50q-16 4 -43 4h-75v-104q0 -37 6 -72h154q23 41 35 92l52 -7q-18 -85 -19 -130h-272q-61 0 -95 -2v32q30 8 44 15q7 28 10 81v255q-2 32 -7 53q-20 12 -53 20v31h361
q-8 -56 -5 -116h-23l-32 6q0 39 -9 65zM105 544l-29 23l112 146h61l112 -146l-29 -23l-114 89z" />
    <glyph glyph-name="edieresis.smcp" unicode="&#xf7eb;" horiz-adv-x="442" 
d="M322 440h-142q-5 -21 -5 -56v-113h86q21 1 30 5q15 27 21 51h34q-3 -37 -3 -80t3 -80h-35q-5 23 -18 50q-16 4 -43 4h-75v-104q0 -37 6 -72h154q23 41 35 92l52 -7q-18 -85 -19 -130h-272q-61 0 -95 -2v32q30 8 44 15q7 28 10 81v255q-2 32 -7 53q-20 12 -53 20v31h361
q-8 -56 -5 -116h-23l-32 6q0 39 -9 65zM262 625q0 22 15.5 37.5t36.5 15.5q22 0 37.5 -15.5t15.5 -37.5q0 -21 -15.5 -36.5t-37.5 -15.5q-21 0 -36.5 15.5t-15.5 36.5zM63 625q0 22 15.5 37.5t36.5 15.5q22 0 37.5 -15.5t15.5 -37.5q0 -21 -15.5 -36.5t-37.5 -15.5
q-21 0 -36.5 15.5t-15.5 36.5z" />
    <glyph glyph-name="igrave.smcp" unicode="&#xf7ec;" horiz-adv-x="277" 
d="M95 126v252q-2 35 -7 57q-21 12 -53 20v32q29 -2 103 -2q53 0 101 2v-32q-36 -8 -48 -18q-9 -41 -11 -81v-243q2 -34 11 -63q24 -14 57 -20v-32q-64 2 -103 2q-60 0 -105 -2v32q24 5 48 17q4 32 7 79zM233 569l-33 -25l-166 144v21q56 9 90 24z" />
    <glyph glyph-name="iacute.smcp" unicode="&#xf7ed;" horiz-adv-x="277" 
d="M95 378v-252q-3 -47 -7 -79q-24 -12 -48 -17v-32q45 2 105 2q39 0 103 -2v32q-33 6 -57 20q-9 29 -11 63v243q2 40 11 81q12 10 48 18v32q-48 -2 -101 -2q-74 0 -103 2v-32q32 -8 53 -20q5 -22 7 -57zM91 544l-33 25l109 164q34 -15 90 -24v-21z" />
    <glyph glyph-name="icircumflex.smcp" unicode="&#xf7ee;" horiz-adv-x="277" 
d="M95 378v-252q-3 -47 -7 -79q-24 -12 -48 -17v-32q45 2 105 2q39 0 103 -2v32q-33 6 -57 20q-9 29 -11 63v243q2 40 11 81q12 10 48 18v32q-48 -2 -101 -2q-74 0 -103 2v-32q32 -8 53 -20q5 -22 7 -57zM25 544l-29 23l112 146h61l112 -146l-29 -23l-114 89z" />
    <glyph glyph-name="idieresis.smcp" unicode="&#xf7ef;" horiz-adv-x="277" 
d="M95 378v-252q-3 -47 -7 -79q-24 -12 -48 -17v-32q45 2 105 2q39 0 103 -2v32q-33 6 -57 20q-9 29 -11 63v243q2 40 11 81q12 10 48 18v32q-48 -2 -101 -2q-74 0 -103 2v-32q32 -8 53 -20q5 -22 7 -57zM182 625q0 22 15.5 37.5t36.5 15.5q22 0 37.5 -15.5t15.5 -37.5
q0 -21 -15.5 -36.5t-37.5 -15.5q-21 0 -36.5 15.5t-15.5 36.5zM-17 625q0 22 15.5 37.5t36.5 15.5q22 0 37.5 -15.5t15.5 -37.5q0 -21 -15.5 -36.5t-37.5 -15.5q-21 0 -36.5 15.5t-15.5 36.5z" />
    <glyph glyph-name="eth.smcp" unicode="&#xf7f0;" horiz-adv-x="536" 
d="M35 223v44h66v116q-1 27 -7 51q-24 13 -54 21v32q30 -2 101 -2h116q50 0 91.5 -11t77 -35.5t55.5 -69.5t20 -108q0 -137 -66.5 -199t-169.5 -62h-117q-69 0 -102 -2v32q28 6 45 15q7 26 10 81v97h-66zM408 238q0 110 -45.5 157t-128.5 47h-48v-175h108v-44h-108v-121
q0 -39 7 -59h57q86 0 122 48.5t36 146.5z" />
    <glyph glyph-name="ntilde.smcp" unicode="&#xf7f1;" horiz-adv-x="592" 
d="M499 380l-1 -372l-65 -19l-272 418v-299q0 -30 9 -59q22 -12 59 -19v-32q-32 2 -89 2q-66 0 -98 -2v32q29 8 45 15q7 28 10 81v247q0 33 -4 61q-13 7 -53 19v34q54 -2 92 -2q40 0 77 2l229 -361v250q0 36 -9 59q-30 14 -65 21v31q45 -2 101 -2q68 0 97 2v-32
q-35 -10 -56 -21q-7 -30 -7 -54zM158 579l-25 12q25 42 47 68q19 23 54 23q26 0 83.5 -21t82.5 -21q31 0 50 39l26 -8q-11 -38 -30 -70q-15 -25 -52 -25q-31 0 -93 20t-85 20q-17 0 -29 -8t-29 -29z" />
    <glyph glyph-name="ograve.smcp" unicode="&#xf7f2;" horiz-adv-x="552" 
d="M262 -13q-106 0 -166.5 71.5t-60.5 185.5q0 112 69 183t183 71q103 0 166.5 -64.5t63.5 -172.5q0 -124 -69 -199t-186 -75zM262 452q-67 0 -100 -49t-33 -125q0 -44 7 -83t23 -77.5t49 -61t80 -22.5q67 0 101.5 52.5t34.5 129.5q0 107 -40.5 171.5t-121.5 64.5zM372 569
l-33 -25l-166 144v21q56 9 90 24z" />
    <glyph glyph-name="oacute.smcp" unicode="&#xf7f3;" horiz-adv-x="552" 
d="M262 -13q-106 0 -166.5 71.5t-60.5 185.5q0 112 69 183t183 71q103 0 166.5 -64.5t63.5 -172.5q0 -124 -69 -199t-186 -75zM262 452q-67 0 -100 -49t-33 -125q0 -44 7 -83t23 -77.5t49 -61t80 -22.5q67 0 101.5 52.5t34.5 129.5q0 107 -40.5 171.5t-121.5 64.5zM230 544
l-33 25l109 164q34 -15 90 -24v-21z" />
    <glyph glyph-name="ocircumflex.smcp" unicode="&#xf7f4;" horiz-adv-x="552" 
d="M262 -13q-106 0 -166.5 71.5t-60.5 185.5q0 112 69 183t183 71q103 0 166.5 -64.5t63.5 -172.5q0 -124 -69 -199t-186 -75zM262 452q-67 0 -100 -49t-33 -125q0 -44 7 -83t23 -77.5t49 -61t80 -22.5q67 0 101.5 52.5t34.5 129.5q0 107 -40.5 171.5t-121.5 64.5zM170 544
l-29 23l112 146h61l112 -146l-29 -23l-114 89z" />
    <glyph glyph-name="otilde.smcp" unicode="&#xf7f5;" horiz-adv-x="552" 
d="M262 -13q-106 0 -166.5 71.5t-60.5 185.5q0 112 69 183t183 71q103 0 166.5 -64.5t63.5 -172.5q0 -124 -69 -199t-186 -75zM262 452q-67 0 -100 -49t-33 -125q0 -44 7 -83t23 -77.5t49 -61t80 -22.5q67 0 101.5 52.5t34.5 129.5q0 107 -40.5 171.5t-121.5 64.5zM135 579
l-25 12q25 42 47 68q19 23 54 23q26 0 83.5 -21t82.5 -21q31 0 50 39l26 -8q-11 -38 -30 -70q-15 -25 -52 -25q-31 0 -93 20t-85 20q-17 0 -29 -8t-29 -29z" />
    <glyph glyph-name="odieresis.smcp" unicode="&#xf7f6;" horiz-adv-x="552" 
d="M262 -13q-106 0 -166.5 71.5t-60.5 185.5q0 112 69 183t183 71q103 0 166.5 -64.5t63.5 -172.5q0 -124 -69 -199t-186 -75zM262 452q-67 0 -100 -49t-33 -125q0 -44 7 -83t23 -77.5t49 -61t80 -22.5q67 0 101.5 52.5t34.5 129.5q0 107 -40.5 171.5t-121.5 64.5zM333 625
q0 22 15.5 37.5t36.5 15.5q22 0 37.5 -15.5t15.5 -37.5q0 -21 -15.5 -36.5t-37.5 -15.5q-21 0 -36.5 15.5t-15.5 36.5zM134 625q0 22 15.5 37.5t36.5 15.5q22 0 37.5 -15.5t15.5 -37.5q0 -21 -15.5 -36.5t-37.5 -15.5q-21 0 -36.5 15.5t-15.5 36.5z" />
    <glyph glyph-name="oslash.smcp" unicode="&#xf7f8;" horiz-adv-x="552" 
d="M262 -13q-49 0 -91 17l-56 -94l-46 26l56 94q-90 70 -90 214q0 112 69 183t183 71q56 0 105 -22l47 79l46 -25l-49 -82q81 -65 81 -187q0 -124 -69 -199t-186 -75zM262 452q-67 0 -100 -49t-33 -125q0 -113 39 -177l189 317q-37 34 -95 34zM424 216q0 96 -33 157
l-187 -313q36 -26 84 -26q67 0 101.5 52.5t34.5 129.5z" />
    <glyph glyph-name="ugrave.smcp" unicode="&#xf7f9;" horiz-adv-x="569" 
d="M419 209v174q-1 28 -6 52q-19 10 -55 20v32q30 -2 85 -2q53 0 101 2v-32q-31 -7 -52 -18q-7 -31 -7 -61v-133q0 -55 -7 -103q-13 -78 -59 -113.5t-133 -35.5q-78 0 -123.5 30t-64.5 95q-10 33 -10 102v164q-2 31 -8 52q-23 12 -60 21v32q47 -3 95 -3q63 0 115 3v-32
q-32 -8 -46 -17q-9 -31 -9 -64v-141q0 -57 7 -95q8 -51 35.5 -73.5t79.5 -22.5q99 0 115 86q7 35 7 81zM382 569l-33 -25l-166 144v21q56 9 90 24z" />
    <glyph glyph-name="uacute.smcp" unicode="&#xf7fa;" horiz-adv-x="569" 
d="M419 383v-174q0 -46 -7 -81q-16 -86 -115 -86q-52 0 -79.5 22.5t-35.5 73.5q-7 38 -7 95v141q0 33 9 64q14 9 46 17v32q-52 -3 -115 -3q-49 0 -95 3v-32q37 -9 60 -21q6 -21 8 -52v-164q0 -69 10 -102q19 -65 64.5 -95t123.5 -30q87 0 133 35.5t59 113.5q7 48 7 103v133
q0 30 7 61q21 11 52 18v32q-48 -2 -101 -2q-55 0 -85 2v-32q36 -10 55 -20q5 -24 6 -52zM263 544l-33 25l109 164q34 -15 90 -24v-21z" />
    <glyph glyph-name="ucircumflex.smcp" unicode="&#xf7fb;" horiz-adv-x="569" 
d="M419 383v-174q0 -46 -7 -81q-16 -86 -115 -86q-52 0 -79.5 22.5t-35.5 73.5q-7 38 -7 95v141q0 33 9 64q14 9 46 17v32q-52 -3 -115 -3q-49 0 -95 3v-32q37 -9 60 -21q6 -21 8 -52v-164q0 -69 10 -102q19 -65 64.5 -95t123.5 -30q87 0 133 35.5t59 113.5q7 48 7 103v133
q0 30 7 61q21 11 52 18v32q-48 -2 -101 -2q-55 0 -85 2v-32q36 -10 55 -20q5 -24 6 -52zM184 544l-29 23l112 146h61l112 -146l-29 -23l-114 89z" />
    <glyph glyph-name="udieresis.smcp" unicode="&#xf7fc;" horiz-adv-x="569" 
d="M419 383v-174q0 -46 -7 -81q-16 -86 -115 -86q-52 0 -79.5 22.5t-35.5 73.5q-7 38 -7 95v141q0 33 9 64q14 9 46 17v32q-52 -3 -115 -3q-49 0 -95 3v-32q37 -9 60 -21q6 -21 8 -52v-164q0 -69 10 -102q19 -65 64.5 -95t123.5 -30q87 0 133 35.5t59 113.5q7 48 7 103v133
q0 30 7 61q21 11 52 18v32q-48 -2 -101 -2q-55 0 -85 2v-32q36 -10 55 -20q5 -24 6 -52zM339 625q0 22 15.5 37.5t36.5 15.5q22 0 37.5 -15.5t15.5 -37.5q0 -21 -15.5 -36.5t-37.5 -15.5q-21 0 -36.5 15.5t-15.5 36.5zM140 625q0 22 15.5 37.5t36.5 15.5q22 0 37.5 -15.5
t15.5 -37.5q0 -21 -15.5 -36.5t-37.5 -15.5q-21 0 -36.5 15.5t-15.5 36.5z" />
    <glyph glyph-name="yacute.smcp" unicode="&#xf7fd;" horiz-adv-x="475" 
d="M198 126v62l-130 245q-30 14 -58 23v31q50 -2 102 -2q44 0 106 2v-32q-31 -3 -56 -15l-2 -6l89 -182h4l94 182l-2 7q-14 7 -53 14v32q44 -2 91 -2q32 0 82 2v-32q-33 -8 -51 -18l-133 -242v-92q3 -31 12 -54q23 -13 56 -19v-32q-60 2 -102 2q-45 0 -113 -2v33q32 5 52 15
q7 26 12 80zM193 544l-33 25l109 164q34 -15 90 -24v-21z" />
    <glyph glyph-name="thorn.smcp" unicode="&#xf7fe;" horiz-adv-x="442" 
d="M85 45q7 28 10 81v256q-1 22 -7 53q-21 12 -53 20v32q29 -2 103 -2q53 0 101 2v-32q-43 -10 -53 -18l-6 -32h66q167 0 167 -127q0 -42 -17.5 -72t-48.5 -46t-66 -23t-77 -7h-24v-19q0 -32 9 -61q29 -14 74 -20v-32q-62 2 -118 2q-57 0 -104 -2v32q30 8 44 15zM228 362
h-48v-190h26q62 0 89.5 24.5t27.5 75.5q0 45 -25.5 67.5t-69.5 22.5z" />
    <glyph glyph-name="ydieresis.smcp" unicode="&#xf7ff;" horiz-adv-x="475" 
d="M198 126v62l-130 245q-30 14 -58 23v31q50 -2 102 -2q44 0 106 2v-32q-31 -3 -56 -15l-2 -6l89 -182h4l94 182l-2 7q-14 7 -53 14v32q44 -2 91 -2q32 0 82 2v-32q-33 -8 -51 -18l-133 -242v-92q3 -31 12 -54q23 -13 56 -19v-32q-60 2 -102 2q-45 0 -113 -2v33q32 5 52 15
q7 26 12 80zM296 625q0 22 15.5 37.5t36.5 15.5q22 0 37.5 -15.5t15.5 -37.5q0 -21 -15.5 -36.5t-37.5 -15.5q-21 0 -36.5 15.5t-15.5 36.5zM97 625q0 22 15.5 37.5t36.5 15.5q22 0 37.5 -15.5t15.5 -37.5q0 -21 -15.5 -36.5t-37.5 -15.5q-21 0 -36.5 15.5t-15.5 36.5z" />
    <glyph glyph-name="amacron.smcp" unicode="&#xf900;" horiz-adv-x="529" 
d="M371 51l-38 108h-162l-41 -107l2 -6q23 -10 52 -16v-32q-44 2 -89 2q-31 0 -81 -2v31q27 7 50 19l176 439h64l158 -435q22 -13 57 -23v-31q-48 2 -102 2q-40 0 -104 -2v32q31 5 56 15zM318 207l-58 182h-3l-69 -182h130zM112 607v46h293l17 -15v-45h-292z" />
    <glyph glyph-name="abreve.smcp" unicode="&#xf901;" horiz-adv-x="529" 
d="M371 51l-38 108h-162l-41 -107l2 -6q23 -10 52 -16v-32q-44 2 -89 2q-31 0 -81 -2v31q27 7 50 19l176 439h64l158 -435q22 -13 57 -23v-31q-48 2 -102 2q-40 0 -104 -2v32q31 5 56 15zM318 207l-58 182h-3l-69 -182h130zM128 690l34 20q21 -41 51.5 -68t63.5 -27
q61 0 111 93l31 -18q-26 -81 -66.5 -113.5t-80.5 -32.5q-46 0 -81.5 33.5t-62.5 112.5z" />
    <glyph glyph-name="aogonek.smcp" unicode="&#xf902;" horiz-adv-x="529" 
d="M371 51l-38 108h-162l-41 -107l2 -6q23 -10 52 -16v-32q-44 2 -89 2q-31 0 -81 -2v31q27 7 50 19l176 439h64l158 -435q22 -13 57 -23v-31q-45 -22 -50 -26q-24 -17 -36 -27t-26 -32t-14 -47q0 -27 11.5 -48t36.5 -21q24 0 64 19l12 -29q-33 -20 -68 -38q-19 -10 -43 -10
q-41 0 -66 30t-25 73q0 44 24 74q32 39 94 84h-16q-40 0 -104 -2v32q31 5 56 15zM318 207l-58 182h-3l-69 -182h130z" />
    <glyph glyph-name="cacute.smcp" unicode="&#xf903;" horiz-adv-x="487" 
d="M449 478q-95 20 -157 20q-109 0 -183 -72t-74 -182q0 -118 62.5 -187.5t195.5 -69.5q91 0 153 26q0 49 11 123l-51 8q-18 -72 -37 -97q-24 -11 -71 -11q-60 0 -100 35t-54.5 82t-14.5 104q0 89 42 142t109 53q52 0 91 -13q9 -13 15 -80l34 -6h23q-3 57 6 125zM245 544
l-33 25l109 164q34 -15 90 -24v-21z" />
    <glyph glyph-name="ccircumflex.smcp" unicode="&#xf904;" horiz-adv-x="487" 
d="M449 478q-95 20 -157 20q-109 0 -183 -72t-74 -182q0 -118 62.5 -187.5t195.5 -69.5q91 0 153 26q0 49 11 123l-51 8q-18 -72 -37 -97q-24 -11 -71 -11q-60 0 -100 35t-54.5 82t-14.5 104q0 89 42 142t109 53q52 0 91 -13q9 -13 15 -80l34 -6h23q-3 57 6 125zM170 544
l-29 23l112 146h61l112 -146l-29 -23l-114 89z" />
    <glyph glyph-name="cdotaccent.smcp" unicode="&#xf905;" horiz-adv-x="487" 
d="M449 478q-95 20 -157 20q-109 0 -183 -72t-74 -182q0 -118 62.5 -187.5t195.5 -69.5q91 0 153 26q0 49 11 123l-51 8q-18 -72 -37 -97q-24 -11 -71 -11q-60 0 -100 35t-54.5 82t-14.5 104q0 89 42 142t109 53q52 0 91 -13q9 -13 15 -80l34 -6h23q-3 57 6 125zM234 625
q0 22 16.5 39t38.5 17q23 0 39.5 -16.5t16.5 -39.5q0 -22 -17 -38.5t-39 -16.5t-38.5 16.5t-16.5 38.5z" />
    <glyph glyph-name="ccaron.smcp" unicode="&#xf906;" horiz-adv-x="487" 
d="M449 478q-95 20 -157 20q-109 0 -183 -72t-74 -182q0 -118 62.5 -187.5t195.5 -69.5q91 0 153 26q0 49 11 123l-51 8q-18 -72 -37 -97q-24 -11 -71 -11q-60 0 -100 35t-54.5 82t-14.5 104q0 89 42 142t109 53q52 0 91 -13q9 -13 15 -80l34 -6h23q-3 57 6 125zM392 713
l29 -23l-112 -146h-61l-112 146l29 23l114 -89z" />
    <glyph glyph-name="dcaron.smcp" unicode="&#xf907;" horiz-adv-x="531" 
d="M403 238q0 -98 -36 -146.5t-122 -48.5h-57q-7 20 -7 59v340h48q83 0 128.5 -47t45.5 -157zM143 0h117q103 0 169.5 62t66.5 199q0 63 -20 108t-55.5 69.5t-77 35.5t-91.5 11h-116q-71 0 -101 2v-32q30 -8 54 -21q6 -24 7 -51v-257q-3 -55 -10 -81q-17 -9 -45 -15v-32
q33 2 102 2zM348 713l29 -23l-112 -146h-61l-112 146l29 23l114 -89z" />
    <glyph glyph-name="dcroat.smcp" unicode="&#xf908;" horiz-adv-x="536" 
d="M35 223v44h66v116q-1 27 -7 51q-24 13 -54 21v32q30 -2 101 -2h116q50 0 91.5 -11t77 -35.5t55.5 -69.5t20 -108q0 -137 -66.5 -199t-169.5 -62h-117q-69 0 -102 -2v32q28 6 45 15q7 26 10 81v97h-66zM408 238q0 110 -45.5 157t-128.5 47h-48v-175h108v-44h-108v-121
q0 -39 7 -59h57q86 0 122 48.5t36 146.5z" />
    <glyph glyph-name="emacron.smcp" unicode="&#xf909;" horiz-adv-x="442" 
d="M322 440h-142q-5 -21 -5 -56v-113h86q21 1 30 5q15 27 21 51h34q-3 -37 -3 -80t3 -80h-35q-5 23 -18 50q-16 4 -43 4h-75v-104q0 -37 6 -72h154q23 41 35 92l52 -7q-18 -85 -19 -130h-272q-61 0 -95 -2v32q30 8 44 15q7 28 10 81v255q-2 32 -7 53q-20 12 -53 20v31h361
q-8 -56 -5 -116h-23l-32 6q0 39 -9 65zM63 607v46h293l17 -15v-45h-292z" />
    <glyph glyph-name="ebreve.smcp" unicode="&#xf90a;" horiz-adv-x="442" 
d="M322 440h-142q-5 -21 -5 -56v-113h86q21 1 30 5q15 27 21 51h34q-3 -37 -3 -80t3 -80h-35q-5 23 -18 50q-16 4 -43 4h-75v-104q0 -37 6 -72h154q23 41 35 92l52 -7q-18 -85 -19 -130h-272q-61 0 -95 -2v32q30 8 44 15q7 28 10 81v255q-2 32 -7 53q-20 12 -53 20v31h361
q-8 -56 -5 -116h-23l-32 6q0 39 -9 65zM72 690l34 20q21 -41 51.5 -68t63.5 -27q61 0 111 93l31 -18q-26 -81 -66.5 -113.5t-80.5 -32.5q-46 0 -81.5 33.5t-62.5 112.5z" />
    <glyph glyph-name="edotaccent.smcp" unicode="&#xf90b;" horiz-adv-x="442" 
d="M322 440h-142q-5 -21 -5 -56v-113h86q21 1 30 5q15 27 21 51h34q-3 -37 -3 -80t3 -80h-35q-5 23 -18 50q-16 4 -43 4h-75v-104q0 -37 6 -72h154q23 41 35 92l52 -7q-18 -85 -19 -130h-272q-61 0 -95 -2v32q30 8 44 15q7 28 10 81v255q-2 32 -7 53q-20 12 -53 20v31h361
q-8 -56 -5 -116h-23l-32 6q0 39 -9 65zM163 625q0 22 16.5 39t38.5 17t39 -16.5t17 -39.5q0 -22 -17 -38.5t-39 -16.5t-38.5 16.5t-16.5 38.5z" />
    <glyph glyph-name="eogonek.smcp" unicode="&#xf90c;" horiz-adv-x="442" 
d="M322 440h-142q-5 -21 -5 -56v-113h86q21 1 30 5q15 27 21 51h34q-3 -37 -3 -80t3 -80h-35q-5 23 -18 50q-16 4 -43 4h-75v-104q0 -37 6 -72h154q23 41 35 92l52 -7q-18 -85 -19 -130q-18 0 -55 -22q-28 -17 -50.5 -46.5t-22.5 -65.5q0 -27 11.5 -48t36.5 -21q24 0 64 19
l12 -29q-33 -20 -68 -38q-19 -10 -43 -10q-41 0 -66 30t-25 73q0 44 24 74q32 39 94 84h-184q-61 0 -95 -2v32q30 8 44 15q7 28 10 81v255q-2 32 -7 53q-20 12 -53 20v31h361q-8 -56 -5 -116h-23l-32 6q0 39 -9 65z" />
    <glyph glyph-name="ecaron.smcp" unicode="&#xf90d;" horiz-adv-x="442" 
d="M322 440h-142q-5 -21 -5 -56v-113h86q21 1 30 5q15 27 21 51h34q-3 -37 -3 -80t3 -80h-35q-5 23 -18 50q-16 4 -43 4h-75v-104q0 -37 6 -72h154q23 41 35 92l52 -7q-18 -85 -19 -130h-272q-61 0 -95 -2v32q30 8 44 15q7 28 10 81v255q-2 32 -7 53q-20 12 -53 20v31h361
q-8 -56 -5 -116h-23l-32 6q0 39 -9 65zM340 713l29 -23l-112 -146h-61l-112 146l29 23l114 -89z" />
    <glyph glyph-name="gcircumflex.smcp" unicode="&#xf90e;" horiz-adv-x="521" 
d="M301 37q37 0 74 10v70q-2 37 -8 58q-33 17 -68 22v31q96 -3 109 -3q53 0 103 3v-32q-27 -5 -46 -15q-2 -18 -6 -75v-84q-91 -35 -172 -35q-124 0 -188 67.5t-64 189.5q0 111 75 182.5t187 71.5q76 0 162 -18q-7 -67 -4 -127h-23l-35 6q-3 49 -15 79q-38 13 -89 13
q-76 0 -120 -51t-44 -145q0 -42 8.5 -79t27.5 -69t54 -51t82 -19zM180 544l-29 23l112 146h61l112 -146l-29 -23l-114 89z" />
    <glyph glyph-name="gbreve.smcp" unicode="&#xf90f;" horiz-adv-x="521" 
d="M301 37q37 0 74 10v70q-2 37 -8 58q-33 17 -68 22v31q96 -3 109 -3q53 0 103 3v-32q-27 -5 -46 -15q-2 -18 -6 -75v-84q-91 -35 -172 -35q-124 0 -188 67.5t-64 189.5q0 111 75 182.5t187 71.5q76 0 162 -18q-7 -67 -4 -127h-23l-35 6q-3 49 -15 79q-38 13 -89 13
q-76 0 -120 -51t-44 -145q0 -42 8.5 -79t27.5 -69t54 -51t82 -19zM150 690l34 20q21 -41 51.5 -68t63.5 -27q61 0 111 93l31 -18q-26 -81 -66.5 -113.5t-80.5 -32.5q-46 0 -81.5 33.5t-62.5 112.5z" />
    <glyph glyph-name="gdotaccent.smcp" unicode="&#xf910;" horiz-adv-x="521" 
d="M301 37q37 0 74 10v70q-2 37 -8 58q-33 17 -68 22v31q96 -3 109 -3q53 0 103 3v-32q-27 -5 -46 -15q-2 -18 -6 -75v-84q-91 -35 -172 -35q-124 0 -188 67.5t-64 189.5q0 111 75 182.5t187 71.5q76 0 162 -18q-7 -67 -4 -127h-23l-35 6q-3 49 -15 79q-38 13 -89 13
q-76 0 -120 -51t-44 -145q0 -42 8.5 -79t27.5 -69t54 -51t82 -19zM238 625q0 22 16.5 39t38.5 17q23 0 39.5 -16.5t16.5 -39.5q0 -22 -17 -38.5t-39 -16.5t-38.5 16.5t-16.5 38.5z" />
    </font>
</defs>
</svg>
